<?xml version="1.0" encoding="utf-8"?>
<!-- Generator: Adobe Illustrator 16.0.0, SVG Export Plug-In . SVG Version: 6.00 Build 0)  -->
<!DOCTYPE svg PUBLIC "-//W3C//DTD SVG 1.1//EN" "http://www.w3.org/Graphics/SVG/1.1/DTD/svg11.dtd">
<svg version="1.1" xmlns="http://www.w3.org/2000/svg" xmlns:xlink="http://www.w3.org/1999/xlink" x="0px" y="0px" width="100px"
	 height="100px" viewBox="0 0 100 100" enable-background="new 0 0 100 100" xml:space="preserve">
<g id="Layer_2_1_">
	<g id="Layer_11">
		<path fill="#0A3D61" d="M47.314,0.082c-7.609,0.403-13.617,2.833-19.226,5.26c-4.808,2.428-8.812,5.665-12.417,9.306
			c-0.4,0.405-1.201,0.81-1.604,1.62c-0.4,0.404-0.801,1.214-1.6,1.619l-3.607,5.26C-0.75,38.93-1.551,56.328,6.46,72.517
			c0.401,1.619,1.202,2.832,2.005,4.046c0.396,0.81,0.799,1.215,1.199,2.022c2.404,3.643,4.406,5.666,7.212,8.498
			c8.011,7.284,20.826,14.162,36.446,12.948c8.41-0.405,12.416-2.022,19.627-5.259c2.804-1.215,5.209-3.239,7.609-4.856
			c2.006-1.215,6.01-4.857,7.213-6.882c1.604-2.021,2.803-2.83,4.806-6.066c2.001-3.646,2.401-4.047,4.005-8.095
			c5.208-12.948,4.406-29.135-2.004-41.275c-1.199-2.833-2.803-5.666-4.405-7.69c-2.401-3.236-3.604-4.045-6.009-6.878
			C74.953,4.533,60.936-0.728,47.314,0.082L47.314,0.082L47.314,0.082z M50.117,24.362L50.117,24.362
			c0.804-0.405,3.605,1.214,4.809,1.618c1.202,0.81,2.803,1.213,4.406,2.022l6.809,2.834c3.207,1.213,2.404,0.809,3.207,2.83
			c1.6,3.644,3.201,7.689,4.805,11.332c0.4,1.213,1.601,3.644,2.002,4.856c0,0.81-4.807,12.142-5.607,13.76l-1.602,4.45
			c-0.399,0.809-3.605,1.618-4.807,2.023l-13.217,5.664c-0.805,0.405-7.611-2.832-9.215-3.236l-8.811-4.046
			c-1.203-0.405-6.01-13.354-6.81-15.781c-0.401-0.408-0.802-1.619-1.2-2.024c0-0.809,4.405-11.734,5.604-13.76
			c2.005-5.262,0.802-4.451,3.605-5.665c0.805-0.403,1.602-0.809,2.404-1.213L50.117,24.362L50.117,24.362z M64.139,18.291
			L64.139,18.291l20.826-2.833l-2.803,20.638c-1.202,0-12.814-4.855-12.814-4.855C68.945,30.837,64.539,19.1,64.139,18.291
			L64.139,18.291z M38.104,82.632c0.4-0.403,12.015-5.664,12.418-5.664c0.399,0,10.812,4.856,12.414,5.261
			c-0.399,0.808-1.604,2.427-2.4,3.235c0,0.405-0.4,0.811-0.803,1.216l-9.211,12.545l-6.41-8.498
			C42.107,87.893,40.105,85.06,38.104,82.632L38.104,82.632z M18.876,36.096l-2.804-20.638L36.5,18.291
			c0,0.81-4.406,12.546-4.807,12.949l-12.018,4.855c0,0,0,0-0.4,0C19.277,36.096,19.277,36.096,18.876,36.096L18.876,36.096z
			 M82.563,62.804v-0.404c-0.801-0.809-5.607-12.141-5.607-12.141c0-0.403,4.807-11.329,5.607-12.543c0.4,0,3.203,2.429,4.006,2.834
			l12.414,9.709L84.564,61.188C83.766,61.591,83.363,62.399,82.563,62.804L82.563,62.804z M38.104,17.887h-0.002l12.42-16.591
			l3.201,4.045c1.203,1.214,2.004,2.834,3.205,4.049c0.801,1.212,5.607,7.687,6.008,8.497c-1.604,0.809-11.615,5.26-12.414,5.26
			l-12.019-5.26C38.104,17.887,38.104,17.887,38.104,17.887L38.104,17.887z M18.876,64.423c0.401-0.404,0.401-0.404,0.802-0.404
			l12.016,5.262c0.4,0,2.402,5.259,2.402,6.069c0.4,1.215,2.805,6.069,2.404,6.477l-20.428,2.831L18.876,64.423L18.876,64.423z
			 M64.539,81.825c-0.4-0.406,4.809-12.546,4.809-12.546l12.814-5.262l2.402,20.639L64.539,81.825L64.539,81.825z M2.055,50.259
			L18.477,37.31l5.607,12.949c0,0-5.208,11.736-5.607,12.545C13.268,59.162,6.861,53.496,2.055,50.259L2.055,50.259z M16.875,14.648
			c2.803-2.832,10.413-8.901,14.417-9.71c0.802,0.81,2.004,4.855,2.804,6.068c0.805,1.619,2.004,4.451,2.404,6.476
			C34.497,17.482,17.273,15.054,16.875,14.648L16.875,14.648z M85.768,84.251c-0.4-0.81-2.402-17.806-2.804-20.232
			c0.401,0.404,12.015,4.855,12.416,5.262C93.777,74.538,89.374,80.205,85.768,84.251L85.768,84.251z M83.363,63.208L83.363,63.208
			c0.402-0.403,1.201-0.809,2.002-1.617l14.02-10.521c0.4,3.236-2.002,15.376-3.605,17.399
			C95.379,68.468,84.564,64.018,83.363,63.208L83.363,63.208z M5.66,69.279c0.4-0.405,11.216-4.856,12.417-5.262l-2.404,20.233
			C12.87,82.229,6.861,73.324,5.66,69.279L5.66,69.279z M32.496,4.533L32.496,4.533c2.402-1.618,13.617-4.047,17.225-3.643
			l-9.214,12.14c-0.401,0.811-2.804,3.643-3.204,4.046L32.496,4.533L32.496,4.533z M5.66,30.837c0.8-2.428,4.404-8.498,6.408-10.928
			c0.803-0.808,2.002-3.234,3.605-4.045l2.403,20.231l-6.408-2.427c-0.802-0.405-2.005-1.215-2.806-1.619
			C7.662,31.644,6.459,31.24,5.66,30.837L5.66,30.837z M51.318,99.226L51.318,99.226c0.402-0.404,6.41-8.498,7.611-10.117
			l4.406-6.072c0.4,0.405,0.803,1.215,0.803,1.62l2,4.855c0.803,1.618,2.004,4.452,2.807,6.475c-2.405,0.81-5.608,1.619-8.411,2.43
			C56.128,99.226,54.523,98.821,51.318,99.226L51.318,99.226z M5.26,68.468L5.26,68.468c-0.402-1.213-0.802-2.427-1.203-4.047
			c-1.201-4.043-2.404-8.9-2.404-13.353l3.205,2.427c0.402,0.404,0.402,0.404,1.203,0.811l10.814,8.094
			c0.398,0.404,0.398,0.404,0.398,0.809l0.399,0.407C14.871,64.423,8.063,67.66,5.26,68.468L5.26,68.468z M16.875,85.464
			l19.625-2.83c0,1.214-0.803,2.427-1.203,3.236c-0.801,2.022-3.604,8.904-4.005,9.711C27.688,93.964,18.477,88.298,16.875,85.464
			L16.875,85.464z M83.363,36.904L83.363,36.904l12.416-5.261c0.4,0.81,2.004,6.476,2.404,8.096
			c0.799,3.237,1.201,6.068,1.201,9.307c-0.803,0-1.602-0.811-2.003-1.215l-6.008-4.854C89.771,41.762,83.766,37.716,83.363,36.904
			L83.363,36.904z M82.964,36.096v0.003l2.401-20.234c2.005,1.619,4.406,4.856,5.609,6.878c0.799,1.215,1.602,2.429,2.402,4.048
			c0.4,0.81,2.001,4.047,2.001,4.047L82.964,36.096L82.964,36.096z M64.539,17.482L64.539,17.482c0-0.406,4.406-12.141,5.205-12.545
			c0.802,0.403,2.805,1.214,4.007,2.024c1.202,0.809,2.401,1.213,3.604,2.022c1.201,0.81,2.803,2.022,3.604,2.832l3.204,2.832l0,0
			l0,0l-10.013,1.62C70.945,16.673,67.743,17.076,64.539,17.482L64.539,17.482z M32.094,95.985L32.094,95.985l5.209-12.949
			l8.01,10.118c0.401,0.81,0.801,1.214,1.201,2.022c0.801,1.213,2.805,3.238,3.207,4.049c-3.207,0-6.811-0.404-9.615-0.811
			C36.5,97.605,34.096,96.39,32.094,95.985L32.094,95.985z M1.652,49.046L1.652,49.046c0-5.666,2.002-12.95,3.605-17.402
			l12.416,5.261l-4.005,3.237c-0.401,0.404-1.2,0.81-2.001,1.62c-0.4,0.405-1.203,0.81-2.005,1.215L1.652,49.046L1.652,49.046z
			 M63.738,17.076L63.738,17.076L51.318,0.891c2.806,0,6.811,0.405,9.617,1.214c1.6,0.404,6.406,1.618,8.01,2.428L63.738,17.076
			L63.738,17.076z M69.747,95.581L69.747,95.581l-5.208-12.947l19.628,2.832c-0.401,0.81,0,0.404-0.802,0.81
			c-0.4,0.405-0.4,0.405-0.801,0.81l-3.205,2.834C77.355,91.535,71.748,94.774,69.747,95.581L69.747,95.581z M69.747,68.064
			c0.799-2.022,6.405-16.187,6.808-16.591l5.207,11.733C81.361,63.615,70.945,67.66,69.747,68.064L69.747,68.064z M76.555,49.046
			c-0.402-0.811-6.406-15.379-6.808-16.593c2.802,0.811,10.01,4.046,12.015,4.451c-0.4,1.215-0.802,2.025-1.201,3.24L76.555,49.046
			L76.555,49.046z M51.723,23.552l12.016-4.856l4.406,12.142C67.743,30.432,52.123,24.362,51.723,23.552L51.723,23.552z
			 M32.896,30.837L32.896,30.837l4.806-12.141c0.802,0,4.808,2.023,6.008,2.428c1.604,0.81,4.005,1.618,5.608,2.426
			c-0.801,0.813-6.809,3.24-8.412,3.645C38.904,28.003,34.497,30.026,32.896,30.837L32.896,30.837z M19.277,63.208l5.207-12.139
			l5.205,12.545c0.4,1.212,1.203,3.236,1.604,4.45L19.277,63.208L19.277,63.208z M51.723,76.563l16.422-6.88l-4.406,12.142
			L51.723,76.563L51.723,76.563z M37.702,81.825l-4.806-12.142l16.422,6.88L37.702,81.825L37.702,81.825z M19.277,36.904
			l12.016-4.451l-6.809,16.593l-4.004-9.307C20.079,38.931,19.678,38.119,19.277,36.904z"/>
	</g>
</g>
<g id="Layer_1">
	<g id="Layer_2">
		<g>
			<circle cx="70.725" cy="34.262" r="0.493"/>
			<ellipse transform="matrix(-0.2116 0.9773 -0.9773 -0.2116 146.7624 29.5265)" cx="61.473" cy="73.955" rx="1.329" ry="0.434"/>
		</g>
	</g>
</g>
</svg>
