<?xml version="1.0" encoding="utf-8"?>
<!-- Generator: Adobe Illustrator 16.0.0, SVG Export Plug-In . SVG Version: 6.00 Build 0)  -->
<!DOCTYPE svg PUBLIC "-//W3C//DTD SVG 1.1//EN" "http://www.w3.org/Graphics/SVG/1.1/DTD/svg11.dtd">
<svg version="1.1" xmlns="http://www.w3.org/2000/svg" xmlns:xlink="http://www.w3.org/1999/xlink" x="0px" y="0px" width="100px"
	 height="100px" viewBox="0 0 100 100" enable-background="new 0 0 100 100" xml:space="preserve">
<g id="Layer_2">
	<g id="Layer_11">
		<path fill="#0A3D61" d="M47.314-0.069c-7.609,0.403-13.616,2.833-19.225,5.26c-4.807,2.428-8.812,5.664-12.417,9.306
			c-0.401,0.405-1.202,0.81-1.604,1.62c-0.4,0.405-0.801,1.214-1.6,1.619l-3.607,5.26C-0.75,38.778-1.55,56.177,6.46,72.365
			c0.401,1.619,1.202,2.832,2.005,4.046c0.397,0.81,0.798,1.215,1.199,2.022c2.405,3.643,4.406,5.666,7.212,8.498
			c8.011,7.284,20.826,14.162,36.446,12.948c8.41-0.405,12.416-2.022,19.627-5.259c2.804-1.215,5.209-3.239,7.609-4.856
			c2.006-1.215,6.01-4.857,7.213-6.882c1.604-2.021,2.803-2.83,4.806-6.066c2.001-3.646,2.401-4.047,4.005-8.095
			c5.208-12.948,4.406-29.135-2.004-41.275c-1.199-2.833-2.803-5.666-4.405-7.69c-2.401-3.236-3.604-4.045-6.009-6.878
			C74.953,4.382,60.936-0.879,47.314-0.069L47.314-0.069L47.314-0.069z M50.117,24.211L50.117,24.211
			c0.804-0.405,3.606,1.214,4.809,1.618c1.202,0.81,2.803,1.213,4.406,2.023l6.809,2.833c3.207,1.214,2.404,0.809,3.207,2.831
			c1.6,3.643,3.201,7.689,4.805,11.332c0.4,1.213,1.601,3.644,2.002,4.856c0,0.81-4.807,12.142-5.607,13.76l-1.602,4.45
			c-0.399,0.809-3.605,1.618-4.807,2.023l-13.217,5.664c-0.805,0.405-7.611-2.832-9.215-3.236l-8.811-4.046
			c-1.202-0.405-6.009-13.354-6.809-15.781c-0.401-0.408-0.802-1.619-1.201-2.024c0-0.809,4.406-11.734,5.604-13.76
			c2.004-5.262,0.801-4.451,3.604-5.665c0.805-0.403,1.603-0.809,2.405-1.213L50.117,24.211L50.117,24.211z M64.139,18.14
			L64.139,18.14l20.826-2.833l-2.803,20.638c-1.202,0-12.814-4.855-12.814-4.855C68.945,30.686,64.539,18.948,64.139,18.14
			L64.139,18.14z M38.103,82.48c0.401-0.403,12.015-5.664,12.418-5.664c0.399,0,10.812,4.856,12.414,5.261
			c-0.399,0.808-1.604,2.427-2.4,3.235c0,0.405-0.4,0.811-0.803,1.216l-9.211,12.545l-6.411-8.498
			C42.108,87.741,40.105,84.908,38.103,82.48L38.103,82.48z M18.876,35.944l-2.803-20.638L36.5,18.14
			c0,0.81-4.406,12.546-4.807,12.949l-12.017,4.855c0,0,0,0-0.4,0C19.277,35.944,19.277,35.944,18.876,35.944L18.876,35.944z
			 M82.563,62.652v-0.404c-0.801-0.809-5.607-12.14-5.607-12.14c0-0.404,4.807-11.33,5.607-12.544c0.4,0,3.203,2.429,4.006,2.834
			l12.414,9.71L84.564,61.036C83.766,61.439,83.363,62.248,82.563,62.652L82.563,62.652z M38.103,17.735L38.103,17.735L50.521,1.144
			l3.201,4.045c1.203,1.214,2.004,2.834,3.205,4.049c0.801,1.212,5.607,7.687,6.008,8.497c-1.604,0.809-11.615,5.26-12.414,5.26
			l-12.019-5.26C38.103,17.735,38.103,17.735,38.103,17.735L38.103,17.735z M18.876,64.271c0.401-0.404,0.401-0.404,0.801-0.404
			l12.017,5.262c0.4,0,2.401,5.259,2.401,6.069c0.401,1.215,2.806,6.069,2.405,6.477l-20.427,2.831L18.876,64.271L18.876,64.271z
			 M64.539,81.674c-0.4-0.406,4.809-12.546,4.809-12.546l12.814-5.262l2.402,20.639L64.539,81.674L64.539,81.674z M2.054,50.108
			l16.422-12.95l5.608,12.95c0,0-5.208,11.736-5.608,12.544C13.268,59.011,6.861,53.345,2.054,50.108L2.054,50.108z M16.875,14.497
			c2.802-2.832,10.413-8.901,14.417-9.71c0.801,0.81,2.004,4.856,2.803,6.069c0.805,1.618,2.004,4.451,2.405,6.475
			C34.497,17.331,17.274,14.902,16.875,14.497L16.875,14.497z M85.768,84.1c-0.4-0.81-2.402-17.806-2.804-20.232
			c0.401,0.404,12.015,4.855,12.416,5.262C93.777,74.387,89.374,80.054,85.768,84.1L85.768,84.1z M83.363,63.057L83.363,63.057
			c0.402-0.403,1.201-0.809,2.002-1.617l14.02-10.521c0.4,3.236-2.002,15.376-3.605,17.399
			C95.379,68.316,84.564,63.866,83.363,63.057L83.363,63.057z M5.66,69.128c0.401-0.405,11.216-4.856,12.417-5.262L15.673,84.1
			C12.87,82.077,6.861,73.173,5.66,69.128L5.66,69.128z M32.496,4.382L32.496,4.382c2.402-1.618,13.618-4.047,17.224-3.643
			l-9.213,12.14c-0.401,0.81-2.804,3.643-3.204,4.046L32.496,4.382L32.496,4.382z M5.66,30.686c0.8-2.428,4.405-8.498,6.409-10.928
			c0.802-0.808,2.001-3.235,3.605-4.045l2.403,20.231l-6.408-2.427c-0.802-0.405-2.005-1.214-2.806-1.619
			C7.662,31.492,6.459,31.089,5.66,30.686L5.66,30.686z M51.318,99.074L51.318,99.074c0.402-0.404,6.41-8.498,7.611-10.117
			l4.406-6.072c0.4,0.405,0.803,1.215,0.803,1.62l2,4.855c0.803,1.618,2.004,4.452,2.807,6.475c-2.405,0.81-5.608,1.619-8.411,2.43
			C56.128,99.074,54.523,98.67,51.318,99.074L51.318,99.074z M5.259,68.316L5.259,68.316c-0.401-1.213-0.801-2.427-1.203-4.047
			c-1.201-4.043-2.403-8.9-2.403-13.353l3.205,2.427c0.401,0.404,0.401,0.404,1.202,0.811l10.815,8.094
			c0.399,0.404,0.399,0.404,0.399,0.809l0.399,0.407C14.871,64.271,8.063,67.509,5.259,68.316L5.259,68.316z M16.875,85.313
			l19.625-2.83c0,1.214-0.802,2.427-1.203,3.236c-0.801,2.022-3.604,8.904-4.005,9.711C27.688,93.813,18.476,88.146,16.875,85.313
			L16.875,85.313z M83.363,36.753L83.363,36.753l12.416-5.261c0.4,0.81,2.004,6.476,2.404,8.096
			c0.799,3.237,1.201,6.068,1.201,9.307c-0.803,0-1.602-0.811-2.003-1.215l-6.008-4.854C89.771,41.61,83.766,37.564,83.363,36.753
			L83.363,36.753z M82.964,35.944v0.003l2.401-20.234c2.005,1.619,4.406,4.856,5.609,6.878c0.799,1.215,1.602,2.428,2.402,4.048
			c0.4,0.81,2.001,4.047,2.001,4.047L82.964,35.944L82.964,35.944z M64.539,17.331L64.539,17.331c0-0.406,4.406-12.141,5.205-12.545
			C70.546,5.189,72.549,6,73.751,6.81c1.202,0.809,2.401,1.214,3.604,2.023c1.201,0.81,2.803,2.022,3.604,2.832l3.204,2.832l0,0l0,0
			l-10.013,1.62C70.945,16.522,67.743,16.925,64.539,17.331L64.539,17.331z M32.094,95.834L32.094,95.834l5.208-12.949l8.011,10.118
			c0.401,0.81,0.8,1.214,1.201,2.022c0.8,1.213,2.805,3.238,3.206,4.049c-3.206,0-6.81-0.404-9.614-0.811
			C36.5,97.454,34.096,96.238,32.094,95.834L32.094,95.834z M1.653,48.895L1.653,48.895c0-5.667,2.002-12.951,3.605-17.403
			l12.416,5.261l-4.005,3.237c-0.401,0.405-1.2,0.81-2.001,1.62c-0.401,0.406-1.203,0.81-2.005,1.215L1.653,48.895L1.653,48.895z
			 M63.738,16.925L63.738,16.925L51.318,0.739c2.806,0,6.811,0.405,9.617,1.214c1.6,0.404,6.406,1.618,8.01,2.428L63.738,16.925
			L63.738,16.925z M69.747,95.43L69.747,95.43l-5.208-12.947l19.628,2.832c-0.401,0.81,0,0.404-0.802,0.81
			c-0.4,0.405-0.4,0.405-0.801,0.81l-3.205,2.834C77.355,91.384,71.748,94.623,69.747,95.43L69.747,95.43z M69.747,67.913
			c0.799-2.022,6.405-16.187,6.808-16.591l5.207,11.733C81.361,63.464,70.945,67.509,69.747,67.913L69.747,67.913z M76.555,48.895
			c-0.402-0.811-6.406-15.379-6.808-16.593c2.802,0.811,10.01,4.046,12.015,4.451c-0.4,1.215-0.802,2.025-1.201,3.24L76.555,48.895
			L76.555,48.895z M51.723,23.4l12.016-4.856l4.406,12.141C67.743,30.28,52.123,24.211,51.723,23.4L51.723,23.4z M32.896,30.686
			L32.896,30.686l4.806-12.141c0.802,0,4.807,2.023,6.008,2.428c1.604,0.81,4.005,1.618,5.609,2.426
			c-0.802,0.812-6.81,3.24-8.412,3.644C38.905,27.852,34.497,29.875,32.896,30.686L32.896,30.686z M19.277,63.057l5.208-12.139
			l5.205,12.545c0.4,1.212,1.202,3.236,1.603,4.45L19.277,63.057L19.277,63.057z M51.723,76.412l16.422-6.88l-4.406,12.142
			L51.723,76.412L51.723,76.412z M37.702,81.674l-4.806-12.142l16.423,6.88L37.702,81.674L37.702,81.674z M19.277,36.753
			l12.016-4.451l-6.808,16.593l-4.005-9.307C20.079,38.779,19.678,37.968,19.277,36.753z"/>
	</g>
</g>
<g id="Layer_1">
	<circle cx="70.184" cy="70.161" r="0.498"/>
</g>
</svg>
