<?xml version="1.0" encoding="utf-8"?>
<!-- Generator: Adobe Illustrator 16.0.0, SVG Export Plug-In . SVG Version: 6.00 Build 0)  -->
<!DOCTYPE svg PUBLIC "-//W3C//DTD SVG 1.1//EN" "http://www.w3.org/Graphics/SVG/1.1/DTD/svg11.dtd">
<svg version="1.1" xmlns="http://www.w3.org/2000/svg" xmlns:xlink="http://www.w3.org/1999/xlink" x="0px" y="0px" width="100px"
	 height="100px" viewBox="0 0 100 100" enable-background="new 0 0 100 100" xml:space="preserve">
<g id="Layer_2">
	<g id="Layer_11">
		<path fill="#0A3D61" d="M47.316-0.089c-7.609,0.403-13.617,2.833-19.226,5.26c-4.808,2.428-8.812,5.664-12.417,9.306
			c-0.4,0.405-1.201,0.81-1.604,1.62c-0.4,0.405-0.801,1.214-1.6,1.619l-3.607,5.26C-0.748,38.759-1.549,56.157,6.462,72.346
			c0.401,1.619,1.202,2.832,2.005,4.046c0.396,0.81,0.799,1.215,1.199,2.022c2.404,3.643,4.406,5.666,7.212,8.498
			c8.011,7.284,20.826,14.162,36.446,12.948c8.41-0.405,12.416-2.022,19.627-5.259c2.804-1.215,5.209-3.239,7.609-4.856
			c2.006-1.215,6.01-4.857,7.213-6.882c1.604-2.021,2.803-2.83,4.806-6.066c2.001-3.646,2.401-4.047,4.005-8.095
			c5.208-12.948,4.406-29.135-2.004-41.275c-1.199-2.833-2.803-5.666-4.405-7.69c-2.401-3.236-3.604-4.045-6.009-6.878
			C74.955,4.362,60.938-0.898,47.316-0.089L47.316-0.089L47.316-0.089z M50.119,24.191L50.119,24.191
			c0.804-0.405,3.605,1.214,4.809,1.618c1.202,0.81,2.803,1.213,4.406,2.023l6.809,2.833c3.207,1.214,2.404,0.809,3.207,2.831
			c1.6,3.643,3.201,7.689,4.805,11.332c0.4,1.213,1.601,3.644,2.002,4.856c0,0.81-4.807,12.142-5.607,13.76l-1.602,4.45
			c-0.399,0.809-3.605,1.618-4.807,2.023l-13.217,5.664c-0.805,0.405-7.611-2.832-9.215-3.236L32.898,68.3
			c-1.203-0.405-6.01-13.354-6.81-15.781c-0.401-0.408-0.802-1.619-1.2-2.024c0-0.809,4.405-11.734,5.604-13.76
			c2.005-5.262,0.802-4.451,3.605-5.665c0.805-0.403,1.602-0.809,2.404-1.213L50.119,24.191L50.119,24.191z M64.141,18.12
			L64.141,18.12l20.826-2.833l-2.803,20.638c-1.202,0-12.814-4.855-12.814-4.855C68.947,30.667,64.541,18.929,64.141,18.12
			L64.141,18.12z M38.105,82.461c0.4-0.403,12.015-5.664,12.418-5.664c0.399,0,10.812,4.856,12.414,5.261
			c-0.399,0.808-1.604,2.427-2.4,3.235c0,0.405-0.4,0.811-0.803,1.216l-9.211,12.545l-6.41-8.498
			C42.109,87.722,40.107,84.889,38.105,82.461L38.105,82.461z M18.878,35.925l-2.804-20.638l20.428,2.833
			c0,0.81-4.406,12.546-4.807,12.949l-12.018,4.855c0,0,0,0-0.4,0C19.279,35.925,19.279,35.925,18.878,35.925L18.878,35.925z
			 M82.564,62.633v-0.404c-0.801-0.809-5.607-12.141-5.607-12.141c0-0.403,4.807-11.329,5.607-12.543c0.4,0,3.203,2.429,4.006,2.834
			l12.414,9.709L84.566,61.017C83.768,61.42,83.365,62.229,82.564,62.633L82.564,62.633z M38.105,17.716h-0.002l12.42-16.591
			l3.201,4.045c1.203,1.214,2.004,2.834,3.205,4.049c0.801,1.212,5.607,7.687,6.008,8.497c-1.604,0.809-11.615,5.26-12.414,5.26
			l-12.019-5.26C38.105,17.716,38.105,17.716,38.105,17.716L38.105,17.716z M18.878,64.252c0.401-0.404,0.401-0.404,0.802-0.404
			l12.016,5.262c0.4,0,2.402,5.259,2.402,6.069c0.4,1.215,2.805,6.069,2.404,6.477l-20.428,2.831L18.878,64.252L18.878,64.252z
			 M64.541,81.654c-0.4-0.406,4.809-12.546,4.809-12.546l12.814-5.262l2.402,20.639L64.541,81.654L64.541,81.654z M2.057,50.088
			l16.422-12.949l5.607,12.949c0,0-5.208,11.736-5.607,12.545C13.27,58.991,6.863,53.325,2.057,50.088L2.057,50.088z M16.877,14.478
			c2.803-2.832,10.413-8.901,14.417-9.71c0.802,0.81,2.004,4.856,2.804,6.069c0.805,1.618,2.004,4.451,2.404,6.475
			C34.499,17.312,17.275,14.883,16.877,14.478L16.877,14.478z M85.77,84.08c-0.4-0.81-2.402-17.806-2.804-20.232
			c0.401,0.404,12.015,4.855,12.416,5.262C93.779,74.367,89.376,80.034,85.77,84.08L85.77,84.08z M83.365,63.037L83.365,63.037
			c0.402-0.403,1.201-0.809,2.002-1.617l14.02-10.521c0.4,3.236-2.002,15.376-3.605,17.399
			C95.381,68.297,84.566,63.847,83.365,63.037L83.365,63.037z M5.662,69.108c0.4-0.405,11.216-4.856,12.417-5.262L15.675,84.08
			C12.872,82.058,6.863,73.153,5.662,69.108L5.662,69.108z M32.498,4.362L32.498,4.362C34.9,2.744,46.115,0.315,49.723,0.72
			l-9.214,12.14c-0.401,0.81-2.804,3.643-3.204,4.046L32.498,4.362L32.498,4.362z M5.662,30.667c0.8-2.428,4.404-8.498,6.408-10.928
			c0.803-0.808,2.002-3.235,3.605-4.045l2.403,20.231l-6.408-2.427c-0.802-0.405-2.005-1.214-2.806-1.619
			C7.664,31.473,6.461,31.069,5.662,30.667L5.662,30.667z M51.32,99.055L51.32,99.055c0.402-0.404,6.41-8.498,7.611-10.117
			l4.406-6.072c0.4,0.405,0.803,1.215,0.803,1.62l2,4.855c0.803,1.618,2.004,4.452,2.807,6.475c-2.405,0.81-5.608,1.619-8.411,2.43
			C56.13,99.055,54.525,98.65,51.32,99.055L51.32,99.055z M5.262,68.297L5.262,68.297C4.859,67.084,4.46,65.87,4.059,64.25
			c-1.201-4.043-2.404-8.9-2.404-13.353l3.205,2.427c0.402,0.404,0.402,0.404,1.203,0.811l10.814,8.094
			c0.398,0.404,0.398,0.404,0.398,0.809l0.399,0.407C14.873,64.252,8.064,67.489,5.262,68.297L5.262,68.297z M16.877,85.293
			l19.625-2.83c0,1.214-0.803,2.427-1.203,3.236c-0.801,2.022-3.604,8.904-4.005,9.711C27.689,93.793,18.479,88.127,16.877,85.293
			L16.877,85.293z M83.365,36.733L83.365,36.733l12.416-5.261c0.4,0.81,2.004,6.476,2.404,8.096
			c0.799,3.237,1.201,6.068,1.201,9.307c-0.803,0-1.602-0.811-2.003-1.215l-6.008-4.854C89.773,41.591,83.768,37.544,83.365,36.733
			L83.365,36.733z M82.966,35.925v0.003l2.401-20.234c2.005,1.619,4.406,4.856,5.609,6.878c0.799,1.215,1.602,2.428,2.402,4.048
			c0.4,0.81,2.001,4.047,2.001,4.047L82.966,35.925L82.966,35.925z M64.541,17.312L64.541,17.312c0-0.406,4.406-12.141,5.205-12.545
			c0.802,0.403,2.805,1.214,4.007,2.024c1.202,0.809,2.401,1.214,3.604,2.023c1.201,0.81,2.803,2.022,3.604,2.832l3.204,2.832l0,0
			l0,0l-10.013,1.62C70.947,16.502,67.745,16.905,64.541,17.312L64.541,17.312z M32.096,95.814L32.096,95.814l5.209-12.949
			l8.01,10.118c0.401,0.81,0.801,1.214,1.201,2.022c0.801,1.213,2.805,3.238,3.207,4.049c-3.207,0-6.811-0.404-9.615-0.811
			C36.502,97.435,34.098,96.219,32.096,95.814L32.096,95.814z M1.654,48.875L1.654,48.875c0-5.667,2.002-12.95,3.605-17.402
			l12.416,5.261l-4.005,3.237c-0.401,0.405-1.2,0.81-2.001,1.62c-0.4,0.406-1.203,0.81-2.005,1.215L1.654,48.875L1.654,48.875z
			 M63.74,16.905L63.74,16.905L51.32,0.72c2.806,0,6.811,0.405,9.617,1.214c1.6,0.404,6.406,1.618,8.01,2.428L63.74,16.905
			L63.74,16.905z M69.749,95.41L69.749,95.41l-5.208-12.947l19.628,2.832c-0.401,0.81,0,0.404-0.802,0.81
			c-0.4,0.405-0.4,0.405-0.801,0.81l-3.205,2.834C77.357,91.364,71.75,94.604,69.749,95.41L69.749,95.41z M69.749,67.894
			c0.799-2.022,6.405-16.187,6.808-16.591l5.207,11.733C81.363,63.444,70.947,67.489,69.749,67.894L69.749,67.894z M76.557,48.875
			c-0.402-0.811-6.406-15.378-6.808-16.593c2.802,0.811,10.01,4.046,12.015,4.451c-0.4,1.215-0.802,2.025-1.201,3.24L76.557,48.875
			L76.557,48.875z M51.725,23.38l12.016-4.856l4.406,12.141C67.745,30.261,52.125,24.191,51.725,23.38L51.725,23.38z M32.898,30.667
			L32.898,30.667l4.806-12.141c0.802,0,4.808,2.023,6.008,2.428c1.604,0.81,4.005,1.618,5.608,2.426
			c-0.801,0.812-6.809,3.24-8.412,3.644C38.906,27.833,34.499,29.855,32.898,30.667L32.898,30.667z M19.279,63.037l5.207-12.139
			l5.205,12.545c0.4,1.212,1.203,3.236,1.604,4.45L19.279,63.037L19.279,63.037z M51.725,76.393l16.422-6.88L63.74,81.654
			L51.725,76.393L51.725,76.393z M37.704,81.654l-4.806-12.142l16.422,6.88L37.704,81.654L37.704,81.654z M19.279,36.733
			l12.016-4.451l-6.809,16.593l-4.004-9.307C20.081,38.76,19.68,37.948,19.279,36.733z"/>
	</g>
</g>
<g id="Layer_1">
	<g id="Layer_4">
		<g>
			<circle cx="24.788" cy="36.03" r="0.493"/>
			<circle cx="28.321" cy="42.199" r="0.493"/>
		</g>
	</g>
</g>
</svg>
