<?xml version="1.0" encoding="utf-8"?>
<!-- Generator: Adobe Illustrator 16.0.0, SVG Export Plug-In . SVG Version: 6.00 Build 0)  -->
<!DOCTYPE svg PUBLIC "-//W3C//DTD SVG 1.1//EN" "http://www.w3.org/Graphics/SVG/1.1/DTD/svg11.dtd">
<svg version="1.1" id="Layer_2" xmlns="http://www.w3.org/2000/svg" xmlns:xlink="http://www.w3.org/1999/xlink" x="0px" y="0px"
	 width="100px" height="100px" viewBox="0 0 100 100" enable-background="new 0 0 100 100" xml:space="preserve">
<g id="Layer_11">
	<path fill="#0A3D61" d="M47.314-0.069c-7.609,0.403-13.616,2.833-19.225,5.26c-4.807,2.428-8.812,5.664-12.417,9.306
		c-0.401,0.405-1.202,0.81-1.604,1.62c-0.4,0.405-0.801,1.214-1.6,1.619l-3.607,5.26C-0.75,38.778-1.55,56.177,6.46,72.365
		c0.401,1.619,1.202,2.832,2.005,4.046c0.397,0.81,0.798,1.215,1.199,2.022c2.405,3.643,4.406,5.666,7.212,8.499
		c8.011,7.284,20.826,14.162,36.446,12.948c8.411-0.406,12.417-2.023,19.627-5.259c2.804-1.215,5.209-3.239,7.61-4.856
		c2.005-1.215,6.01-4.858,7.212-6.882c1.604-2.021,2.803-2.83,4.806-6.067c2.001-3.645,2.401-4.047,4.005-8.094
		c5.208-12.949,4.406-29.135-2.004-41.276c-1.199-2.833-2.803-5.666-4.405-7.69c-2.401-3.236-3.604-4.045-6.009-6.878
		C74.953,4.382,60.936-0.879,47.314-0.069L47.314-0.069L47.314-0.069z M50.117,24.211L50.117,24.211
		c0.804-0.405,3.605,1.214,4.809,1.618c1.202,0.81,2.803,1.213,4.406,2.023l6.808,2.833c3.207,1.214,2.405,0.809,3.207,2.831
		c1.6,3.643,3.202,7.689,4.806,11.332c0.4,1.213,1.6,3.643,2.001,4.856c0,0.81-4.806,12.142-5.607,13.76l-1.601,4.45
		c-0.4,0.809-3.606,1.618-4.807,2.023l-13.217,5.665c-0.805,0.405-7.611-2.832-9.215-3.237l-8.811-4.046
		c-1.202-0.405-6.009-13.354-6.809-15.781c-0.401-0.408-0.802-1.619-1.201-2.024c0-0.809,4.406-11.735,5.605-13.76
		c2.004-5.262,0.801-4.451,3.604-5.665c0.805-0.403,1.603-0.809,2.405-1.213L50.117,24.211L50.117,24.211z M64.139,18.14
		L64.139,18.14l20.826-2.833l-2.803,20.637c-1.202,0-12.815-4.855-12.815-4.855C68.945,30.686,64.539,18.948,64.139,18.14
		L64.139,18.14z M38.103,82.481c0.401-0.404,12.015-5.664,12.418-5.664c0.4,0,10.812,4.856,12.415,5.26
		c-0.4,0.808-1.604,2.427-2.401,3.235c0,0.406-0.401,0.811-0.802,1.216l-9.211,12.545l-6.411-8.498
		C42.108,87.741,40.105,84.908,38.103,82.481L38.103,82.481z M18.876,35.944l-2.803-20.637l20.427,2.833
		c0,0.809-4.406,12.546-4.807,12.949l-12.017,4.855c0,0,0,0-0.4,0C19.277,35.944,19.277,35.944,18.876,35.944L18.876,35.944z
		 M82.563,62.652v-0.404c-0.802-0.809-5.608-12.14-5.608-12.14c0-0.404,4.807-11.33,5.608-12.544c0.4,0,3.203,2.429,4.005,2.834
		l12.415,9.71L84.564,61.036C83.766,61.439,83.364,62.248,82.563,62.652L82.563,62.652z M38.103,17.735h-0.001L50.521,1.144
		l3.202,4.045c1.202,1.214,2.004,2.834,3.204,4.049c0.801,1.212,5.608,7.687,6.009,8.497c-1.604,0.809-11.616,5.26-12.415,5.26
		l-12.018-5.26C38.103,17.735,38.103,17.735,38.103,17.735L38.103,17.735z M18.876,64.271c0.401-0.404,0.401-0.404,0.801-0.404
		l12.017,5.262c0.4,0,2.401,5.259,2.401,6.069c0.401,1.215,2.806,6.07,2.405,6.477l-20.427,2.831L18.876,64.271L18.876,64.271z
		 M64.539,81.674c-0.4-0.406,4.808-12.546,4.808-12.546l12.815-5.262l2.402,20.639L64.539,81.674L64.539,81.674z M2.054,50.108
		l16.422-12.95l5.608,12.95c0,0-5.208,11.736-5.608,12.544C13.268,59.011,6.861,53.345,2.054,50.108L2.054,50.108z M16.875,14.497
		c2.802-2.832,10.413-8.901,14.417-9.71c0.801,0.81,2.004,4.856,2.803,6.069c0.805,1.618,2.004,4.451,2.405,6.475
		C34.497,17.331,17.274,14.902,16.875,14.497L16.875,14.497z M85.767,84.1c-0.4-0.81-2.401-17.806-2.803-20.233
		c0.401,0.404,12.015,4.856,12.416,5.262C93.778,74.387,89.374,80.054,85.767,84.1L85.767,84.1z M83.364,63.057L83.364,63.057
		c0.401-0.404,1.2-0.809,2.002-1.617l14.019-10.521c0.4,3.236-2.002,15.376-3.605,17.399C95.379,68.317,84.564,63.866,83.364,63.057
		L83.364,63.057z M5.66,69.128c0.401-0.405,11.216-4.857,12.417-5.262L15.673,84.1C12.87,82.077,6.861,73.173,5.66,69.128
		L5.66,69.128z M32.496,4.382L32.496,4.382c2.402-1.618,13.618-4.047,17.224-3.643l-9.213,12.14
		c-0.401,0.81-2.804,3.643-3.204,4.046L32.496,4.382L32.496,4.382z M5.66,30.686c0.8-2.428,4.405-8.498,6.409-10.928
		c0.802-0.808,2.001-3.235,3.605-4.045l2.403,20.231l-6.408-2.427c-0.802-0.405-2.005-1.214-2.806-1.619
		C7.662,31.492,6.459,31.089,5.66,30.686L5.66,30.686z M51.319,99.074L51.319,99.074c0.402-0.404,6.409-8.498,7.611-10.117
		l4.406-6.072c0.401,0.405,0.802,1.215,0.802,1.62l2.001,4.855c0.802,1.618,2.004,4.452,2.806,6.475
		c-2.405,0.81-5.608,1.619-8.411,2.43C56.128,99.074,54.524,98.67,51.319,99.074L51.319,99.074z M5.259,68.317L5.259,68.317
		c-0.401-1.213-0.801-2.427-1.203-4.047c-1.201-4.044-2.403-8.901-2.403-13.353l3.205,2.427c0.401,0.404,0.401,0.404,1.202,0.81
		l10.815,8.094c0.399,0.404,0.399,0.404,0.399,0.809l0.399,0.407C14.871,64.271,8.063,67.509,5.259,68.317L5.259,68.317z
		 M16.875,85.313l19.625-2.831c0,1.214-0.802,2.427-1.203,3.237c-0.801,2.022-3.604,8.904-4.005,9.711
		C27.688,93.813,18.476,88.146,16.875,85.313L16.875,85.313z M83.364,36.753L83.364,36.753l12.416-5.261
		c0.4,0.81,2.004,6.476,2.404,8.096c0.799,3.237,1.2,6.068,1.2,9.307c-0.802,0-1.601-0.811-2.002-1.215l-6.008-4.854
		C89.771,41.61,83.766,37.564,83.364,36.753L83.364,36.753z M82.964,35.944v0.003l2.402-20.234c2.004,1.619,4.405,4.856,5.608,6.878
		c0.8,1.215,1.602,2.428,2.403,4.048c0.4,0.809,2.001,4.047,2.001,4.047L82.964,35.944L82.964,35.944z M64.539,17.331L64.539,17.331
		c0-0.406,4.406-12.141,5.205-12.545C70.546,5.189,72.549,6,73.751,6.81c1.202,0.809,2.401,1.214,3.604,2.023
		c1.202,0.81,2.803,2.022,3.604,2.832l3.204,2.832l0,0l0,0l-10.012,1.62C70.946,16.522,67.743,16.925,64.539,17.331L64.539,17.331z
		 M32.094,95.834L32.094,95.834l5.208-12.949l8.011,10.118c0.401,0.81,0.8,1.214,1.201,2.022c0.8,1.213,2.805,3.239,3.206,4.049
		c-3.206,0-6.81-0.404-9.614-0.81C36.5,97.454,34.096,96.238,32.094,95.834L32.094,95.834z M1.653,48.895L1.653,48.895
		c0-5.667,2.002-12.951,3.605-17.403l12.416,5.261l-4.005,3.237c-0.401,0.405-1.2,0.81-2.001,1.62
		c-0.401,0.406-1.203,0.81-2.005,1.215L1.653,48.895L1.653,48.895z M63.738,16.925L63.738,16.925L51.319,0.739
		c2.805,0,6.81,0.405,9.616,1.214c1.6,0.404,6.407,1.618,8.01,2.428L63.738,16.925L63.738,16.925z M69.747,95.43L69.747,95.43
		l-5.208-12.947l19.628,2.832c-0.401,0.809,0,0.404-0.802,0.809c-0.4,0.405-0.4,0.405-0.801,0.81l-3.204,2.833
		C77.355,91.384,71.748,94.623,69.747,95.43L69.747,95.43z M69.747,67.913c0.799-2.022,6.406-16.187,6.807-16.591l5.208,11.734
		C81.361,63.464,70.946,67.509,69.747,67.913L69.747,67.913z M76.554,48.895c-0.401-0.811-6.406-15.379-6.807-16.593
		c2.802,0.81,10.01,4.046,12.015,4.451c-0.4,1.215-0.802,2.025-1.202,3.24L76.554,48.895L76.554,48.895z M51.722,23.4l12.017-4.856
		l4.405,12.141C67.743,30.28,52.123,24.211,51.722,23.4L51.722,23.4z M32.896,30.686L32.896,30.686l4.806-12.141
		c0.802,0,4.807,2.023,6.008,2.428c1.604,0.809,4.005,1.618,5.609,2.426c-0.802,0.812-6.81,3.24-8.412,3.644
		C38.905,27.852,34.497,29.875,32.896,30.686L32.896,30.686z M19.277,63.057l5.208-12.139l5.205,12.545
		c0.4,1.212,1.202,3.236,1.603,4.45L19.277,63.057L19.277,63.057z M51.722,76.412l16.422-6.88l-4.405,12.142L51.722,76.412
		L51.722,76.412z M37.702,81.674l-4.806-12.142l16.423,6.88L37.702,81.674L37.702,81.674z M19.277,36.753l12.016-4.451
		l-6.808,16.593l-4.005-9.307C20.079,38.779,19.678,37.968,19.277,36.753z"/>
</g>
</svg>
