<svg version="1.1" xmlns="http://www.w3.org/2000/svg" xmlns:xlink="http://www.w3.org/1999/xlink" x="0px" y="0px" width="300" height="300" viewBox="0 0 300 300" enable-background="new 0 0 300 300" xml:space="preserve" id="el_eZ7wrVBdf"><style>@-webkit-keyframes kf_el_sK98ecG5sl_an_tGXWrGTbp{0%{opacity: 1;}100%{opacity: 1;}}@keyframes kf_el_sK98ecG5sl_an_tGXWrGTbp{0%{opacity: 1;}100%{opacity: 1;}}@-webkit-keyframes kf_el_DE405Espbm_an_LrmHC52m1{42.86%{opacity: 0;}57.14%{opacity: 1;}100%{opacity: 0;}0%{opacity: 0;}}@keyframes kf_el_DE405Espbm_an_LrmHC52m1{42.86%{opacity: 0;}57.14%{opacity: 1;}100%{opacity: 0;}0%{opacity: 0;}}@-webkit-keyframes kf_el_fMtExgnX_u_an_mZY_VRDT9{0%{opacity: 0;}7.14%{opacity: 1;}42.86%{opacity: 0;}57.14%{opacity: 0;}100%{opacity: 0;}}@keyframes kf_el_fMtExgnX_u_an_mZY_VRDT9{0%{opacity: 0;}7.14%{opacity: 1;}42.86%{opacity: 0;}57.14%{opacity: 0;}100%{opacity: 0;}}#el_eZ7wrVBdf *{-webkit-animation-duration: 7s;animation-duration: 7s;-webkit-animation-iteration-count: infinite;animation-iteration-count: infinite;-webkit-animation-timing-function: cubic-bezier(0, 0, 1, 1);animation-timing-function: cubic-bezier(0, 0, 1, 1);}#el_7HHePeh8iM{fill: #0A3D61;}#el_5rwIWUONen{-webkit-transform: matrix(1, 0, 0, 1, 111.5908, 289.8203);transform: matrix(1, 0, 0, 1, 111.5908, 289.8203);}#el_NoL6rsmPu2{fill: #1A1A18;}#el_14uuzcgjuq{fill: #1A1A18;}#el_6AfbQPHxcX{-webkit-transform: matrix(1, 0, 0, 1, 109.1377, 290.124);transform: matrix(1, 0, 0, 1, 109.1377, 290.124);}#el_TuFSeCq4cN{fill: #1A1A18;}#el_9X5Uh6Bpsb{fill: #1A1A18;}#el_fMtExgnX_u{-webkit-animation-fill-mode: backwards;animation-fill-mode: backwards;opacity: 0;-webkit-animation-name: kf_el_fMtExgnX_u_an_mZY_VRDT9;animation-name: kf_el_fMtExgnX_u_an_mZY_VRDT9;-webkit-animation-timing-function: cubic-bezier(0.42, 0, 0.58, 1);animation-timing-function: cubic-bezier(0.42, 0, 0.58, 1);}#el_DE405Espbm{-webkit-animation-fill-mode: backwards;animation-fill-mode: backwards;opacity: 0;-webkit-animation-name: kf_el_DE405Espbm_an_LrmHC52m1;animation-name: kf_el_DE405Espbm_an_LrmHC52m1;-webkit-animation-timing-function: cubic-bezier(0.42, 0, 0.58, 1);animation-timing-function: cubic-bezier(0.42, 0, 0.58, 1);}#el_sK98ecG5sl_an_8xarUcEWj{-webkit-transform: translate(22.86334800720215px, 3.9223403930664062px) scale(1, 1) translate(-22.86334800720215px, -3.9223403930664062px);transform: translate(22.86334800720215px, 3.9223403930664062px) scale(1, 1) translate(-22.86334800720215px, -3.9223403930664062px);}#el_sK98ecG5sl{-webkit-animation-fill-mode: backwards;animation-fill-mode: backwards;opacity: 1;-webkit-animation-name: kf_el_sK98ecG5sl_an_tGXWrGTbp;animation-name: kf_el_sK98ecG5sl_an_tGXWrGTbp;-webkit-animation-timing-function: cubic-bezier(0, 0, 1, 1);animation-timing-function: cubic-bezier(0, 0, 1, 1);}</style>
<g id="el_sK98ecG5sl">
	<path fill-rule="evenodd" clip-rule="evenodd" d="M139.821,4.127c-19.216,1.008-34.384,7.08-48.546,13.148&#10;&#9;&#9;C79.137,23.345,69.022,31.433,59.92,40.535c-1.012,1.012-3.036,2.024-4.048,4.049c-1.012,1.012-2.024,3.033-4.041,4.045&#10;&#9;&#9;l-9.109,13.149c-24.273,39.448-26.294,82.934-6.066,123.397c1.013,4.049,3.037,7.078,5.061,10.114&#10;&#9;&#9;c1.005,2.024,2.017,3.037,3.029,5.054c6.073,9.105,11.126,14.163,18.212,21.244c20.229,18.208,52.591,35.399,92.036,32.363&#10;&#9;&#9;c21.24-1.013,31.354-5.054,49.562-13.144c7.078-3.036,13.151-8.097,19.217-12.139c5.061-3.036,15.175-12.142,18.211-17.199&#10;&#9;&#9;c4.049-5.053,7.078-7.077,12.135-15.167c5.054-9.109,6.065-10.114,10.114-20.232c13.151-32.363,11.127-72.819-5.061-103.166&#10;&#9;&#9;c-3.029-7.081-7.078-14.159-11.123-19.22c-6.065-8.088-9.102-10.112-15.175-17.194C209.616,15.251,174.217,2.103,139.821,4.127&#10;&#9;&#9;L139.821,4.127L139.821,4.127z M146.899,64.813L146.899,64.813c2.031-1.012,9.105,3.033,12.142,4.045&#10;&#9;&#9;c3.037,2.024,7.078,3.033,11.127,5.057l17.191,7.082c8.098,3.037,6.073,2.024,8.098,7.078c4.041,9.102,8.086,19.216,12.135,28.322&#10;&#9;&#9;c1.012,3.033,4.041,9.103,5.053,12.139c0,2.021-12.135,30.343-14.158,34.388l-4.042,11.126c-1.012,2.021-9.109,4.045-12.138,5.058&#10;&#9;&#9;l-33.376,14.158c-2.031,1.013-19.22-7.077-23.269-8.09l-22.249-10.113c-3.036-1.013-15.175-33.38-17.195-39.445&#10;&#9;&#9;c-1.012-1.02-2.024-4.048-3.032-5.061c0-2.021,11.126-29.33,14.155-34.391c5.061-13.15,2.024-11.126,9.102-14.159&#10;&#9;&#9;c2.032-1.008,4.049-2.021,6.073-3.033L146.899,64.813L146.899,64.813z M182.307,49.641L182.307,49.641l52.591-7.082L227.82,94.14&#10;&#9;&#9;c-3.037,0-32.363-12.135-32.363-12.135C194.444,80.997,183.318,51.661,182.307,49.641L182.307,49.641z M116.561,210.461&#10;&#9;&#9;c1.012-1.013,30.339-14.159,31.358-14.159c1.012,0,27.302,12.139,31.351,13.146c-1.012,2.021-4.049,6.069-6.065,8.09&#10;&#9;&#9;c0,1.013-1.012,2.024-2.024,3.037l-23.261,31.358l-16.188-21.241C126.675,223.607,121.617,216.526,116.561,210.461L116.561,210.461&#10;&#9;&#9;z M68.01,94.14l-7.077-51.581l51.583,7.082c0,2.021-11.127,31.356-12.139,32.365L70.034,94.14c0,0,0,0-1.012,0&#10;&#9;&#9;C69.022,94.14,69.022,94.14,68.01,94.14L68.01,94.14z M228.832,160.898v-1.013c-2.024-2.021-14.163-30.342-14.163-30.342&#10;&#9;&#9;c0-1.009,12.139-28.318,14.163-31.355c1.013,0,8.09,6.073,10.114,7.085l31.351,24.27l-36.411,27.313&#10;&#9;&#9;C231.868,157.865,230.856,159.886,228.832,160.898L228.832,160.898z M116.561,48.628h-0.004L147.919,7.16l8.086,10.112&#10;&#9;&#9;c3.036,3.033,5.061,7.082,8.09,10.118c2.024,3.033,14.163,19.214,15.175,21.239c-4.049,2.024-29.334,13.149-31.351,13.149&#10;&#9;&#9;l-30.347-13.149C116.561,48.628,116.561,48.628,116.561,48.628L116.561,48.628z M68.01,164.943&#10;&#9;&#9;c1.013-1.013,1.013-1.013,2.024-1.013l30.343,13.151c1.012,0,6.065,13.146,6.065,15.171c1.013,3.036,7.085,15.175,6.073,16.188&#10;&#9;&#9;l-51.583,7.077L68.01,164.943L68.01,164.943z M183.318,208.44c-1.012-1.013,12.139-31.358,12.139-31.358l32.363-13.151&#10;&#9;&#9;l6.065,51.587L183.318,208.44L183.318,208.44z M25.529,129.544l41.469-32.367l14.163,32.367c0,0-13.151,29.334-14.163,31.354&#10;&#9;&#9;C53.847,151.796,37.668,137.634,25.529,129.544L25.529,129.544z M62.957,40.535c7.077-7.078,26.294-22.247,36.408-24.271&#10;&#9;&#9;c2.023,2.024,5.061,12.138,7.077,15.169c2.032,4.045,5.061,11.126,6.073,16.184C107.455,47.616,63.965,41.547,62.957,40.535&#10;&#9;&#9;L62.957,40.535z M236.922,214.506c-1.012-2.024-6.065-44.506-7.077-50.575c1.012,1.013,30.338,12.139,31.351,13.151&#10;&#9;&#9;C257.154,190.229,246.031,204.392,236.922,214.506L236.922,214.506z M230.856,161.91L230.856,161.91&#10;&#9;&#9;c1.012-1.012,3.029-2.024,5.054-4.045l35.399-26.297c1.012,8.09-5.054,38.432-9.103,43.489&#10;&#9;&#9;C261.195,175.058,233.886,163.931,230.856,161.91L230.856,161.91z M34.635,177.082c1.012-1.013,28.322-12.139,31.354-13.151&#10;&#9;&#9;l-6.069,50.575C52.843,209.448,37.668,187.192,34.635,177.082L34.635,177.082z M102.401,15.251L102.401,15.251&#10;&#9;&#9;c6.065-4.045,34.388-10.116,43.493-9.104L122.63,36.49c-1.013,2.024-7.082,9.106-8.09,10.114L102.401,15.251L102.401,15.251z&#10;&#9;&#9; M34.635,80.997c2.021-6.069,11.123-21.24,16.184-27.313c2.024-2.022,5.053-8.088,9.102-10.112l6.069,50.569l-16.183-6.065&#10;&#9;&#9;c-2.024-1.012-5.061-3.037-7.085-4.048C39.692,83.014,36.655,82.005,34.635,80.997L34.635,80.997z M149.936,251.934&#10;&#9;&#9;L149.936,251.934c1.016-1.013,16.184-21.241,19.22-25.289l11.127-15.176c1.012,1.013,2.024,3.037,2.024,4.049l5.053,12.135&#10;&#9;&#9;c2.024,4.045,5.061,11.13,7.085,16.184c-6.072,2.024-14.162,4.049-21.24,6.073C162.078,251.934,158.029,250.921,149.936,251.934&#10;&#9;&#9;L149.936,251.934z M33.623,175.058L33.623,175.058c-1.012-3.033-2.024-6.065-3.037-10.114c-3.033-10.11-6.069-22.249-6.069-33.375&#10;&#9;&#9;l8.094,6.065c1.012,1.012,1.012,1.012,3.036,2.024l27.31,20.228c1.008,1.013,1.008,1.013,1.008,2.024l1.009,1.013&#10;&#9;&#9;C57.896,164.943,40.704,173.037,33.623,175.058L33.623,175.058z M62.957,217.538l49.559-7.077c0,3.032-2.024,6.065-3.037,8.09&#10;&#9;&#9;c-2.023,5.057-9.102,22.256-10.113,24.273C90.263,238.782,66.998,224.62,62.957,217.538L62.957,217.538z M230.856,96.165&#10;&#9;&#9;L230.856,96.165l31.351-13.15c1.013,2.024,5.062,16.187,6.073,20.236c2.017,8.09,3.029,15.167,3.029,23.261&#10;&#9;&#9;c-2.024,0-4.041-2.024-5.054-3.036l-15.171-12.135C247.036,108.303,231.868,98.189,230.856,96.165L230.856,96.165z M229.845,94.14&#10;&#9;&#9;v0.008l6.065-50.577c5.061,4.045,11.126,12.137,14.162,17.194c2.021,3.037,4.045,6.069,6.069,10.118&#10;&#9;&#9;c1.013,2.021,5.054,10.114,5.054,10.114L229.845,94.14L229.845,94.14z M183.318,47.616L183.318,47.616&#10;&#9;&#9;c0-1.012,11.126-30.344,13.144-31.356c2.024,1.012,7.081,3.037,10.117,5.061c3.037,2.021,6.065,3.033,9.103,5.058&#10;&#9;&#9;c3.036,2.024,7.077,5.055,9.102,7.079l8.09,7.078l0,0l0,0l-25.281,4.049C199.498,45.596,191.408,46.604,183.318,47.616&#10;&#9;&#9;L183.318,47.616z M101.389,243.836L101.389,243.836l13.151-32.367l20.229,25.289c1.012,2.024,2.021,3.037,3.032,5.054&#10;&#9;&#9;c2.021,3.036,7.082,8.098,8.094,10.122c-8.094,0-17.195-1.013-24.277-2.024C112.516,247.885,106.442,244.848,101.389,243.836&#10;&#9;&#9;L101.389,243.836z M24.517,126.511L24.517,126.511c0-14.163,5.057-32.371,9.106-43.497l31.351,13.15l-10.114,8.09&#10;&#9;&#9;c-1.012,1.012-3.029,2.024-5.053,4.049c-1.012,1.012-3.037,2.024-5.061,3.037L24.517,126.511L24.517,126.511z M181.294,46.604&#10;&#9;&#9;L181.294,46.604L149.936,6.147c7.082,0,17.195,1.012,24.281,3.035c4.041,1.01,16.18,4.045,20.228,6.069L181.294,46.604&#10;&#9;&#9;L181.294,46.604z M196.469,242.824L196.469,242.824l-13.15-32.363l49.563,7.077c-1.013,2.024,0,1.013-2.024,2.024&#10;&#9;&#9;c-1.012,1.013-1.012,1.013-2.024,2.024l-8.09,7.078C215.682,232.71,201.522,240.807,196.469,242.824L196.469,242.824z&#10;&#9;&#9; M196.469,174.049c2.018-5.057,16.176-40.46,17.188-41.469l13.15,29.33C225.796,162.923,199.498,173.037,196.469,174.049&#10;&#9;&#9;L196.469,174.049z M213.657,126.511c-1.013-2.024-16.176-38.436-17.188-41.473c7.074,2.024,25.278,10.114,30.339,11.126&#10;&#9;&#9;c-1.012,3.037-2.024,5.061-3.036,8.097L213.657,126.511L213.657,126.511z M150.951,62.79l30.343-12.137l11.126,30.344&#10;&#9;&#9;C191.408,79.985,151.964,64.813,150.951,62.79L150.951,62.79z M103.413,80.997L103.413,80.997l12.135-30.344&#10;&#9;&#9;c2.024,0,12.139,5.055,15.172,6.067c4.049,2.024,10.114,4.045,14.163,6.065c-2.024,2.028-17.196,8.097-21.241,9.106&#10;&#9;&#9;C118.585,73.916,107.455,78.973,103.413,80.997L103.413,80.997z M69.022,161.91l13.15-30.342l13.144,31.354&#10;&#9;&#9;c1.012,3.032,3.036,8.09,4.049,11.126L69.022,161.91L69.022,161.91z M150.951,195.289l41.469-17.195l-11.126,30.347&#10;&#9;&#9;L150.951,195.289L150.951,195.289z M115.548,208.44l-12.135-30.347l41.47,17.195L115.548,208.44L115.548,208.44z M69.022,96.165&#10;&#9;&#9;l30.343-11.126l-17.192,41.473L72.059,103.25C71.047,101.226,70.034,99.201,69.022,96.165z" id="el_7HHePeh8iM"/>
</g>
<g id="el_fMtExgnX_u">
	<text id="el_5rwIWUONen"><tspan x="0" y="0" font-family="'Convection-Bold'" font-size="25" id="el_NoL6rsmPu2">V</tspan><tspan x="15.247" y="0" font-family="'Convection-Bold'" font-size="25" id="el_14uuzcgjuq">VSI 1</tspan></text>
	<g id="el_DX61Gve5Xh">
		<circle fill-rule="evenodd" clip-rule="evenodd" cx="188.75" cy="157.5" r="1.245" id="el_EY_zN3gQK2"/>
	</g>
</g>
<g id="el_DE405Espbm">
	<text id="el_6AfbQPHxcX"><tspan x="0" y="0" font-family="'Convection-Bold'" font-size="25" id="el_TuFSeCq4cN">V</tspan><tspan x="15.247" y="0" font-family="'Convection-Bold'" font-size="25" id="el_9X5Uh6Bpsb">VSI 2 </tspan></text>
	<circle fill-rule="evenodd" clip-rule="evenodd" cx="223.785" cy="55" r="1.785" id="el_ZZL6VA-UdT"/>
</g>
</svg>