<?xml version="1.0" encoding="utf-8"?>
<!-- Generator: Adobe Illustrator 16.0.0, SVG Export Plug-In . SVG Version: 6.00 Build 0)  -->
<!DOCTYPE svg PUBLIC "-//W3C//DTD SVG 1.1//EN" "http://www.w3.org/Graphics/SVG/1.1/DTD/svg11.dtd">
<svg version="1.1" xmlns="http://www.w3.org/2000/svg" xmlns:xlink="http://www.w3.org/1999/xlink" x="0px" y="0px" width="300px"
	 height="300px" viewBox="0 0 300 300" enable-background="new 0 0 300 300" xml:space="preserve">
<g id="Layer_11">
	<path fill-rule="evenodd" clip-rule="evenodd" fill="#0A3D61" d="M145.497,13.616c-19.216,1.008-34.384,7.08-48.546,13.148
		c-12.139,6.069-22.253,14.158-31.355,23.259c-1.012,1.012-3.036,2.023-4.049,4.049c-1.012,1.012-2.023,3.033-4.041,4.045
		l-9.109,13.148c-24.273,39.449-26.293,82.934-6.065,123.398c1.013,4.049,3.036,7.078,5.062,10.113
		c1.004,2.025,2.017,3.037,3.028,5.055c6.073,9.105,11.126,14.162,18.212,21.244c20.229,18.207,52.591,35.398,92.036,32.363
		c21.24-1.014,31.354-5.055,49.562-13.145c7.078-3.035,13.151-8.096,19.217-12.139c5.061-3.035,15.175-12.141,18.211-17.199
		c4.049-5.053,7.078-7.076,12.135-15.166c5.054-9.109,6.065-10.115,10.114-20.232c13.151-32.363,11.127-72.82-5.061-103.166
		c-3.029-7.082-7.078-14.16-11.123-19.221c-6.065-8.088-9.102-10.111-15.175-17.193C215.292,24.741,179.893,11.591,145.497,13.616
		L145.497,13.616L145.497,13.616z M152.575,74.303L152.575,74.303c2.031-1.012,9.105,3.033,12.142,4.045
		c3.037,2.023,7.078,3.033,11.127,5.057l17.191,7.082c8.098,3.035,6.073,2.023,8.098,7.076c4.041,9.104,8.086,19.217,12.135,28.322
		c1.012,3.033,4.041,9.104,5.053,12.139c0,2.021-12.135,30.344-14.158,34.389l-4.042,11.125c-1.012,2.021-9.109,4.045-12.138,5.059
		l-33.376,14.158c-2.031,1.012-19.22-7.078-23.269-8.09l-22.249-10.113c-3.036-1.014-15.175-33.381-17.195-39.445
		c-1.012-1.02-2.024-4.049-3.032-5.061c0-2.021,11.126-29.33,14.155-34.393c5.061-13.15,2.024-11.125,9.102-14.158
		c2.032-1.008,4.049-2.021,6.073-3.033L152.575,74.303L152.575,74.303z M187.982,59.129L187.982,59.129l52.591-7.082l-7.077,51.582
		c-3.037,0-32.363-12.135-32.363-12.135C200.12,90.486,188.994,61.15,187.982,59.129L187.982,59.129z M122.236,219.949
		c1.012-1.012,30.339-14.158,31.358-14.158c1.012,0,27.302,12.139,31.351,13.146c-1.012,2.02-4.049,6.068-6.065,8.09
		c0,1.012-1.012,2.023-2.024,3.037l-23.261,31.357l-16.188-21.24C132.351,233.096,127.293,226.016,122.236,219.949L122.236,219.949z
		 M73.686,103.629l-7.077-51.582l51.583,7.082c0,2.021-11.127,31.357-12.139,32.365L75.71,103.629c0,0,0,0-1.012,0
		C74.698,103.629,74.698,103.629,73.686,103.629L73.686,103.629z M234.508,170.387v-1.012c-2.024-2.021-14.163-30.342-14.163-30.342
		c0-1.01,12.139-28.318,14.163-31.355c1.013,0,8.09,6.072,10.114,7.084l31.351,24.271l-36.411,27.313
		C237.544,167.354,236.532,169.375,234.508,170.387L234.508,170.387z M122.236,58.117h-0.004l31.362-41.469l8.086,10.112
		c3.036,3.033,5.061,7.082,8.09,10.119c2.024,3.031,14.163,19.213,15.175,21.238c-4.049,2.023-29.334,13.148-31.351,13.148
		l-30.347-13.148C122.236,58.117,122.236,58.117,122.236,58.117L122.236,58.117z M73.686,174.432
		c1.013-1.012,1.013-1.012,2.024-1.012l30.343,13.15c1.012,0,6.065,13.146,6.065,15.172c1.013,3.035,7.085,15.174,6.073,16.188
		l-51.583,7.076L73.686,174.432L73.686,174.432z M188.994,217.93c-1.012-1.014,12.139-31.359,12.139-31.359l32.363-13.15
		l6.065,51.586L188.994,217.93L188.994,217.93z M31.205,139.033l41.469-32.367l14.163,32.367c0,0-13.151,29.334-14.163,31.354
		C59.523,161.285,43.344,147.123,31.205,139.033L31.205,139.033z M68.633,50.023c7.077-7.078,26.294-22.247,36.408-24.271
		c2.023,2.024,5.061,12.138,7.077,15.169c2.032,4.045,5.061,11.125,6.073,16.184C113.131,57.105,69.641,51.035,68.633,50.023
		L68.633,50.023z M242.598,223.994c-1.012-2.023-6.065-44.506-7.077-50.574c1.012,1.012,30.338,12.139,31.351,13.15
		C262.83,199.717,251.707,213.881,242.598,223.994L242.598,223.994z M236.532,171.398L236.532,171.398
		c1.012-1.012,3.029-2.023,5.054-4.045l35.399-26.297c1.012,8.09-5.054,38.432-9.103,43.49
		C266.871,184.547,239.562,173.42,236.532,171.398L236.532,171.398z M40.311,186.57c1.012-1.012,28.322-12.139,31.354-13.15
		l-6.069,50.574C58.519,218.938,43.344,196.682,40.311,186.57L40.311,186.57z M108.077,24.741L108.077,24.741
		c6.065-4.045,34.388-10.117,43.493-9.104l-23.265,30.342c-1.013,2.023-7.082,9.105-8.09,10.113L108.077,24.741L108.077,24.741z
		 M40.311,90.486c2.021-6.07,11.123-21.24,16.184-27.314c2.024-2.021,5.053-8.088,9.102-10.111l6.069,50.568l-16.183-6.066
		c-2.025-1.012-5.062-3.035-7.086-4.047C45.367,92.502,42.331,91.494,40.311,90.486L40.311,90.486z M155.611,261.422
		L155.611,261.422c1.016-1.012,16.184-21.24,19.22-25.289l11.127-15.176c1.012,1.014,2.024,3.037,2.024,4.049l5.053,12.135
		c2.024,4.045,5.061,11.131,7.085,16.184c-6.072,2.025-14.162,4.049-21.24,6.074C167.754,261.422,163.705,260.41,155.611,261.422
		L155.611,261.422z M39.299,184.547L39.299,184.547c-1.012-3.033-2.024-6.066-3.037-10.115c-3.032-10.109-6.068-22.248-6.068-33.375
		l8.094,6.066c1.012,1.012,1.012,1.012,3.035,2.023l27.311,20.229c1.008,1.012,1.008,1.012,1.008,2.023l1.009,1.014
		C63.572,174.432,46.38,182.525,39.299,184.547L39.299,184.547z M68.633,227.027l49.559-7.078c0,3.033-2.024,6.066-3.037,8.09
		c-2.023,5.057-9.102,22.256-10.113,24.273C95.938,248.271,72.674,234.109,68.633,227.027L68.633,227.027z M236.532,105.652
		L236.532,105.652l31.351-13.15c1.013,2.025,5.062,16.188,6.073,20.236c2.017,8.09,3.029,15.168,3.029,23.262
		c-2.024,0-4.041-2.025-5.054-3.037l-15.171-12.135C252.712,117.791,237.544,107.678,236.532,105.652L236.532,105.652z
		 M235.521,103.629v0.008l6.065-50.576c5.061,4.045,11.126,12.137,14.162,17.193c2.021,3.037,4.045,6.068,6.069,10.117
		c1.013,2.021,5.054,10.115,5.054,10.115L235.521,103.629L235.521,103.629z M188.994,57.105L188.994,57.105
		c0-1.014,11.126-30.345,13.144-31.357c2.024,1.012,7.081,3.037,10.117,5.061c3.037,2.021,6.065,3.033,9.103,5.058
		c3.036,2.023,7.077,5.055,9.102,7.078l8.09,7.078l0,0l0,0l-25.281,4.049C205.174,55.084,197.084,56.092,188.994,57.105
		L188.994,57.105z M107.064,253.324L107.064,253.324l13.151-32.367l20.229,25.289c1.012,2.025,2.021,3.037,3.032,5.055
		c2.021,3.035,7.082,8.098,8.094,10.121c-8.094,0-17.195-1.012-24.277-2.023C118.191,257.373,112.118,254.336,107.064,253.324
		L107.064,253.324z M30.193,136L30.193,136c0-14.164,5.057-32.371,9.105-43.498l31.351,13.15l-10.114,8.09
		c-1.012,1.014-3.029,2.025-5.053,4.049c-1.013,1.014-3.037,2.025-5.062,3.037L30.193,136L30.193,136z M186.97,56.092L186.97,56.092
		l-31.358-40.456c7.082,0,17.195,1.012,24.281,3.035c4.041,1.01,16.18,4.045,20.228,6.07L186.97,56.092L186.97,56.092z
		 M202.145,252.313L202.145,252.313l-13.15-32.363l49.563,7.078c-1.013,2.023,0,1.012-2.024,2.023
		c-1.012,1.014-1.012,1.014-2.024,2.025l-8.09,7.078C221.357,242.199,207.198,250.295,202.145,252.313L202.145,252.313z
		 M202.145,183.537c2.018-5.057,16.176-40.459,17.188-41.469l13.15,29.33C231.472,172.412,205.174,182.525,202.145,183.537
		L202.145,183.537z M219.333,136c-1.013-2.025-16.176-38.438-17.188-41.473c7.074,2.023,25.278,10.113,30.339,11.125
		c-1.012,3.037-2.024,5.063-3.036,8.098L219.333,136L219.333,136z M156.627,72.277l30.343-12.137l11.126,30.346
		C197.084,89.473,157.64,74.303,156.627,72.277L156.627,72.277z M109.089,90.486L109.089,90.486l12.135-30.346
		c2.024,0,12.139,5.057,15.172,6.068c4.049,2.023,10.114,4.045,14.163,6.064c-2.024,2.029-17.196,8.098-21.241,9.107
		C124.261,83.404,113.131,88.461,109.089,90.486L109.089,90.486z M74.698,171.398l13.15-30.342l13.144,31.355
		c1.012,3.031,3.036,8.09,4.049,11.125L74.698,171.398L74.698,171.398z M156.627,204.777l41.469-17.195L186.97,217.93
		L156.627,204.777L156.627,204.777z M121.224,217.93l-12.135-30.348l41.47,17.195L121.224,217.93L121.224,217.93z M74.698,105.652
		l30.343-11.125L87.849,136l-10.114-23.262C76.723,110.715,75.71,108.689,74.698,105.652z"/>
</g>
<g id="I_1">
	<g id="Layer_1">
		<text transform="matrix(1 0 0 1 91.2285 294.9824)"><tspan x="0" y="0" fill="#1A1A18" font-family="'Convection-Bold'" font-size="25">F</tspan><tspan x="12.354" y="0" fill="#1A1A18" font-family="'Convection-Bold'" font-size="25">LAWLESS</tspan></text>
	</g>
</g>
</svg>
