<svg version="1.1" xmlns="http://www.w3.org/2000/svg" xmlns:xlink="http://www.w3.org/1999/xlink" x="0px" y="0px" width="300" height="300" viewBox="0 0 300 300" enable-background="new 0 0 300 300" xml:space="preserve" id="el_2d4w6zkql"><style>@-webkit-keyframes kf_el_PJVkknXlSOo_an_FoN-Po_NZ{65%{opacity: 0;}75%{opacity: 1;}100%{opacity: 0;}0%{opacity: 0;}}@keyframes kf_el_PJVkknXlSOo_an_FoN-Po_NZ{65%{opacity: 0;}75%{opacity: 1;}100%{opacity: 0;}0%{opacity: 0;}}@-webkit-keyframes kf_el_NzMkQz64sHq_an_oaXBpIQj-{30%{opacity: 0;}40%{opacity: 1;}65%{opacity: 0;}75%{opacity: 0;}0%{opacity: 0;}100%{opacity: 0;}}@keyframes kf_el_NzMkQz64sHq_an_oaXBpIQj-{30%{opacity: 0;}40%{opacity: 1;}65%{opacity: 0;}75%{opacity: 0;}0%{opacity: 0;}100%{opacity: 0;}}@-webkit-keyframes kf_el_olUq8bDmLv_an_M7Rv6T-x_{0%{opacity: 0;}5%{opacity: 1;}30%{opacity: 0;}40%{opacity: 0;}65%{opacity: 0;}75%{opacity: 0;}100%{opacity: 0;}}@keyframes kf_el_olUq8bDmLv_an_M7Rv6T-x_{0%{opacity: 0;}5%{opacity: 1;}30%{opacity: 0;}40%{opacity: 0;}65%{opacity: 0;}75%{opacity: 0;}100%{opacity: 0;}}@-webkit-keyframes kf_el_HDvocI0pw__an_SIXe2KH-6{0%{opacity: 1;}100%{opacity: 1;}}@keyframes kf_el_HDvocI0pw__an_SIXe2KH-6{0%{opacity: 1;}100%{opacity: 1;}}#el_2d4w6zkql *{-webkit-animation-duration: 10s;animation-duration: 10s;-webkit-animation-iteration-count: infinite;animation-iteration-count: infinite;-webkit-animation-timing-function: cubic-bezier(0, 0, 1, 1);animation-timing-function: cubic-bezier(0, 0, 1, 1);}#el_CwqJ6xv7sO{fill: #0A3D61;}#el_fwQ5191t9r{-webkit-transform: matrix(1, 0, 0, 1, 130.1201, 294.9824);transform: matrix(1, 0, 0, 1, 130.1201, 294.9824);}#el_nUW_MuEuWR{fill: #1A1A18;}#el_YlpHFJDpBO{fill: #1A1A18;}#el_kdOO104Mek{-webkit-transform: matrix(0.0386, 0.9993, -0.9993, 0.0386, 181.8259, 95.1805);transform: matrix(0.0386, 0.9993, -0.9993, 0.0386, 181.8259, 95.1805);}#el_IuqjUeYzklb{-webkit-transform: matrix(0.9427, -0.3337, 0.3337, 0.9427, -19.8536, 66.409);transform: matrix(0.9427, -0.3337, 0.3337, 0.9427, -19.8536, 66.409);}#el_YHu1XieHQsq{-webkit-transform: matrix(-0.2125, -0.9772, 0.9772, -0.2125, 70.6324, 222.1943);transform: matrix(-0.2125, -0.9772, 0.9772, -0.2125, 70.6324, 222.1943);}#el_IksYtEkLVfM{-webkit-transform: matrix(1, 0, 0, 1, 130.4531, 295.3164);transform: matrix(1, 0, 0, 1, 130.4531, 295.3164);}#el_qd6wKA1JjlZ{fill: #1A1A18;}#el_8PUQiHgpzb9{fill: #1A1A18;}#el_k8NOkPr1Izd{-webkit-transform: matrix(0.0381, 0.9993, -0.9993, 0.0381, 182.4998, 95.2308);transform: matrix(0.0381, 0.9993, -0.9993, 0.0381, 182.4998, 95.2308);}#el_lFbmxF5-JiQ{-webkit-transform: matrix(-0.2126, -0.9771, 0.9771, -0.2126, 70.7138, 222.9258);transform: matrix(-0.2126, -0.9771, 0.9771, -0.2126, 70.7138, 222.9258);}#el_xQsA8QMvcBI{-webkit-transform: matrix(0.9427, -0.3337, 0.3337, 0.9427, -19.9455, 66.5391);transform: matrix(0.9427, -0.3337, 0.3337, 0.9427, -19.9455, 66.5391);}#el_RAE8nLvXbDd{-webkit-transform: matrix(0.9427, -0.3338, 0.3338, 0.9427, -9.9368, 50.816);transform: matrix(0.9427, -0.3338, 0.3338, 0.9427, -9.9368, 50.816);}#el_wPCg7WRo_nr{-webkit-transform: matrix(0.9426, -0.3339, 0.3339, 0.9426, -10.5225, 52.1099);transform: matrix(0.9426, -0.3339, 0.3339, 0.9426, -10.5225, 52.1099);}#el_-r-zKlxzl1J{-webkit-transform: matrix(1, 0, 0, 1, 130.79, 295.3164);transform: matrix(1, 0, 0, 1, 130.79, 295.3164);}#el_tXE1AMdiXyI{fill: #1A1A18;}#el_LZEuYE6seLE{fill: #1A1A18;}#el_Vrj8_dgXBsV{-webkit-transform: matrix(0.0381, 0.9993, -0.9993, 0.0381, 211.6943, 103.3012);transform: matrix(0.0381, 0.9993, -0.9993, 0.0381, 211.6943, 103.3012);}#el_E9umvCOS2-r{-webkit-transform: matrix(-0.2126, -0.9771, 0.9771, -0.2126, 31.5038, 215.3286);transform: matrix(-0.2126, -0.9771, 0.9771, -0.2126, 31.5038, 215.3286);}#el_qP7C41MynQH{-webkit-transform: matrix(0.9427, -0.3338, 0.3338, 0.9427, -10.0897, 49.9262);transform: matrix(0.9427, -0.3338, 0.3338, 0.9427, -10.0897, 49.9262);}#el_a-je5otncBX{-webkit-transform: matrix(0.9427, -0.3336, 0.3336, 0.9427, -11.1692, 52.2892);transform: matrix(0.9427, -0.3336, 0.3336, 0.9427, -11.1692, 52.2892);}#el_HDvocI0pw_{-webkit-animation-fill-mode: backwards;animation-fill-mode: backwards;opacity: 1;-webkit-animation-name: kf_el_HDvocI0pw__an_SIXe2KH-6;animation-name: kf_el_HDvocI0pw__an_SIXe2KH-6;-webkit-animation-timing-function: cubic-bezier(0, 0, 1, 1);animation-timing-function: cubic-bezier(0, 0, 1, 1);}#el_olUq8bDmLv{-webkit-animation-fill-mode: backwards;animation-fill-mode: backwards;opacity: 0;-webkit-animation-name: kf_el_olUq8bDmLv_an_M7Rv6T-x_;animation-name: kf_el_olUq8bDmLv_an_M7Rv6T-x_;-webkit-animation-timing-function: cubic-bezier(0, 0, 1, 1);animation-timing-function: cubic-bezier(0, 0, 1, 1);}#el_NzMkQz64sHq{-webkit-animation-fill-mode: backwards;animation-fill-mode: backwards;opacity: 0;-webkit-animation-name: kf_el_NzMkQz64sHq_an_oaXBpIQj-;animation-name: kf_el_NzMkQz64sHq_an_oaXBpIQj-;-webkit-animation-timing-function: cubic-bezier(0, 0, 1, 1);animation-timing-function: cubic-bezier(0, 0, 1, 1);}#el_PJVkknXlSOo{-webkit-animation-fill-mode: backwards;animation-fill-mode: backwards;opacity: 0;-webkit-animation-name: kf_el_PJVkknXlSOo_an_FoN-Po_NZ;animation-name: kf_el_PJVkknXlSOo_an_FoN-Po_NZ;-webkit-animation-timing-function: cubic-bezier(0, 0, 1, 1);animation-timing-function: cubic-bezier(0, 0, 1, 1);}</style>
<g id="el_HDvocI0pw_">
	<path fillRule="evenodd" clip-rule="evenodd" d="M145.497,13.616c-19.216,1.008-34.384,7.08-48.546,13.148&#10;&#9;&#9;c-12.139,6.069-22.253,14.158-31.355,23.259c-1.012,1.012-3.036,2.023-4.049,4.049c-1.012,1.012-2.023,3.033-4.041,4.045&#10;&#9;&#9;l-9.109,13.148c-24.273,39.449-26.293,82.934-6.065,123.398c1.013,4.049,3.036,7.078,5.062,10.113&#10;&#9;&#9;c1.004,2.025,2.017,3.037,3.028,5.055c6.073,9.105,11.126,14.162,18.212,21.244c20.229,18.207,52.591,35.398,92.036,32.363&#10;&#9;&#9;c21.24-1.014,31.354-5.055,49.562-13.145c7.078-3.035,13.151-8.096,19.217-12.139c5.061-3.035,15.175-12.141,18.211-17.199&#10;&#9;&#9;c4.049-5.053,7.078-7.076,12.135-15.166c5.054-9.109,6.065-10.115,10.114-20.232c13.151-32.363,11.127-72.82-5.061-103.166&#10;&#9;&#9;c-3.029-7.082-7.078-14.16-11.123-19.221c-6.065-8.088-9.102-10.111-15.175-17.193C215.292,24.741,179.893,11.591,145.497,13.616&#10;&#9;&#9;L145.497,13.616L145.497,13.616z M152.575,74.303L152.575,74.303c2.031-1.012,9.105,3.033,12.142,4.045&#10;&#9;&#9;c3.037,2.023,7.078,3.033,11.127,5.057l17.191,7.082c8.098,3.035,6.073,2.023,8.098,7.076c4.041,9.104,8.086,19.217,12.135,28.322&#10;&#9;&#9;c1.012,3.033,4.041,9.104,5.053,12.139c0,2.021-12.135,30.344-14.158,34.389l-4.042,11.125c-1.012,2.021-9.109,4.045-12.138,5.059&#10;&#9;&#9;l-33.376,14.158c-2.031,1.012-19.22-7.078-23.269-8.09l-22.249-10.113c-3.036-1.014-15.175-33.381-17.195-39.445&#10;&#9;&#9;c-1.012-1.02-2.024-4.049-3.032-5.061c0-2.021,11.126-29.33,14.155-34.393c5.061-13.15,2.024-11.125,9.102-14.158&#10;&#9;&#9;c2.032-1.008,4.049-2.021,6.073-3.033L152.575,74.303L152.575,74.303z M187.982,59.129L187.982,59.129l52.591-7.082l-7.077,51.582&#10;&#9;&#9;c-3.037,0-32.363-12.135-32.363-12.135C200.12,90.486,188.994,61.15,187.982,59.129L187.982,59.129z M122.236,219.949&#10;&#9;&#9;c1.012-1.012,30.339-14.158,31.358-14.158c1.012,0,27.302,12.139,31.351,13.146c-1.012,2.02-4.049,6.068-6.065,8.09&#10;&#9;&#9;c0,1.012-1.012,2.023-2.024,3.037l-23.261,31.357l-16.188-21.24C132.351,233.096,127.293,226.016,122.236,219.949L122.236,219.949z&#10;&#9;&#9; M73.686,103.629l-7.077-51.582l51.583,7.082c0,2.021-11.127,31.357-12.139,32.365L75.71,103.629c0,0,0,0-1.012,0&#10;&#9;&#9;C74.698,103.629,74.698,103.629,73.686,103.629L73.686,103.629z M234.508,170.387v-1.012c-2.024-2.021-14.163-30.342-14.163-30.342&#10;&#9;&#9;c0-1.01,12.139-28.318,14.163-31.355c1.013,0,8.09,6.072,10.114,7.084l31.351,24.271l-36.411,27.313&#10;&#9;&#9;C237.544,167.354,236.532,169.375,234.508,170.387L234.508,170.387z M122.236,58.117h-0.004l31.362-41.469l8.086,10.112&#10;&#9;&#9;c3.036,3.033,5.061,7.082,8.09,10.119c2.024,3.031,14.163,19.213,15.175,21.238c-4.049,2.023-29.334,13.148-31.351,13.148&#10;&#9;&#9;l-30.347-13.148C122.236,58.117,122.236,58.117,122.236,58.117L122.236,58.117z M73.686,174.432&#10;&#9;&#9;c1.013-1.012,1.013-1.012,2.024-1.012l30.343,13.15c1.012,0,6.065,13.146,6.065,15.172c1.013,3.035,7.085,15.174,6.073,16.188&#10;&#9;&#9;l-51.583,7.076L73.686,174.432L73.686,174.432z M188.994,217.93c-1.012-1.014,12.139-31.359,12.139-31.359l32.363-13.15&#10;&#9;&#9;l6.065,51.586L188.994,217.93L188.994,217.93z M31.205,139.033l41.469-32.367l14.163,32.367c0,0-13.151,29.334-14.163,31.354&#10;&#9;&#9;C59.523,161.285,43.344,147.123,31.205,139.033L31.205,139.033z M68.633,50.023c7.077-7.078,26.294-22.247,36.408-24.271&#10;&#9;&#9;c2.023,2.024,5.061,12.138,7.077,15.169c2.032,4.045,5.061,11.125,6.073,16.184C113.131,57.105,69.641,51.035,68.633,50.023&#10;&#9;&#9;L68.633,50.023z M242.598,223.994c-1.012-2.023-6.065-44.506-7.077-50.574c1.012,1.012,30.338,12.139,31.351,13.15&#10;&#9;&#9;C262.83,199.717,251.707,213.881,242.598,223.994L242.598,223.994z M236.532,171.398L236.532,171.398&#10;&#9;&#9;c1.012-1.012,3.029-2.023,5.054-4.045l35.399-26.297c1.012,8.09-5.054,38.432-9.103,43.49&#10;&#9;&#9;C266.871,184.547,239.562,173.42,236.532,171.398L236.532,171.398z M40.311,186.57c1.012-1.012,28.322-12.139,31.354-13.15&#10;&#9;&#9;l-6.069,50.574C58.519,218.938,43.344,196.682,40.311,186.57L40.311,186.57z M108.077,24.741L108.077,24.741&#10;&#9;&#9;c6.065-4.045,34.388-10.117,43.493-9.104l-23.265,30.342c-1.013,2.023-7.082,9.105-8.09,10.113L108.077,24.741L108.077,24.741z&#10;&#9;&#9; M40.311,90.486c2.021-6.07,11.123-21.24,16.184-27.314c2.024-2.021,5.053-8.088,9.102-10.111l6.069,50.568l-16.183-6.066&#10;&#9;&#9;c-2.025-1.012-5.062-3.035-7.086-4.047C45.367,92.502,42.331,91.494,40.311,90.486L40.311,90.486z M155.611,261.422&#10;&#9;&#9;L155.611,261.422c1.016-1.012,16.184-21.24,19.22-25.289l11.127-15.176c1.012,1.014,2.024,3.037,2.024,4.049l5.053,12.135&#10;&#9;&#9;c2.024,4.045,5.061,11.131,7.085,16.184c-6.072,2.025-14.162,4.049-21.24,6.074C167.754,261.422,163.705,260.41,155.611,261.422&#10;&#9;&#9;L155.611,261.422z M39.299,184.547L39.299,184.547c-1.012-3.033-2.024-6.066-3.037-10.115c-3.032-10.109-6.068-22.248-6.068-33.375&#10;&#9;&#9;l8.094,6.066c1.012,1.012,1.012,1.012,3.035,2.023l27.311,20.229c1.008,1.012,1.008,1.012,1.008,2.023l1.009,1.014&#10;&#9;&#9;C63.572,174.432,46.38,182.525,39.299,184.547L39.299,184.547z M68.633,227.027l49.559-7.078c0,3.033-2.024,6.066-3.037,8.09&#10;&#9;&#9;c-2.023,5.057-9.102,22.256-10.113,24.273C95.938,248.271,72.674,234.109,68.633,227.027L68.633,227.027z M236.532,105.652&#10;&#9;&#9;L236.532,105.652l31.351-13.15c1.013,2.025,5.062,16.188,6.073,20.236c2.017,8.09,3.029,15.168,3.029,23.262&#10;&#9;&#9;c-2.024,0-4.041-2.025-5.054-3.037l-15.171-12.135C252.712,117.791,237.544,107.678,236.532,105.652L236.532,105.652z&#10;&#9;&#9; M235.521,103.629v0.008l6.065-50.576c5.061,4.045,11.126,12.137,14.162,17.193c2.021,3.037,4.045,6.068,6.069,10.117&#10;&#9;&#9;c1.013,2.021,5.054,10.115,5.054,10.115L235.521,103.629L235.521,103.629z M188.994,57.105L188.994,57.105&#10;&#9;&#9;c0-1.014,11.126-30.345,13.144-31.357c2.024,1.012,7.081,3.037,10.117,5.061c3.037,2.021,6.065,3.033,9.103,5.058&#10;&#9;&#9;c3.036,2.023,7.077,5.055,9.102,7.078l8.09,7.078l0,0l0,0l-25.281,4.049C205.174,55.084,197.084,56.092,188.994,57.105&#10;&#9;&#9;L188.994,57.105z M107.064,253.324L107.064,253.324l13.151-32.367l20.229,25.289c1.012,2.025,2.021,3.037,3.032,5.055&#10;&#9;&#9;c2.021,3.035,7.082,8.098,8.094,10.121c-8.094,0-17.195-1.012-24.277-2.023C118.191,257.373,112.118,254.336,107.064,253.324&#10;&#9;&#9;L107.064,253.324z M30.193,136L30.193,136c0-14.164,5.057-32.371,9.105-43.498l31.351,13.15l-10.114,8.09&#10;&#9;&#9;c-1.012,1.014-3.029,2.025-5.053,4.049c-1.013,1.014-3.037,2.025-5.062,3.037L30.193,136L30.193,136z M186.97,56.092L186.97,56.092&#10;&#9;&#9;l-31.358-40.456c7.082,0,17.195,1.012,24.281,3.035c4.041,1.01,16.18,4.045,20.228,6.07L186.97,56.092L186.97,56.092z&#10;&#9;&#9; M202.145,252.313L202.145,252.313l-13.15-32.363l49.563,7.078c-1.013,2.023,0,1.012-2.024,2.023&#10;&#9;&#9;c-1.012,1.014-1.012,1.014-2.024,2.025l-8.09,7.078C221.357,242.199,207.198,250.295,202.145,252.313L202.145,252.313z&#10;&#9;&#9; M202.145,183.537c2.018-5.057,16.176-40.459,17.188-41.469l13.15,29.33C231.472,172.412,205.174,182.525,202.145,183.537&#10;&#9;&#9;L202.145,183.537z M219.333,136c-1.013-2.025-16.176-38.438-17.188-41.473c7.074,2.023,25.278,10.113,30.339,11.125&#10;&#9;&#9;c-1.012,3.037-2.024,5.063-3.036,8.098L219.333,136L219.333,136z M156.627,72.277l30.343-12.137l11.126,30.346&#10;&#9;&#9;C197.084,89.473,157.64,74.303,156.627,72.277L156.627,72.277z M109.089,90.486L109.089,90.486l12.135-30.346&#10;&#9;&#9;c2.024,0,12.139,5.057,15.172,6.068c4.049,2.023,10.114,4.045,14.163,6.064c-2.024,2.029-17.196,8.098-21.241,9.107&#10;&#9;&#9;C124.261,83.404,113.131,88.461,109.089,90.486L109.089,90.486z M74.698,171.398l13.15-30.342l13.144,31.355&#10;&#9;&#9;c1.012,3.031,3.036,8.09,4.049,11.125L74.698,171.398L74.698,171.398z M156.627,204.777l41.469-17.195L186.97,217.93&#10;&#9;&#9;L156.627,204.777L156.627,204.777z M121.224,217.93l-12.135-30.348l41.47,17.195L121.224,217.93L121.224,217.93z M74.698,105.652&#10;&#9;&#9;l30.343-11.125L87.849,136l-10.114-23.262C76.723,110.715,75.71,108.689,74.698,105.652z" id="el_CwqJ6xv7sO"/>
</g>
<g id="el_olUq8bDmLv">
	<g id="el_tvqnGRTvmJ" display="inline">
		<text id="el_fwQ5191t9r"><tspan x="0" y="0" font-family="'Convection-Bold'" font-size="25" id="el_nUW_MuEuWR"> </tspan><tspan x="6.006" y="0" font-family="'Convection-Bold'" font-size="25" id="el_YlpHFJDpBO">I 1 </tspan></text>
	</g>
	<g id="el_U4AGAZuzZy" display="inline">
		<circle fillRule="evenodd" clip-rule="evenodd" cx="203.577" cy="99" r="1.245" id="el_U6UYNZ5VPL"/>
	</g>
	<g id="el_ju3LNDRlD3" display="inline">
		<path fillRule="evenodd" clip-rule="evenodd" d="M182.469,194.052c1.074,0.23,1.528,2.363,1.011,4.766&#10;&#9;&#9;&#9;c-0.523,2.4-1.81,4.156-2.891,3.921c-1.073-0.23-1.529-2.362-1.011-4.764C180.1,195.573,181.392,193.815,182.469,194.052z" id="el_qj-sawuwiT"/>
	</g>
	<g id="el__WfaPELN0w" display="inline">
		
			<ellipse fillRule="evenodd" clip-rule="evenodd" cx="41.45" cy="142.08" rx="0.487" ry="1.524" id="el_kdOO104Mek"/>
	</g>
	<g id="el_XPPEIDc4W_" display="inline">
		<circle fillRule="evenodd" clip-rule="evenodd" cx="195.5" cy="222.5" r="1.245" id="el_vFo_aa7TN7"/>
	</g>
	<g id="el_zIJ_SII8g_m" display="inline">
		<ellipse fillRule="evenodd" clip-rule="evenodd" cx="208.25" cy="215.504" rx="1.012" ry="1.346" id="el_0v_wv-jlxlF"/>
	</g>
	<g id="el_rDs696XoD3V" display="inline">
		
			<ellipse fillRule="evenodd" clip-rule="evenodd" cx="183.39" cy="90.999" rx="2.318" ry="1.246" id="el_IuqjUeYzklb"/>
	</g>
	<g id="el_JOuFPsHfGj8" display="inline">
		
			<ellipse fillRule="evenodd" clip-rule="evenodd" cx="124.846" cy="82.637" rx="1.994" ry="0.969" id="el_YHu1XieHQsq"/>
	</g>
</g>
<g id="el_NzMkQz64sHq">
	<text display="inline" id="el_IksYtEkLVfM"><tspan x="0" y="0" font-family="'Convection-Bold'" font-size="25" id="el_qd6wKA1JjlZ"> </tspan><tspan x="6.006" y="0" font-family="'Convection-Bold'" font-size="25" id="el_8PUQiHgpzb9">I 2 </tspan></text>
	<g display="inline" id="el_fdtwc4VdiPs">
		<g id="el_Vaj2y3dJ3_J">
			<path d="M201.083,181.446c-6.269,8.439,1.275,16.947,10.411,17.354c1.612,0.072,1.605-2.429,0-2.5&#10;&#9;&#9;&#9;&#9;c-7.403-0.33-13.325-6.764-8.253-13.593C204.204,181.412,202.032,180.168,201.083,181.446L201.083,181.446z" id="el_ZcbBsVUdZWr"/>
		</g>
	</g>
	<circle display="inline" fillRule="evenodd" clip-rule="evenodd" cx="203.91" cy="99.333" r="1.245" id="el_JuAkvYwUJio"/>
	
		<ellipse display="inline" fillRule="evenodd" clip-rule="evenodd" cx="41.783" cy="142.413" rx="0.487" ry="1.524" id="el_k8NOkPr1Izd"/>
	<circle display="inline" fillRule="evenodd" clip-rule="evenodd" cx="93.909" cy="229" r="1.245" id="el_zIPUZ8PrzaP"/>
	
		<ellipse display="inline" fillRule="evenodd" clip-rule="evenodd" cx="125.179" cy="82.971" rx="1.994" ry="0.969" id="el_lFbmxF5-JiQ"/>
	
		<ellipse display="inline" fillRule="evenodd" clip-rule="evenodd" cx="183.723" cy="91.331" rx="2.318" ry="1.246" id="el_xQsA8QMvcBI"/>
	<path display="inline" fillRule="evenodd" clip-rule="evenodd" d="M152.597,212.785c0,0.746-0.452,1.346-1.012,1.346&#10;&#9;&#9;s-1.012-0.6-1.012-1.346c0-0.744,0.452-1.344,1.012-1.344S152.597,212.041,152.597,212.785z" id="el_hm-5NOuM9oC"/>
	<path display="inline" fillRule="evenodd" clip-rule="evenodd" d="M55.083,167.908c-0.679,0.498-1.471,0.568-1.771,0.159&#10;&#9;&#9;c-0.3-0.412,0.009-1.143,0.687-1.641c0.678-0.499,1.471-0.57,1.771-0.159C56.07,166.677,55.764,167.411,55.083,167.908z" id="el_wBb1J2O7zmA"/>
	
		<ellipse display="inline" fillRule="evenodd" clip-rule="evenodd" cx="142.916" cy="54.326" rx="1.361" ry="0.732" id="el_RAE8nLvXbDd"/>
	
		<ellipse display="inline" fillRule="evenodd" clip-rule="evenodd" cx="146.332" cy="56.666" rx="0.959" ry="0.516" id="el_wPCg7WRo_nr"/>
	<path display="inline" fillRule="evenodd" clip-rule="evenodd" d="M237.01,140.345c0,0.746-0.452,1.346-1.012,1.346&#10;&#9;&#9;s-1.012-0.6-1.012-1.346c0-0.744,0.452-1.344,1.012-1.344S237.01,139.601,237.01,140.345z" id="el_QaD9NSBylL4"/>
	<path display="inline" fillRule="evenodd" clip-rule="evenodd" d="M189.678,172.987c0,0.746-0.452,1.346-1.012,1.346&#10;&#9;&#9;s-1.012-0.6-1.012-1.346c0-0.744,0.452-1.344,1.012-1.344S189.678,172.243,189.678,172.987z" id="el_52l0G6O-3Dm"/>
</g>
<g id="el_PJVkknXlSOo">
	<text display="inline" id="el_-r-zKlxzl1J"><tspan x="0" y="0" font-family="'Convection-Bold'" font-size="25" id="el_tXE1AMdiXyI"> </tspan><tspan x="6.006" y="0" font-family="'Convection-Bold'" font-size="25" id="el_LZEuYE6seLE">I 3</tspan></text>
	<path display="inline" fillRule="evenodd" clip-rule="evenodd" d="M184.721,205.293c-1.228-0.327-1.2-4.44,0.061-9.209&#10;&#9;&#9;c1.263-4.772,3.273-8.363,4.501-8.04c1.226,0.324,1.198,4.441-0.063,9.21C187.957,202.026,185.947,205.612,184.721,205.293z" id="el_wDGXnckPdFD"/>
	
		<ellipse display="inline" fillRule="evenodd" clip-rule="evenodd" cx="52.19" cy="161.609" rx="0.487" ry="1.524" id="el_Vrj8_dgXBsV"/>
	<circle display="inline" fillRule="evenodd" clip-rule="evenodd" cx="105.745" cy="227.667" r="1.245" id="el_b7xQ1pXLW8y"/>
	
		<ellipse display="inline" fillRule="evenodd" clip-rule="evenodd" cx="102.513" cy="94.971" rx="1.994" ry="0.969" id="el_E9umvCOS2-r"/>
	<path display="inline" fillRule="evenodd" clip-rule="evenodd" d="M202.273,111.271c-0.385,1.21-4.492,0.988-9.195-0.497&#10;&#9;&#9;c-4.707-1.487-8.199-3.666-7.817-4.877c0.382-1.209,4.493-0.986,9.196,0.499C199.164,107.884,202.65,110.062,202.273,111.271z" id="el_q8M-8d5pKQY"/>
	<g display="inline" id="el__4LQUaehZk9">
		<path d="M148.919,212.786c0,0-0.782,2.185-2.286,5.299c-0.742,1.562-1.664,3.355-2.719,5.24c-0.536,0.938-1.07,1.92-1.67,2.884&#10;&#9;&#9;&#9;c-0.602,0.963-1.213,1.941-1.824,2.92c-0.639,0.962-1.295,1.913-1.947,2.846c-0.647,0.937-1.346,1.816-2.011,2.675&#10;&#9;&#9;&#9;c-1.347,1.706-2.709,3.227-3.984,4.43c-1.263,1.215-2.454,2.093-3.345,2.602c-0.451,0.252-0.814,0.42-1.076,0.507&#10;&#9;&#9;&#9;c-0.254,0.096-0.39,0.146-0.39,0.146s0.118-0.084,0.338-0.242c0.228-0.142,0.519-0.412,0.894-0.733&#10;&#9;&#9;&#9;c0.363-0.34,0.787-0.764,1.248-1.277c0.461-0.511,0.955-1.113,1.484-1.776c1.047-1.337,2.205-2.947,3.414-4.701&#10;&#9;&#9;&#9;c0.597-0.884,1.213-1.797,1.838-2.726c0.625-0.93,1.25-1.882,1.863-2.842c1.248-1.913,2.494-3.825,3.664-5.618&#10;&#9;&#9;&#9;c1.167-1.798,2.268-3.473,3.23-4.899C147.547,214.654,148.92,212.786,148.919,212.786z" id="el_etZYGYMwP-Y"/>
	</g>
	<path display="inline" fillRule="evenodd" clip-rule="evenodd" d="M52.417,167.908c-0.679,0.498-1.471,0.568-1.771,0.159&#10;&#9;&#9;c-0.3-0.412,0.009-1.143,0.687-1.641c0.678-0.499,1.471-0.57,1.771-0.159C53.404,166.677,53.098,167.411,52.417,167.908z" id="el_0xIBy868OyO"/>
	
		<ellipse display="inline" fillRule="evenodd" clip-rule="evenodd" cx="140.25" cy="54.326" rx="1.361" ry="0.732" id="el_qP7C41MynQH"/>
	
		<ellipse display="inline" fillRule="evenodd" clip-rule="evenodd" cx="146.666" cy="58.666" rx="1.042" ry="0.56" id="el_a-je5otncBX"/>
	<path display="inline" fillRule="evenodd" clip-rule="evenodd" d="M234.344,140.345c0,0.746-0.452,1.346-1.012,1.346&#10;&#9;&#9;s-1.012-0.6-1.012-1.346c0-0.744,0.452-1.344,1.012-1.344S234.344,139.601,234.344,140.345z" id="el_OugWSmkXsjq"/>
	<path display="inline" fillRule="evenodd" clip-rule="evenodd" d="M190.012,177.987c0,0.746-0.452,1.346-1.012,1.346&#10;&#9;&#9;s-1.012-0.6-1.012-1.346c0-0.744,0.452-1.344,1.012-1.344S190.012,177.243,190.012,177.987z" id="el_qLMIup2LbNG"/>
	<path display="inline" fillRule="evenodd" clip-rule="evenodd" d="M234.012,161.511c0,0.746-0.452,1.346-1.012,1.346&#10;&#9;&#9;s-1.012-0.6-1.012-1.346c0-0.744,0.452-1.344,1.012-1.344S234.012,160.767,234.012,161.511z" id="el_nzBdG_LaA_8"/>
	<path display="inline" fillRule="evenodd" clip-rule="evenodd" d="M214,212c0,0.746-0.452,1.346-1.012,1.346&#10;&#9;&#9;s-1.012-0.6-1.012-1.346c0-0.744,0.452-1.344,1.012-1.344S214,211.256,214,212z" id="el_l1GbgNbiypP"/>
	<path display="inline" fillRule="evenodd" clip-rule="evenodd" d="M202.512,220.667c0,0.746-0.452,1.346-1.012,1.346&#10;&#9;&#9;s-1.012-0.6-1.012-1.346c0-0.744,0.452-1.344,1.012-1.344S202.512,219.923,202.512,220.667z" id="el_DaPkG24obHh"/>
</g>
</svg>