<svg version="1.1" xmlns="http://www.w3.org/2000/svg" xmlns:xlink="http://www.w3.org/1999/xlink" x="0px" y="0px" width="300" height="300" viewBox="0 0 300 300" enable-background="new 0 0 300 300" xml:space="preserve" id="el_xEWf8x0lh"><style>@-webkit-keyframes kf_el_1KA9y4dAxH_an_2yjlSCXM8{0%{opacity: 0;}42.86%{opacity: 0;}57.14%{opacity: 1;}100%{opacity: 0;}}@keyframes kf_el_1KA9y4dAxH_an_2yjlSCXM8{0%{opacity: 0;}42.86%{opacity: 0;}57.14%{opacity: 1;}100%{opacity: 0;}}@-webkit-keyframes kf_el_94AGzZB_58_an_r-iIkjZ4B{0%{opacity: 0;}7.14%{opacity: 1;}42.86%{opacity: 0;}57.14%{opacity: 0;}100%{opacity: 0;}}@keyframes kf_el_94AGzZB_58_an_r-iIkjZ4B{0%{opacity: 0;}7.14%{opacity: 1;}42.86%{opacity: 0;}57.14%{opacity: 0;}100%{opacity: 0;}}@-webkit-keyframes kf_el_RIUL1V7i8I_an_-D4XUumhy{0%{opacity: 1;}100%{opacity: 1;}}@keyframes kf_el_RIUL1V7i8I_an_-D4XUumhy{0%{opacity: 1;}100%{opacity: 1;}}#el_xEWf8x0lh *{-webkit-animation-duration: 7s;animation-duration: 7s;-webkit-animation-iteration-count: infinite;animation-iteration-count: infinite;-webkit-animation-timing-function: cubic-bezier(0, 0, 1, 1);animation-timing-function: cubic-bezier(0, 0, 1, 1);}#el__kNNJENQNI{fill: #0A3D61;}#el_OPaMkx5G_J{-webkit-transform: matrix(1, 0, 0, 1, 122.3135, 288.9824);transform: matrix(1, 0, 0, 1, 122.3135, 288.9824);}#el_0-Gm0FqZsO{fill: #1A1A18;}#el_LiVlkftUTz{fill: #1A1A18;}#el_zqQkxi0vmr{-webkit-transform: matrix(1, 0, 0, 1, 122.6475, 287.9824);transform: matrix(1, 0, 0, 1, 122.6475, 287.9824);}#el_tPyjgsbRNx{fill: #1A1A18;}#el_dt_ShhrWaB{fill: #1A1A18;}#el_IxR_6bLlytI{-webkit-transform: matrix(0.9704, -0.2416, 0.2416, 0.9704, -41.9947, 55.1542);transform: matrix(0.9704, -0.2416, 0.2416, 0.9704, -41.9947, 55.1542);}#el_RIUL1V7i8I{-webkit-animation-fill-mode: backwards;animation-fill-mode: backwards;opacity: 1;-webkit-animation-name: kf_el_RIUL1V7i8I_an_-D4XUumhy;animation-name: kf_el_RIUL1V7i8I_an_-D4XUumhy;-webkit-animation-timing-function: cubic-bezier(0, 0, 1, 1);animation-timing-function: cubic-bezier(0, 0, 1, 1);}#el_94AGzZB_58{-webkit-animation-fill-mode: backwards;animation-fill-mode: backwards;opacity: 0;-webkit-animation-name: kf_el_94AGzZB_58_an_r-iIkjZ4B;animation-name: kf_el_94AGzZB_58_an_r-iIkjZ4B;-webkit-animation-timing-function: cubic-bezier(0.42, 0, 0.58, 1);animation-timing-function: cubic-bezier(0.42, 0, 0.58, 1);}#el_1KA9y4dAxH{-webkit-animation-fill-mode: backwards;animation-fill-mode: backwards;opacity: 0;-webkit-animation-name: kf_el_1KA9y4dAxH_an_2yjlSCXM8;animation-name: kf_el_1KA9y4dAxH_an_2yjlSCXM8;-webkit-animation-timing-function: cubic-bezier(0.42, 0, 0.58, 1);animation-timing-function: cubic-bezier(0.42, 0, 0.58, 1);}</style>
<g id="el_RIUL1V7i8I">
	<path fill-rule="evenodd" clip-rule="evenodd" d="M142.656,8.604c-19.216,1.008-34.384,7.08-48.546,13.148&#10;&#9;&#9;C81.972,27.822,71.857,35.91,62.755,45.012c-1.012,1.012-3.036,2.024-4.049,4.049c-1.012,1.012-2.023,3.033-4.041,4.045&#10;&#9;&#9;l-9.109,13.149c-24.273,39.448-26.293,82.933-6.065,123.398c1.013,4.049,3.036,7.078,5.062,10.113&#10;&#9;&#9;c1.004,2.025,2.017,3.037,3.028,5.055c6.073,9.105,11.126,14.162,18.212,21.244c20.229,18.207,52.591,35.398,92.036,32.363&#10;&#9;&#9;c21.24-1.014,31.354-5.055,49.562-13.145c7.078-3.035,13.151-8.096,19.217-12.139c5.061-3.035,15.175-12.141,18.211-17.199&#10;&#9;&#9;c4.049-5.053,7.078-7.076,12.135-15.166c5.054-9.109,6.065-10.115,10.114-20.232c13.151-32.363,11.127-72.82-5.061-103.167&#10;&#9;&#9;c-3.029-7.081-7.078-14.159-11.123-19.22c-6.065-8.088-9.102-10.112-15.175-17.194C212.451,19.729,177.052,6.58,142.656,8.604&#10;&#9;&#9;L142.656,8.604L142.656,8.604z M149.734,69.291L149.734,69.291c2.031-1.012,9.105,3.033,12.142,4.045&#10;&#9;&#9;c3.037,2.024,7.078,3.033,11.127,5.057l17.191,7.082c8.098,3.037,6.073,2.024,8.098,7.078c4.041,9.102,8.086,19.216,12.135,28.322&#10;&#9;&#9;c1.012,3.033,4.041,9.103,5.053,12.139c0,2.021-12.135,30.343-14.158,34.388l-4.042,11.125c-1.012,2.021-9.109,4.045-12.138,5.059&#10;&#9;&#9;l-33.376,14.158c-2.031,1.012-19.22-7.078-23.269-8.09l-22.249-10.113c-3.036-1.014-15.175-33.381-17.195-39.446&#10;&#9;&#9;c-1.012-1.02-2.024-4.048-3.032-5.061c0-2.021,11.126-29.33,14.155-34.392c5.061-13.15,2.024-11.126,9.102-14.159&#10;&#9;&#9;c2.032-1.008,4.049-2.021,6.073-3.033L149.734,69.291L149.734,69.291z M185.142,54.118L185.142,54.118l52.591-7.082l-7.077,51.582&#10;&#9;&#9;c-3.037,0-32.363-12.135-32.363-12.135C197.279,85.474,186.153,56.138,185.142,54.118L185.142,54.118z M119.396,214.938&#10;&#9;&#9;c1.012-1.012,30.339-14.158,31.358-14.158c1.012,0,27.302,12.139,31.351,13.146c-1.012,2.02-4.049,6.068-6.065,8.09&#10;&#9;&#9;c0,1.012-1.012,2.023-2.024,3.037l-23.261,31.357l-16.188-21.24C129.51,228.084,124.452,221.004,119.396,214.938L119.396,214.938z&#10;&#9;&#9; M70.845,98.618l-7.077-51.582l51.583,7.082c0,2.021-11.127,31.356-12.139,32.365L72.869,98.618c0,0,0,0-1.012,0&#10;&#9;&#9;C71.857,98.618,71.857,98.618,70.845,98.618L70.845,98.618z M231.667,165.375v-1.012c-2.024-2.021-14.163-30.342-14.163-30.342&#10;&#9;&#9;c0-1.009,12.139-28.318,14.163-31.354c1.013,0,8.09,6.072,10.114,7.084l31.351,24.271l-36.411,27.313&#10;&#9;&#9;C234.703,162.342,233.691,164.363,231.667,165.375L231.667,165.375z M119.396,53.105h-0.004l31.362-41.469l8.086,10.112&#10;&#9;&#9;c3.036,3.033,5.061,7.082,8.09,10.118c2.024,3.033,14.163,19.214,15.175,21.239c-4.049,2.024-29.334,13.149-31.351,13.149&#10;&#9;&#9;l-30.347-13.149C119.396,53.105,119.396,53.105,119.396,53.105L119.396,53.105z M70.845,169.42&#10;&#9;&#9;c1.013-1.012,1.013-1.012,2.024-1.012l30.343,13.15c1.012,0,6.065,13.146,6.065,15.172c1.013,3.035,7.085,15.174,6.073,16.188&#10;&#9;&#9;l-51.583,7.076L70.845,169.42L70.845,169.42z M186.153,212.918c-1.012-1.014,12.139-31.359,12.139-31.359l32.363-13.15&#10;&#9;&#9;l6.065,51.586L186.153,212.918L186.153,212.918z M28.364,134.021l41.469-32.367l14.163,32.367c0,0-13.151,29.334-14.163,31.354&#10;&#9;&#9;C56.683,156.273,40.503,142.111,28.364,134.021L28.364,134.021z M65.792,45.012c7.077-7.078,26.294-22.247,36.408-24.271&#10;&#9;&#9;c2.023,2.024,5.061,12.138,7.077,15.169c2.032,4.045,5.061,11.126,6.073,16.184C110.29,52.093,66.8,46.024,65.792,45.012&#10;&#9;&#9;L65.792,45.012z M239.757,218.982c-1.012-2.023-6.065-44.506-7.077-50.574c1.012,1.012,30.338,12.139,31.351,13.15&#10;&#9;&#9;C259.989,194.705,248.866,208.869,239.757,218.982L239.757,218.982z M233.691,166.387L233.691,166.387&#10;&#9;&#9;c1.012-1.012,3.029-2.023,5.054-4.045l35.399-26.296c1.012,8.09-5.054,38.431-9.103,43.49&#10;&#9;&#9;C264.03,179.535,236.721,168.408,233.691,166.387L233.691,166.387z M37.47,181.559c1.012-1.012,28.322-12.139,31.354-13.15&#10;&#9;&#9;l-6.069,50.574C55.678,213.926,40.503,191.67,37.47,181.559L37.47,181.559z M105.236,19.729L105.236,19.729&#10;&#9;&#9;c6.065-4.045,34.388-10.116,43.493-9.104l-23.265,30.342c-1.013,2.024-7.082,9.106-8.09,10.114L105.236,19.729L105.236,19.729z&#10;&#9;&#9; M37.47,85.474c2.021-6.069,11.123-21.24,16.184-27.313c2.024-2.022,5.053-8.088,9.102-10.112l6.069,50.569l-16.183-6.066&#10;&#9;&#9;c-2.025-1.012-5.062-3.037-7.086-4.048C42.526,87.491,39.49,86.482,37.47,85.474L37.47,85.474z M152.771,256.41L152.771,256.41&#10;&#9;&#9;c1.016-1.012,16.184-21.24,19.22-25.289l11.127-15.176c1.012,1.014,2.024,3.037,2.024,4.049l5.053,12.135&#10;&#9;&#9;c2.024,4.045,5.061,11.131,7.085,16.184c-6.072,2.025-14.162,4.049-21.24,6.074C164.913,256.41,160.864,255.398,152.771,256.41&#10;&#9;&#9;L152.771,256.41z M36.458,179.535L36.458,179.535c-1.012-3.033-2.024-6.066-3.037-10.115c-3.032-10.109-6.068-22.248-6.068-33.375&#10;&#9;&#9;l8.094,6.065c1.012,1.012,1.012,1.012,3.035,2.024l27.311,20.228c1.008,1.012,1.008,1.012,1.008,2.023l1.009,1.014&#10;&#9;&#9;C60.731,169.42,43.539,177.514,36.458,179.535L36.458,179.535z M65.792,222.016l49.559-7.078c0,3.033-2.024,6.066-3.037,8.09&#10;&#9;&#9;c-2.023,5.057-9.102,22.256-10.113,24.273C93.098,243.26,69.833,229.098,65.792,222.016L65.792,222.016z M233.691,100.641&#10;&#9;&#9;L233.691,100.641l31.351-13.15c1.013,2.024,5.062,16.187,6.073,20.236c2.017,8.09,3.029,15.167,3.029,23.261&#10;&#9;&#9;c-2.024,0-4.041-2.024-5.054-3.036l-15.171-12.135C249.871,112.78,234.703,102.667,233.691,100.641L233.691,100.641z&#10;&#9;&#9; M232.68,98.618v0.008l6.065-50.577c5.061,4.045,11.126,12.137,14.162,17.194c2.021,3.037,4.045,6.069,6.069,10.118&#10;&#9;&#9;c1.013,2.021,5.054,10.114,5.054,10.114L232.68,98.618L232.68,98.618z M186.153,52.093L186.153,52.093&#10;&#9;&#9;c0-1.012,11.126-30.344,13.144-31.356c2.024,1.012,7.081,3.037,10.117,5.061c3.037,2.021,6.065,3.033,9.103,5.058&#10;&#9;&#9;c3.036,2.024,7.077,5.055,9.102,7.079l8.09,7.078l0,0l0,0l-25.281,4.049C202.333,50.073,194.243,51.081,186.153,52.093&#10;&#9;&#9;L186.153,52.093z M104.224,248.313L104.224,248.313l13.151-32.367l20.229,25.289c1.012,2.025,2.021,3.037,3.032,5.055&#10;&#9;&#9;c2.021,3.035,7.082,8.098,8.094,10.121c-8.094,0-17.195-1.012-24.277-2.023C115.351,252.361,109.277,249.324,104.224,248.313&#10;&#9;&#9;L104.224,248.313z M27.353,130.988L27.353,130.988c0-14.163,5.057-32.37,9.105-43.497l31.351,13.15l-10.114,8.09&#10;&#9;&#9;c-1.012,1.013-3.029,2.025-5.053,4.049c-1.013,1.013-3.037,2.024-5.062,3.037L27.353,130.988L27.353,130.988z M184.129,51.081&#10;&#9;&#9;L184.129,51.081l-31.358-40.457c7.082,0,17.195,1.012,24.281,3.035c4.041,1.01,16.18,4.045,20.228,6.069L184.129,51.081&#10;&#9;&#9;L184.129,51.081z M199.304,247.301L199.304,247.301l-13.15-32.363l49.563,7.078c-1.013,2.023,0,1.012-2.024,2.023&#10;&#9;&#9;c-1.012,1.014-1.012,1.014-2.024,2.025l-8.09,7.078C218.517,237.188,204.357,245.283,199.304,247.301L199.304,247.301z&#10;&#9;&#9; M199.304,178.525c2.018-5.057,16.176-40.459,17.188-41.468l13.15,29.33C228.631,167.4,202.333,177.514,199.304,178.525&#10;&#9;&#9;L199.304,178.525z M216.492,130.988c-1.013-2.024-16.176-38.436-17.188-41.473c7.074,2.024,25.278,10.114,30.339,11.126&#10;&#9;&#9;c-1.012,3.037-2.024,5.062-3.036,8.098L216.492,130.988L216.492,130.988z M153.786,67.267l30.343-12.137l11.126,30.344&#10;&#9;&#9;C194.243,84.462,154.799,69.291,153.786,67.267L153.786,67.267z M106.248,85.474L106.248,85.474l12.135-30.344&#10;&#9;&#9;c2.024,0,12.139,5.055,15.172,6.067c4.049,2.024,10.114,4.045,14.163,6.065c-2.024,2.028-17.196,8.097-21.241,9.106&#10;&#9;&#9;C121.42,78.393,110.29,83.45,106.248,85.474L106.248,85.474z M71.857,166.387l13.15-30.341L98.151,167.4&#10;&#9;&#9;c1.012,3.031,3.036,8.09,4.049,11.125L71.857,166.387L71.857,166.387z M153.786,199.766l41.469-17.195l-11.126,30.348&#10;&#9;&#9;L153.786,199.766L153.786,199.766z M118.383,212.918l-12.135-30.348l41.47,17.195L118.383,212.918L118.383,212.918z&#10;&#9;&#9; M71.857,100.641L102.2,89.515l-17.192,41.473l-10.114-23.261C73.882,105.703,72.869,103.678,71.857,100.641z" id="el__kNNJENQNI"/>
</g>
<g id="el_94AGzZB_58">
	<g id="el_z6yl6stZtf">
		<text id="el_OPaMkx5G_J"><tspan x="0" y="0" font-family="'Convection-Bold'" font-size="25" id="el_0-Gm0FqZsO"> </tspan><tspan x="6.006" y="0" font-family="'Convection-Bold'" font-size="25" id="el_LiVlkftUTz">VS 1</tspan></text>
	</g>
	<g id="el_GzFug8uxbp">
		<circle fill-rule="evenodd" clip-rule="evenodd" cx="87.579" cy="103.666" r="1.245" id="el_5o9Fl5OzFn"/>
	</g>
	<g id="el_70NIsnZyJb">
		<circle fill-rule="evenodd" clip-rule="evenodd" cx="96.5" cy="119.245" r="1.245" id="el_DFfzRuCKxK"/>
	</g>
</g>
<g id="el_1KA9y4dAxH">
	<text id="el_zqQkxi0vmr"><tspan x="0" y="0" font-family="'Convection-Bold'" font-size="25" id="el_tPyjgsbRNx"> </tspan><tspan x="6.006" y="0" font-family="'Convection-Bold'" font-size="25" id="el_dt_ShhrWaB">VS 2</tspan></text>
	<circle fill-rule="evenodd" clip-rule="evenodd" cx="183.464" cy="203" r="1.245" id="el_U7x0nHYiXwx"/>
	<circle fill-rule="evenodd" clip-rule="evenodd" cx="198.579" cy="209.5" r="1.245" id="el_PBeSZm_iX0b"/>
	<circle fill-rule="evenodd" clip-rule="evenodd" cx="206.834" cy="204.255" r="1.245" id="el_XE48ivFweWe"/>
	
		<ellipse fill-rule="evenodd" clip-rule="evenodd" cx="203.896" cy="198.813" rx="1.245" ry="0.625" id="el_IxR_6bLlytI"/>
</g>
</svg>