<?xml version="1.0" encoding="utf-8"?>
<!-- Generator: Adobe Illustrator 16.0.0, SVG Export Plug-In . SVG Version: 6.00 Build 0)  -->
<!DOCTYPE svg PUBLIC "-//W3C//DTD SVG 1.1//EN" "http://www.w3.org/Graphics/SVG/1.1/DTD/svg11.dtd">
<svg version="1.1" xmlns="http://www.w3.org/2000/svg" xmlns:xlink="http://www.w3.org/1999/xlink" x="0px" y="0px" width="100px"
	 height="100px" viewBox="0 0 100 100" enable-background="new 0 0 100 100" xml:space="preserve">
<g id="Layer_1">
	<path fill-rule="evenodd" clip-rule="evenodd" fill="#0A3D61" d="M0.5,36.248c0.523,0.649,1.022,0.841,1.496,1.38
		c0.865,0.984,2.245,1.886,3.104,2.866c0.238,0.272,0.465,0.431,0.765,0.674c0.795,0.647,1.986,1.917,3.067,2.798
		c0.8,0.652,1.555,1.516,2.333,2.199c0.276,0.242,0.511,0.409,0.797,0.646c0.331,0.275,0.454,0.506,0.767,0.777
		c0.277,0.24,0.523,0.402,0.798,0.645c0.293,0.259,0.4,0.475,0.704,0.73l2.361,2.07c0.322,0.298,0.409,0.485,0.768,0.775
		c1.575,1.273,3.066,2.959,4.634,4.218l11.535,10.589c0.297,0.262,0.546,0.433,0.854,0.698c0.288,0.249,0.424,0.475,0.71,0.725
		l1.564,1.424c0.298,0.248,0.571,0.44,0.851,0.702L50,81.501c0.539-0.371,1.019-0.759,1.505-1.315l2.334-2.099
		c0.343-0.281,0.458-0.48,0.771-0.771c0.264-0.247,0.506-0.424,0.791-0.654l3.063-2.8c0.31-0.269,0.446-0.506,0.769-0.775
		l1.563-1.424c0.286-0.236,0.521-0.407,0.796-0.648c0.313-0.274,0.433-0.5,0.769-0.776c0.275-0.227,0.538-0.408,0.788-0.652
		l5.401-4.995c1.76-1.425,4.444-4.246,6.191-5.648l3.065-2.796c1.104-0.901,2.021-1.94,3.125-2.852l2.214-2.095
		c0.268-0.259,0.555-0.451,0.853-0.703l2.269-2.151c0.299-0.266,0.546-0.435,0.856-0.698c0.313-0.265,0.401-0.467,0.704-0.729
		c0.278-0.243,0.521-0.399,0.797-0.645c0.291-0.257,0.403-0.475,0.705-0.729c0.298-0.252,0.577-0.437,0.853-0.702
		c0.309-0.299,0.384-0.45,0.712-0.721l7.063-6.434c0.518-0.6,1.007-0.774,1.544-1.44l-0.092-0.129
		c-0.58-0.647-4.679-3.334-5.666-4.074c-3.496-2.622-8.055-5.768-11.638-8.289c-1.005-0.708-1.926-1.349-2.91-2.073
		c-0.496-0.366-0.973-0.692-1.484-1.062c-0.249-0.181-0.46-0.332-0.701-0.516c-0.435-0.332-0.449-0.253-1.088-0.253
		c-6.629,0-51.226-0.125-52.286,0.005c-0.607,0.074-11.629,8.105-13.294,9.295C9.633,29.657,0.759,35.755,0.5,36.248L0.5,36.248z
		 M71.527,61.182l6.667-7.075c0.163-0.146,0.265-0.193,0.426-0.346l4.692-5.042c0.281-0.31,0.526-0.433,0.8-0.742l7.113-7.484
		c0.817-0.951,1.259-1.281,1.624-1.695c0.421-0.478,1.911-2.259,2.426-2.323c0.797-0.101,2.372,0.008,3.265-0.004l-1.697,1.652
		c-0.315,0.278-0.598,0.472-0.915,0.749c-0.315,0.276-0.438,0.504-0.769,0.777l-1.691,1.518c-0.622,0.5-1.054,1.017-1.687,1.523
		c-0.188,0.15-0.315,0.239-0.478,0.407l-1.275,1.161c-0.327,0.285-0.477,0.536-0.829,0.827c-1.271,1.051-2.358,2.22-3.376,3.042
		l-6.365,5.802c-0.202,0.221-0.166,0.223-0.366,0.407c-0.293,0.271-0.557,0.438-0.855,0.697L71.527,61.182L71.527,61.182z
		 M28.299,61.027l-3.361-3.085c-0.307-0.283-0.604-0.465-0.916-0.749c-0.326-0.297-0.409-0.484-0.767-0.776
		c-0.312-0.253-0.644-0.481-0.907-0.759c-1.052-1.108-2.249-1.998-3.308-3.103c-0.245-0.256-0.557-0.473-0.845-0.707
		c-0.356-0.29-0.486-0.543-0.827-0.827l-1.686-1.525c-1.617-1.309-3.328-3.123-5.057-4.57c-0.322-0.27-0.463-0.506-0.77-0.775
		c-0.308-0.27-0.623-0.474-0.912-0.753l-5.832-5.34c-0.336-0.286-0.479-0.54-0.829-0.827c-0.393-0.322-0.604-0.409-0.826-0.773
		c0.59,0.006,2.973-0.063,3.355,0.037c0.533,0.141,3.434,3.581,4.001,4.065l2.354,2.401c0.283,0.324,0.49,0.569,0.771,0.89
		c0.287,0.326,0.513,0.44,0.801,0.744l9.354,9.889c0.28,0.318,0.489,0.603,0.799,0.857l3.912,4.049
		C27.333,59.932,27.728,60.527,28.299,61.027L28.299,61.027z M68.32,63.78c0.261-0.616,5.922-9.234,6.616-10.363
		c0.69-1.123,1.411-2.237,2.16-3.363l8.691-13.579l8.538,0.039c-0.402,0.28-1.009,1.156-1.627,1.694l-3.207,3.431
		c-0.728,0.623-1.017,1.072-1.605,1.713l-8.169,8.526c-0.253,0.293-0.498,0.62-0.792,0.87c-0.878,0.745-0.936,1.03-1.607,1.709
		l-5.708,5.9C71.1,60.817,68.847,63.511,68.32,63.78L68.32,63.78z M31.84,64.035c-0.119-0.136-0.243-0.298-0.387-0.438
		c-0.177-0.172-0.299-0.229-0.48-0.402c-0.639-0.614-0.636-0.83-1.616-1.703l-9.052-9.527c-0.281-0.327-0.49-0.568-0.771-0.889
		l-1.672-1.757c-0.292-0.332-0.56-0.481-0.852-0.803l-1.193-1.353c-1.139-1.034-5.055-5.354-5.35-5.596L5.65,36.464l8.534,0.016
		c0.32,0.589,0.746,1.159,1.104,1.746c2.426,3.964,5.344,8.141,7.729,12.044c0.732,1.198,1.482,2.292,2.249,3.495
		C27.182,56.774,30.297,61.343,31.84,64.035L31.84,64.035z M49.513,80.432c-0.315-0.181-0.369-0.248-0.618-0.539
		c-0.249-0.29-0.345-0.35-0.632-0.583c-0.235-0.191-0.462-0.352-0.66-0.561l-1.8-1.733c-0.397-0.388-0.886-0.655-1.259-1.07
		l-6.198-5.743c-0.403-0.4-0.865-0.64-1.256-1.073l-1.869-1.777c-0.217-0.188-0.383-0.308-0.612-0.496
		c-0.816-0.671-1.435-1.608-2.096-2.65l-9.286-14.467c-2.434-3.863-5.014-7.631-7.355-11.483c0.403,0.379,0.724,0.838,1.176,1.204
		c1.21,0.981,2.294,2.48,3.501,3.579c1.059,0.965,1.541,1.49,2.374,2.381c0.414,0.442,0.756,0.817,1.183,1.25
		c0.245,0.249,0.394,0.321,0.657,0.559l2.854,3.009c0.416,0.439,0.833,0.743,1.253,1.18l6.413,6.64
		c0.229,0.228,0.424,0.328,0.662,0.551c0.974,0.911,2.527,2.886,3.474,3.604c0.728,0.552,1.69,1.709,2.348,2.41
		c0.366,0.392,0.791,0.907,1.199,1.231c0.575,0.457,0.548,0.69,0.872,1.446C45.708,71.667,47.771,76.079,49.513,80.432
		L49.513,80.432z M50.566,80.325c0.412-1.265,4.943-11.554,5.639-13.207c0.469-1.112,1.941-2.678,2.688-3.279
		c0.885-0.712,2.135-2.142,2.954-3.016l1.201-1.121c0.742-0.668,1.561-1.631,2.261-2.384c0.775-0.833,1.601-1.536,2.387-2.368
		c0.782-0.826,1.505-1.657,2.312-2.446c0.235-0.23,0.427-0.327,0.665-0.551l2.848-3.013c0.401-0.417,0.807-0.701,1.203-1.12
		c0.795-0.841,1.513-1.605,2.311-2.444l7.021-7.05c-0.581,1.039-1.225,1.904-1.852,2.925l-5.527,8.615
		c-1.278,1.959-2.467,3.899-3.719,5.781c-1.895,2.846-3.73,5.973-5.531,8.606c-0.9,1.316-0.839,1.604-2.123,2.627l-4.927,4.476
		c-0.277,0.29-0.288,0.361-0.6,0.616l-5.538,5.079c-0.4,0.399-0.879,0.648-1.257,1.069L50.566,80.325L50.566,80.325z M57.201,64.86
		l12.583-28.384c4.716-0.027,10.731-0.092,15.346,0.01c-0.814,1.138-2.054,2.041-2.619,2.646c-1.196,1.281-2.212,2.405-3.509,3.568
		c-0.309,0.275-0.581,0.6-0.867,0.904l-2.593,2.718c-1.008,0.854-1.723,1.689-2.641,2.666c-0.313,0.333-0.548,0.586-0.859,0.911
		c-0.303,0.314-0.578,0.466-0.882,0.775c-0.612,0.623-1.118,1.19-1.721,1.821c-0.596,0.624-1.059,1.245-1.76,1.777
		c-0.908,0.693-2.405,2.632-3.426,3.543c-0.407,0.364-0.573,0.461-0.93,0.839c-0.311,0.334-0.543,0.578-0.857,0.912
		c-0.601,0.636-1.119,1.185-1.722,1.818c-0.321,0.34-0.616,0.51-0.935,0.833C59.15,62.89,57.759,64.551,57.201,64.86L57.201,64.86z
		 M42.771,64.935l-1.798-1.729c-0.609-0.604-1.128-1.194-1.72-1.82c-0.947-1.003-0.779-0.912-1.778-1.76
		c-1.024-0.866-2.213-2.545-3.497-3.58c-0.832-0.671-2.172-2.422-3.513-3.565c-0.557-0.475-1.152-1.195-1.676-1.753l-3.506-3.573
		c-0.525-0.546-1.173-1.355-1.733-1.804c-0.764-0.613-1.164-1.12-1.774-1.766l-6.155-6.232c-0.293-0.306-0.571-0.536-0.778-0.889
		c4.574-0.017,10.89-0.093,15.339,0.024L42.771,64.935L42.771,64.935z M50,80.463c-0.515-0.858-3.456-7.957-4.099-9.481
		c-0.289-0.686-1.995-4.448-2.015-4.828c-0.034-0.626,0.986-4.579,1.191-5.537l3.655-16.605c0.094-0.421,1.043-5.104,1.293-5.489
		c0.383,1.794,6.088,27.447,6.018,27.795l-4,9.454C51.634,76.742,50.447,79.854,50,80.463L50,80.463z M43.499,65.376L30.687,36.462
		l19.253,0.017L43.499,65.376L43.499,65.376z M56.452,65.385c-0.014-0.023-0.029-0.056-0.035-0.071l-5.574-25.155
		c-0.259-1.103-0.655-2.585-0.787-3.685l19.245,0.006L56.452,65.385L56.452,65.385z M1.544,35.987
		c0.232-0.143,0.687-0.502,0.91-0.661c3.201-2.28,7.573-5.265,10.538-7.507l3.863-2.72c-0.192,0.307-0.171,0.238-0.464,0.476
		l-2.996,2.752c-0.352,0.288-0.489,0.541-0.824,0.831c-0.32,0.277-0.61,0.47-0.915,0.75l-2.508,2.356
		c-1.087,0.9-3.77,3.686-4.42,3.752C4.119,36.078,2.162,36.052,1.544,35.987L1.544,35.987z M95.166,36.014
		c-0.369,0-2.99-2.511-3.153-2.698l-6.728-6.212c-0.288-0.284-2.018-1.739-2.251-2.094c1.225,0.723,10.301,7.288,11.668,8.289
		l3.742,2.696L95.166,36.014L95.166,36.014z M48.637,20.337c-1.729,0.674-3.674,1.186-5.465,1.791
		c-1.769,0.597-3.621,1.169-5.448,1.76c-3.386,1.095-2.376,1.353-4.855-0.509c-0.536-0.402-3.677-2.659-4.061-3.077L48.637,20.337
		L48.637,20.337z M71.186,20.294c-0.103,0.129-0.053,0.07-0.183,0.193l-5.014,3.742c-0.935,0.708-0.586,0.623-1.108,0.509
		l-8.133-2.647c-1.523-0.494-4.011-1.132-5.395-1.788L71.186,20.294L71.186,20.294z M85.677,36.014l-4.882-12.307l13.402,12.298
		L85.677,36.014L85.677,36.014z M5.787,35.979l2.531-2.335c0.743-0.603,0.778-0.798,1.678-1.53c0.384-0.313,0.422-0.387,0.782-0.762
		l2.583-2.291c0.316-0.269,0.442-0.505,0.766-0.78l5.073-4.557l-4.915,12.28L5.787,35.979L5.787,35.979z M15.008,35.978
		c0.864-0.47,18.611-10.382,19.411-10.689l-4.303,10.717L15.008,35.978L15.008,35.978z M70.024,36.013
		c-0.452-0.22-0.997-2.08-1.215-2.627c-0.879-2.205-2.634-6.271-3.219-8.116l14.543,8.026c0.955,0.562,4.271,2.249,4.826,2.71
		L70.024,36.013L70.024,36.013z M50.484,35.994c2.413-1.824,4.835-3.578,7.294-5.359l3.649-2.663
		c0.612-0.479,1.202-0.891,1.853-1.356l1.823-1.281l4.251,10.671L50.484,35.994L50.484,35.994z M30.605,36.007l4.241-10.655
		c0.405,0.191,0.648,0.428,1,0.696c0.293,0.224,0.603,0.431,0.903,0.648c1.236,0.892,12.454,8.975,12.723,9.321L30.605,36.007
		L30.605,36.007z M15.052,35.39c0.313-1.074,0.929-2.382,1.347-3.44l3.406-8.755l4.03-2.833l4.263,0.043l5.975,4.522L15.052,35.39
		L15.052,35.39z M65.896,24.95c0.274-0.351,2.324-1.815,2.7-2.095c0.373-0.277,3.057-2.422,3.244-2.487l4.583,0.043l3.459,2.395
		l5.044,12.592L68.263,26.22C67.452,25.796,66.662,25.248,65.896,24.95L65.896,24.95z M35.474,25.142
		c0.364-0.217,14.392-4.703,14.526-4.702c0.455,0.005,6.322,2.005,7.307,2.32l7.097,2.34c0.012-0.022,0.05,0.026,0.071,0.042
		L50,35.728c-0.474-0.261-0.553-0.363-1-0.692c-0.323-0.238-0.546-0.388-0.908-0.645c-0.622-0.439-1.159-0.862-1.787-1.312
		l-9.099-6.623C36.869,26.214,35.688,25.414,35.474,25.142z"/>
</g>
<g id="Layer_2">
	<g>
		
			<polygon opacity="0.05" fill="#FFEC00" stroke="#1A1A18" stroke-width="0.5669" stroke-miterlimit="22.9256" enable-background="new    " points="
			23.635,19.857 76.5,19.875 100,36.234 50,81.501 0,36.313 		"/>
	</g>
</g>
</svg>
