<svg width="147" height="141" viewBox="0 0 147 141" fill="none" xmlns="http://www.w3.org/2000/svg">
<path d="M2.53052 140.431V124.152H3.34228V140.431L3.07253 140.914L2.53052 140.431ZM3.07253 140.914H2.53052V140.431L3.07253 140.914ZM21.1053 140.914H3.07253V140.191H21.1053H21.3751L21.1053 140.914ZM21.3751 140.191L23.5305 140.914H21.1179L21.3751 140.191ZM7.92296 135.632L21.3776 140.189L21.1179 140.914L7.66329 136.115L7.39354 135.875L7.92296 135.632ZM7.65068 136.115H7.39102L7.39354 135.875L7.65068 136.115ZM3.34228 124.152L8.1927 135.632L7.39354 135.872L2.53052 124.392V124.152H3.34228ZM2.53052 124.152V121.982L3.34228 124.152H2.53052Z" fill="black"/>
<path d="M145.599 140.431V124.152H146.423V140.431L145.868 140.914L145.599 140.431ZM146.423 140.431V140.914H145.868L146.423 140.431ZM127.576 140.191H145.871L145.868 140.914H127.576V140.191ZM127.576 140.914H125.423L127.576 140.191V140.914ZM141.302 136.115L127.846 140.914L127.576 140.191L141.033 135.635L141.575 135.875L141.302 136.115ZM141.559 135.875V136.115H141.3L141.559 135.875ZM146.423 124.394L141.559 135.875L140.76 135.655L145.599 124.152H146.41V124.392L146.423 124.394ZM145.599 124.152L146.423 121.982V124.152H145.599Z" fill="black"/>
<g filter="url(#filter0_d_954_3)">
<path d="M3.34228 0.670807V16.7077H2.53052V0.670807L3.07253 0.188782L3.34228 0.670807ZM2.53052 0.670807V0.188782H3.07253L2.53052 0.670807ZM21.1053 0.910698H3.07253V0.188782H21.1053L21.3751 0.910698H21.1053ZM21.1053 0.188782H23.5305L21.3751 0.910698L21.1053 0.188782ZM7.65068 4.74224L21.1053 0.188782L21.3751 0.910698L7.92044 5.45294L7.37842 4.98213L7.65068 4.74224ZM7.39354 4.98437V4.74224H7.65068L7.39354 4.98437ZM2.53052 16.7077L7.39354 4.98437L8.1927 5.21529L3.34228 16.9498L2.53052 16.7077ZM3.34228 16.9498L2.53052 18.8555V16.7099L3.34228 16.9498Z" fill="black"/>
</g>
<path d="M146.421 0.670803V16.7076H145.596V0.670803L145.866 0.188782L146.421 0.670803ZM145.866 0.188782H146.421V0.670803L145.866 0.188782ZM127.576 0.188782H145.866L145.869 0.910694H127.576V0.188782ZM127.576 0.910694L125.421 0.188782H127.576V0.910694ZM141.028 5.45515L127.576 0.910694L127.846 0.188782L141.301 4.74221L141.56 4.9821L141.028 5.45515ZM141.301 4.74221H141.56V4.9821L141.301 4.74221ZM145.596 16.9497L140.759 5.22647L141.57 4.98658L146.421 16.7098L145.596 16.9497ZM146.421 16.7076V18.8531L145.596 16.9497L146.421 16.7076Z" fill="black"/>
<path d="M52.0911 124.877L69.6596 127.508L69.3966 128.205L51.8281 125.596V125.358L52.0911 124.877ZM37.3884 115.853L52.0788 124.877L51.8256 125.355L37.1254 116.332H36.8624L37.3884 115.853ZM36.8624 116.332L35.287 114.419L37.386 115.855L36.8624 116.332ZM49.1982 130.594L36.8624 116.332L37.6391 115.853L49.9872 130.116L49.7242 130.832L49.1982 130.594ZM49.7242 130.832H49.4637L49.2105 130.594L49.7242 130.832ZM69.6596 128.203L49.7267 130.835L49.4637 130.118L69.3966 127.508H69.6596V128.203ZM69.6596 127.508L72.287 127.963L69.6596 128.203V127.508Z" fill="black"/>
<path d="M99.5071 10.5089L112.1 24.7821L111.321 25.2496L98.9784 10.7471L99.2415 10.2796L99.5071 10.5089ZM99.2415 10.2796H99.5071V10.5089L99.2415 10.2796ZM79.2897 12.6507L99.2415 10.2796V10.9876L79.5528 13.3676H79.2897V12.6507ZM79.2897 13.3676L76.6737 13.1382L79.2897 12.6507V13.3676ZM96.8911 16.2262L79.3044 13.3676L79.5577 12.6507L96.8935 15.5093H97.1468L96.8911 16.2262ZM111.321 25.2496L96.6255 16.2262L97.1443 15.5093L111.847 24.7821H112.1L111.321 25.2496ZM112.1 24.7821L113.674 26.6834L111.321 25.2474L112.1 24.7821Z" fill="black"/>
<path d="M19.5803 48.4055L16.2692 64.8265L15.4389 64.5809L18.7499 48.1599L19.5803 48.4055ZM30.0421 34.6866L19.5777 48.4078L18.7473 48.1622L29.4877 34.4409V34.1953L30.0421 34.6866ZM29.4877 34.193L31.6899 32.7123L30.0396 34.6843L29.4877 34.193ZM12.9684 45.7173L29.4877 34.1838L30.0421 34.923L13.2444 46.4473L12.6899 46.2017L12.9684 45.7173ZM12.6925 46.1994V45.9629L12.9684 45.7173L12.6925 46.1994ZM15.4363 64.8288L12.6925 46.1994L13.5229 45.9629L16.2666 64.5809V64.8173H15.4363V64.8288ZM16.2666 64.8288L15.9907 67.2829L15.4363 64.8288H16.2666Z" fill="black"/>
<path d="M136.271 95.1396L119.751 106.664L119.197 106.17L135.703 94.646L136.546 94.8917L136.271 95.1396ZM136.549 94.894V95.1396H136.273L136.549 94.894ZM133.514 76.2737L136.549 94.894L135.716 94.8917L132.694 76.2737H133.514ZM132.684 76.2737L133.238 73.8196L133.514 76.2737H132.684ZM129.661 92.697L132.684 76.2737L133.514 76.5125L130.479 92.6993L130.213 92.9449L129.661 92.697ZM130.479 92.6993V92.9426L130.213 92.9449L130.479 92.6993ZM119.197 106.17L129.661 92.4491L130.216 92.9426L119.751 106.664L119.197 106.17ZM119.751 106.664L117.549 108.39L119.199 106.17L119.751 106.664Z" fill="black"/>
<path d="M19.735 93.2057L30.3075 106.924L29.5019 107.418L19.1886 93.6992L18.9167 93.4536L19.735 93.2057ZM19.1886 93.6992H18.9268V93.4536L19.1886 93.6992ZM16.4718 77.0338L19.735 93.4513H18.9294L15.6534 77.2793V77.0338H16.4718ZM15.6534 77.0338L15.9254 74.5802L16.4718 77.0338H15.6534ZM12.9468 95.6501L15.6509 77.0361L16.4693 77.2817L13.7651 95.6501L13.2187 96.1436L12.9468 95.6501ZM13.2187 96.1436L12.9493 95.898V95.6524L13.2187 96.1436ZM29.7738 107.418L13.2187 96.1436L13.7651 95.4045L30.3202 106.679V106.924L29.7738 107.418ZM30.3202 106.924L31.9468 108.896L29.7764 107.415L30.3202 106.924Z" fill="black"/>
<path d="M135.775 45.4499L133.329 63.8145H132.51L134.956 45.2044L135.775 44.9589V45.4499ZM135.775 44.9589L136.047 45.2021L135.775 45.4499V44.9589ZM119.209 33.6849L135.775 44.9589L135.228 45.6955L118.675 34.176L119.209 33.6849ZM118.675 34.176L117.047 32.2186L119.209 33.6872L118.675 34.176ZM129.255 47.6574L118.675 34.176L119.209 33.6849L129.801 47.4096L129.255 47.6574ZM132.51 64.0623L128.982 47.6597L129.801 47.4142L133.329 63.8145L132.51 64.0623ZM133.329 63.8145L133.057 66.279L132.51 64.0623L133.329 63.8145Z" fill="black"/>
<path d="M97.5139 124.607L112.306 115.345L112.839 115.824L98.046 125.086H97.7812L97.5139 124.607ZM80.0756 127.477L97.7787 124.389L97.7812 125.086L80.3281 128.174H80.0731L80.0756 127.477ZM80.0731 128.174L77.4299 127.936L80.0756 127.477L80.0731 128.174ZM100.16 130.327L80.0731 128.174L80.0756 127.477L100.16 129.608L100.414 130.325H100.16V130.327ZM112.836 115.824L100.424 130.327L99.8923 129.848L112.049 115.345H112.304L112.836 115.824ZM112.304 115.345L114.43 113.909L112.834 115.821L112.304 115.345Z" fill="black"/>
<path d="M49.0475 10.5229L69.1301 12.905L68.8653 13.6225L48.7827 11.2404L48.5179 10.7613L49.0475 10.5229ZM48.5179 10.7613L48.7827 10.5229H49.0376L48.5179 10.7613ZM36.3594 25.2766L48.5179 10.7613L49.3123 11.2404L36.889 25.7557L36.3594 25.2766ZM36.889 25.7557L34.7781 27.1818L36.3619 25.2788L36.889 25.7557ZM51.6955 16.4747L36.894 25.7557L36.3619 25.0382L51.1634 15.7572L51.6955 16.4747ZM69.1326 13.6247L51.4307 16.4747L51.1634 15.7684L68.8678 12.9072H69.1326V13.6247ZM69.1326 12.9072L71.7781 13.1545L69.1326 13.6225V12.9072Z" fill="black"/>
<path d="M73.7515 121.031L70.833 105.207H71.7121L74.6169 121.031H73.7515ZM74.6169 121.031L74.3276 123.269L73.7515 121.031H74.6169ZM77.8303 105.228L74.6306 121.051H73.7515L76.9512 105.228L77.8303 104.98V105.228ZM76.0857 102.267L77.8303 104.98L76.9539 105.478L75.2066 102.765V102.517L76.0857 102.267ZM77.8303 80.5102L76.083 102.517H75.2066L76.9512 80.5102H77.8303ZM74.6197 75.0728L77.8194 80.5102L76.9539 80.7579L73.7542 75.5705V75.0728H74.6197ZM73.7542 75.0728L74.3385 74.3275L74.6306 75.0728H73.7542ZM70.833 80.5102L73.7542 75.0728L74.6306 75.5705L71.7121 80.7579L70.833 80.5102ZM72.5803 102.494L70.833 80.5102H71.7121L73.4594 102.494V102.741L72.5803 102.494ZM70.833 104.98L72.5803 102.267L73.4594 102.765L71.7121 105.478L70.833 105.23V104.98Z" fill="black"/>
<path d="M74.6211 20.0579L71.7152 35.8816H70.8357L73.7554 20.0579H74.6211ZM73.7554 20.0579L74.3398 17.595L74.6321 20.0579H73.7554ZM76.9536 35.8816L73.7554 20.0579H74.6321L77.833 35.8816V36.1293L76.9536 35.8816ZM75.2056 38.3446L76.9536 35.6317L77.833 36.1293L76.0851 38.6038H75.2056V38.3446ZM76.9536 60.3395L75.2056 38.6038L76.0851 38.3561L77.833 60.3511V60.5895L76.9536 60.3395ZM73.7526 65.5385L76.9536 60.3395L77.833 60.5872L74.6321 65.7862H73.7526V65.5385ZM74.6211 65.7862L74.3289 66.5199L73.7526 65.7862H74.6211ZM71.7124 60.3395L74.6184 65.5385L73.7526 65.7862L70.833 60.5872V60.3395H71.7124ZM73.4604 38.5922L71.7124 60.3395H70.833L72.581 38.3446H73.4604V38.5922ZM71.7124 35.6317L73.4604 38.3446L72.581 38.5922L70.833 36.1293L70.8357 35.8816L71.7124 35.6317Z" fill="black"/>
<path d="M124.089 70.7652L108.199 73.1109L107.938 72.4765L123.827 70.1207H124.089V70.7652ZM124.089 70.1207L126.173 70.5511L124.089 70.7652V70.1207ZM108.199 67.775L124.089 70.1207L123.827 70.7652L107.938 68.4195V67.775H108.199ZM105.065 69.2701L107.938 67.775L108.19 68.4095L105.592 69.9046H105.331L105.065 69.2701ZM83.4419 67.775L105.326 69.2701V69.9146L83.1807 68.4195V67.775H83.4419ZM77.6981 70.1207L83.1807 67.775L83.4322 68.4195L78.2229 70.7652H77.6981V70.1207ZM77.6981 70.7652L77.1732 70.5511L77.6981 70.1207V70.7652ZM83.1807 73.1109L77.7103 70.7652L78.2229 70.1207L83.4444 72.4765V73.1109H83.1807ZM105.326 71.832L83.4419 73.1109L83.1807 72.4785L105.326 71.1975H105.588L105.326 71.832ZM107.936 73.1109L105.063 71.83L105.588 71.1955L108.197 72.6806V73.1109H107.936ZM108.199 73.1109L107.938 73.3251L107.936 73.1109H108.199Z" fill="black"/>
<path d="M25.1815 70.1207L41.0023 72.4765L40.7522 73.1109L24.9313 70.7652V70.1207H25.1815ZM24.9313 70.7652L22.5973 70.5511L24.9313 70.1207V70.7652ZM41.0023 68.4215L25.1815 70.7672L24.9313 70.1207L40.7522 67.777H41.0023V68.4215ZM43.3388 69.9066L40.4923 68.4115L41.0023 67.777L43.5987 69.2721V69.9066H43.3388ZM65.3724 68.4215L43.5987 69.9166L43.3388 69.2721L65.3724 67.777H65.6323L65.3724 68.4215ZM70.5554 70.7652L65.1247 68.4195L65.6347 67.775L70.8177 70.1207V70.7652H70.5554ZM70.8177 70.1207L71.5973 70.5511L70.8177 70.7652V70.1207ZM65.1222 72.4765L70.5529 70.1207L70.8128 70.7652L65.6299 73.1109H65.37L65.1222 72.4765ZM43.5987 71.1955L65.3846 72.4765V73.1109L43.3388 71.83V71.1955H43.5987ZM40.4923 72.6806L43.3388 71.1955L43.5987 71.83L41.0023 73.1109H40.7425L40.4923 72.6806ZM41.0023 73.1109V73.3251L40.7522 73.1109H41.0023Z" fill="black"/>
<path d="M38.8909 105.901L48.2807 92.9244L49.0685 93.1699L39.6665 106.395L38.8909 105.901ZM39.6665 106.395L37.5771 107.627L38.8909 105.901L39.6665 106.395ZM52.7236 97.0924L39.6665 106.395L39.1405 105.656L52.1976 96.6012L52.9854 97.0947L52.7236 97.0924ZM53.7634 93.9113L52.9854 97.0947L52.2 96.8491L52.9878 93.9136V93.668L53.7634 93.9113ZM70.2236 79.9359L53.5114 94.1569L52.9854 93.6657L69.6976 79.4425L70.4731 79.6881L70.2236 79.9359ZM70.4731 79.6881L70.4756 79.9336L70.2236 79.9359L70.4731 79.6881ZM72.3154 74.0511L70.4731 79.6881L69.7 79.4517L71.5398 73.8032L71.7918 73.5668L72.3154 74.0511ZM71.7894 73.5576L72.5771 73.3212L72.3154 74.0511L71.7894 73.5576ZM66.0425 75.52L71.7894 73.5576L72.0511 74.299L66.3043 76.2591L65.7783 75.52H66.0425ZM51.422 92.1853L65.7783 75.52L66.5685 76.0135L51.9456 92.6788H51.6838L51.422 92.1853ZM48.5425 92.6788L51.6838 91.9397V92.6788L48.792 93.4178L48.2807 92.9244L48.5425 92.6788ZM48.2807 92.9244V92.6788H48.5425L48.2807 92.9244Z" fill="black"/>
<path d="M109.851 35.194L96.4317 44.4964L96.168 43.7573L109.323 34.7028L109.851 35.194ZM109.321 34.7005L111.162 33.2202L109.851 35.1802L109.321 34.7005ZM99.8506 47.689L109.323 34.7028L109.853 35.194L100.647 48.171L100.383 48.4165L99.8506 47.689ZM100.632 48.171H100.378V48.4165L100.632 48.171ZM96.9617 48.171L100.114 47.689L100.378 48.4165L97.2131 48.91L96.9592 48.4165V48.171H96.9617ZM82.2163 64.8363L96.9494 48.4188L97.4793 48.9123L82.7463 65.3182V65.5753L82.2163 64.8363ZM76.6923 66.5508L82.4825 64.8248L82.7463 65.5638L76.9561 67.2783L76.4261 66.7849L76.6923 66.5508ZM76.9561 67.2898L76.1624 67.5262L76.4261 66.7986L76.9561 67.2898ZM79.0636 61.4073L77.2223 67.0442L76.4286 66.7986L78.2699 61.1617L79.0636 61.4073ZM95.9018 47.4434L78.7875 61.6528L78.2699 61.1594L95.3718 46.702L95.9018 47.1955V47.4434ZM96.6955 44.2485L95.9018 47.1955L95.1204 46.9499L95.9018 44.0029L96.1655 43.7665L96.6955 44.2485ZM95.9018 44.0029V43.7573H96.168L95.9018 44.0029Z" fill="black"/>
<path d="M109.323 106.395L96.1669 97.0924L96.4307 96.599L109.851 105.653V105.899L109.323 106.395ZM109.853 105.901L111.165 107.627L109.323 106.395L109.853 105.901ZM100.634 92.9244L109.853 105.901L109.323 106.395L99.8498 93.17L100.367 92.6765L100.634 92.9244ZM97.2146 91.9375L100.38 92.6788L100.116 93.4156L96.9631 92.6765L97.2146 91.9375ZM82.7467 75.5201L97.4808 92.1854L96.9508 92.6788L82.2167 76.0135L82.7467 75.5201ZM76.9561 73.5577L82.7467 75.5201L82.4829 76.2568L76.6923 74.2968L76.4286 74.0512L76.9561 73.5577ZM76.4286 74.0512L76.1648 73.3236L76.9586 73.56L76.4286 74.0512ZM78.27 79.6881L76.4286 74.0512L77.21 73.8056L79.0515 79.454L78.27 79.936V79.6881ZM95.3855 94.1569L78.27 79.936L78.8 79.4425L95.9031 93.6634V93.8884L95.3855 94.1569ZM95.9031 97.0924L95.1217 93.909H95.9031L96.6969 96.8446L96.1669 97.0924H95.9031Z" fill="black"/>
<path d="M39.6665 34.7006L49.0807 47.6891L48.2807 48.1711L38.8909 35.1941L39.6665 34.7006ZM38.8909 35.1941L37.5771 33.2225L39.6665 34.7006L38.8909 35.1941ZM52.1976 44.4942L39.1405 35.1918L39.6665 34.7006L52.7236 43.7529L52.9854 43.9985L52.1976 44.4942ZM52.7236 43.7529L52.9854 43.7552V43.9985L52.7236 43.7529ZM52.9854 47.1957L52.1976 44.2486L52.9854 44.0031L53.7609 46.9501L52.9854 47.4435V47.1957ZM69.6976 61.6416L52.9854 47.4321L53.5114 46.7045L70.2236 61.1619H70.4756L69.6976 61.6416ZM71.5374 67.0445L69.6976 61.4075L70.4756 61.1619L72.3129 66.7989L71.7869 67.2924L71.5374 67.0445ZM72.3154 66.7966L72.5771 67.5357L71.7894 67.2901L72.3154 66.7966ZM66.3067 64.8365L72.0536 66.551L71.7894 67.2901L66.0449 65.5756L65.7831 65.3185L66.3067 64.8365ZM66.0449 65.5756H65.7807L65.7831 65.3185L66.0449 65.5756ZM51.948 48.4167L66.5709 64.8342L65.7831 65.3185L51.4245 48.9102L51.6863 48.1711L51.948 48.4167ZM48.8043 47.6891L51.6863 48.1711L51.6838 48.9102L48.5425 48.4167L48.2807 48.1711L48.8043 47.6891Z" fill="black"/>
<path d="M95.759 30.3072L90.2483 33.9863L89.7196 33.2468L95.2303 29.5677H95.759V30.3072ZM95.2426 29.5654H95.4959H95.759H95.2426ZM99.1696 32.0228L95.2303 30.3072L95.759 29.5677L99.6983 31.2833V31.777L99.1696 32.0228ZM99.6983 31.281H99.9614L99.6983 31.777V31.281ZM93.6565 44.2773L98.904 31.5267L99.6959 31.7724L94.4483 44.523V44.7687L93.6565 44.2773ZM78.9614 58.9914L93.659 44.2796L94.4508 44.771L79.7434 59.4851L78.9639 59.2394V58.9914H78.9614ZM79.7434 59.4851L78.9614 60.2132V59.2371L79.7434 59.4851ZM79.7409 38.6369V59.2371H78.9614V38.6369V38.3912L79.7409 38.6369ZM85.2516 25.9001L79.7409 38.6507L78.9614 38.4049L84.4721 25.6544L85.0008 25.4087L85.2516 25.9001ZM84.4721 25.6544V25.1583L85.0008 25.4041L84.4721 25.6544ZM88.6622 27.6157L84.4721 26.1344L85.0008 25.4041L88.9278 26.8762L89.1909 27.1219L88.6622 27.6157ZM89.454 33.7383L88.409 27.3699L89.1885 27.1242L90.4967 33.4926L90.2434 33.9863L89.454 33.7383ZM90.2483 33.984L89.7196 34.2298L89.4565 33.736L90.2483 33.984Z" fill="black"/>
<path d="M53.2192 29.5655L58.7143 33.4903L58.1982 33.9841L52.6908 30.305V29.5655H53.2192ZM52.6908 29.5655H52.9538H53.2069H52.6908ZM48.7562 31.281L52.6908 29.5655L52.9562 30.305L49.0192 32.0205L48.4785 31.7748L48.7562 31.281ZM48.4908 31.7748V31.281H48.7661L48.4908 31.7748ZM54.0007 44.5253L48.4908 31.7748L49.2846 31.5291L54.792 44.2796L54.0007 44.7734V44.5253ZM68.6872 59.4852L54.0007 44.7734L54.5266 44.2796L69.2156 58.9914L69.4785 59.2371L68.6872 59.4852ZM69.4785 59.2371V60.2132L68.6872 59.4852L69.4785 59.2371ZM69.4785 38.6369V59.2371H68.6872V38.6369L69.4785 38.3912V38.6369ZM63.9711 25.6522L69.4785 38.3912L68.6872 38.6369L63.1797 25.8864L63.4427 25.4041L63.9711 25.6522ZM63.4427 25.4041L63.7057 25.1607L63.9686 25.6545L63.4427 25.4041ZM59.5081 26.8739L63.455 25.4041L63.7081 26.1322L59.7834 27.6134L59.2427 27.1197L59.5081 26.8739ZM57.9353 33.4903L59.2427 27.1197L60.0463 27.3585L58.7266 33.7384L58.1982 33.9749L57.9353 33.4903ZM58.7168 33.7384V34.2321L58.2007 33.9864L58.7168 33.7384Z" fill="black"/>
<path d="M95.2408 111.289L89.7185 107.61L90.2471 107.116L95.7571 110.795V111.289H95.2408ZM95.7571 111.289L95.4941 111.535L95.2408 111.289H95.7571ZM99.696 109.833L95.7571 111.289L95.2285 110.552L99.1674 109.094L99.696 109.339V109.833ZM99.696 109.339L99.9591 109.585L99.696 109.831V109.339ZM94.4491 96.3316L99.696 109.339L99.1674 109.565L93.6574 96.5796L94.4491 96.3316ZM79.741 81.6174L94.4466 96.3293L93.6549 96.8231L78.9591 82.1111V81.8654L79.741 81.6174ZM78.9591 81.8654L78.9616 80.8893L79.741 81.6174L78.9591 81.8654ZM78.9616 102.454L78.9591 81.8654H79.741V102.454H78.9616ZM84.4716 115.462L78.9616 102.477L79.741 102.232L85.251 115.216L84.9977 115.71L84.4716 115.462ZM85.0002 115.708L84.4716 115.954V115.46L85.0002 115.708ZM88.9268 113.981L85.0002 115.708L84.4716 114.968L88.6613 113.487L89.1899 113.733L88.9268 113.981ZM89.1899 113.733V113.981H88.9268L89.1899 113.733ZM90.4979 107.364L89.1899 113.733H88.4105L89.4554 107.364L90.2471 107.116L90.4979 107.364ZM89.453 107.364L89.716 106.625L90.2447 107.119L89.453 107.364Z" fill="black"/>
<path d="M52.6912 110.792L58.1992 107.113L58.7154 107.607L53.2196 111.285H52.6912V110.792ZM53.2196 111.285L52.9566 111.529L52.6936 111.283L53.2196 111.285ZM49.0191 109.086L52.9566 110.544L52.6936 111.283L48.7684 109.825L48.4931 109.331L49.0191 109.086ZM48.7561 109.827L48.4808 109.582V109.336L48.7561 109.827ZM54.7926 96.5742L49.2846 109.579L48.4931 109.334L54.0012 96.3285L54.7926 96.5742ZM69.2178 82.1109L54.5272 96.8198L53.9987 96.3262L68.6894 81.6172L69.4808 81.8629L69.2178 82.1109ZM68.6894 81.6172L69.4808 80.8893V81.8629L68.6894 81.6172ZM68.6894 102.45V81.8652L69.4808 81.8629V102.45H68.6894ZM63.1813 115.207L68.6894 102.225L69.4808 102.45L63.9728 115.455L63.4443 115.68L63.1813 115.207ZM63.9728 115.455L63.7098 115.701H63.4566L63.9728 115.455ZM59.7723 113.235L63.7098 114.962L63.4468 115.701L59.5093 113.974L59.2463 113.728L59.7723 113.235ZM59.5093 113.974H59.2463V113.728L59.5093 113.974ZM58.7178 107.359L60.0377 113.726L59.2463 113.728L57.9387 107.359L58.1919 107.113L58.7178 107.359ZM58.2017 107.113L58.7178 106.62V107.359L58.2017 107.113Z" fill="black"/>
<path d="M113.978 92.4455L110.273 87.1475L110.806 86.6637L114.789 91.9616V92.2024L113.978 92.4455ZM112.393 95.8078L113.98 91.9616L114.779 92.2024L113.192 96.0487L112.658 96.2895L112.393 95.8078ZM113.192 96.0487L112.926 96.5325L112.661 96.2917L113.192 96.0487ZM99.6904 90.5324L112.926 95.5648L112.661 96.2917L99.1597 91.2571V91.0163L99.6904 90.5324ZM84.602 76.3447L99.6904 90.5099L99.1572 90.9938L84.0688 77.0694L84.3341 76.3447H84.602ZM84.0688 77.0694L83.2826 76.3447H84.3341L84.0688 77.0694ZM105.514 77.0694H84.3341V76.3447H105.514H105.779L105.514 77.0694ZM118.484 82.356L105.248 77.0694L105.779 76.3447L119.017 81.6313L119.283 82.1152L118.484 82.356ZM119.015 81.6313H119.28V82.1152L119.015 81.6313ZM116.631 85.4776L118.484 81.8721L119.283 82.1152L117.43 85.9592H117.165L116.631 85.4776ZM110.541 86.4454L117.165 85.2368V85.9592L110.541 87.4131L110.275 87.1498L110.541 86.4454ZM110.273 87.1475L109.752 86.6637L110.538 86.4431L110.273 87.1475Z" fill="black"/>
<path d="M114.787 49.1408L110.804 54.1844L110.271 53.9436L113.976 48.6569H114.774V49.1408H114.787ZM114.787 48.6569V48.8977V49.1408V48.6569ZM113.19 44.8106L114.787 48.6569L113.978 48.8977L112.391 45.0514L112.656 44.5676L113.19 44.8106ZM112.656 44.5676L112.922 44.5698L113.187 44.8106L112.656 44.5676ZM99.1562 49.8565L112.656 44.5676L112.912 45.2945L99.6893 50.5699L99.1562 49.8565ZM84.0687 64.0331L99.1562 49.8678L99.6893 50.5812L84.6019 64.5147L84.3366 64.7466L84.0687 64.0331ZM84.3341 64.7578H83.2802L84.0687 64.0331L84.3341 64.7578ZM105.512 64.7578H84.3341V64.0331L105.512 63.7923L105.777 64.517L105.512 64.7578ZM119.012 59.4711L105.78 64.5147L105.244 64.0309L118.479 58.7442L119.278 58.985L119.012 59.4711ZM119.28 58.9872V59.2281L119.015 59.4689L119.28 58.9872ZM117.428 55.1409L119.28 58.9872L118.482 59.2281L116.629 55.393L117.162 54.8979L117.428 55.1409ZM117.16 54.9001H117.425L117.428 55.1409L117.16 54.9001ZM110.539 53.7028L117.162 54.8979V55.6248L110.539 54.4162L110.273 53.9436L110.539 53.7028ZM110.539 54.4162H109.753L110.273 53.9436L110.539 54.4162Z" fill="black"/>
<path d="M34.3574 91.9616L37.9851 86.6637L38.767 87.1475L35.1393 92.4455L34.3574 92.2047V91.9616ZM35.9115 96.0487L34.3574 92.2047L35.1393 91.9616L36.6933 95.8079L36.4335 96.2918L35.9115 96.0487ZM36.4335 96.2918L36.181 96.5326L35.909 96.0487L36.4335 96.2918ZM49.4025 91.2572L36.4432 96.2895L36.1834 95.5648L49.1548 90.5324L49.6647 91.0163L49.4025 91.2572ZM49.6647 90.9938V91.2346H49.4049L49.6647 90.9938ZM64.4379 77.0693L49.6647 91.0163L49.1427 90.5302L63.9158 76.3423H64.1756L64.4379 77.0693ZM64.1756 76.3423L64.9575 76.3446L64.4379 77.0693L64.1756 76.3423ZM43.4389 76.3446L64.1756 76.3423V77.0693H43.4389L43.179 76.3446H43.4389ZM30.2198 81.6313L43.179 76.3446L43.4389 77.0693L30.4796 82.3447L29.9575 82.1129L30.2198 81.6313ZM29.9575 82.1129V81.6313H30.2198L29.9575 82.1129ZM31.5116 85.9615L29.9575 82.1129L30.7394 81.8744L32.2934 85.4798L31.7714 85.9637L31.5116 85.9615ZM38.2571 87.4109L31.7714 85.9592L32.0312 85.2345L38.5169 86.4431L38.767 87.1475L38.2571 87.4109ZM38.5193 86.4453L39.0414 86.6659L38.7816 87.1498L38.5193 86.4453Z" fill="black"/>
<path d="M35.1389 48.657L38.7664 53.9437L37.9846 54.1755L34.3571 49.1432V48.6593H35.1389V48.657ZM34.3571 49.1432V48.9001V48.6593V49.1432ZM36.6929 45.0538L35.1389 48.9001L34.3692 48.6593L35.9232 44.813L36.4452 44.5722L36.6929 45.0538ZM35.911 44.8108L36.183 44.5699H36.4331L35.911 44.8108ZM49.1414 50.5813L36.183 45.2946L36.4331 44.5699L49.4036 49.8679H49.6634L49.1414 50.5813ZM63.9135 64.5148L49.1535 50.5813L49.661 49.8566L64.4355 64.0331L64.1757 64.7466L63.9135 64.5148ZM64.4355 64.0331L64.9575 64.7578H64.1757L64.4355 64.0331ZM43.4379 63.7901L64.1733 64.0309V64.7556H43.4379L43.1781 64.5148L43.4379 63.7901ZM43.4379 64.7578H43.1781V64.517L43.4379 64.7578ZM30.4795 58.7465L43.4379 64.0331L43.1781 64.517L30.2198 59.4734L29.96 58.9895L30.4795 58.7465ZM30.2198 59.4734L29.96 59.2304V58.9895L30.2198 59.4734ZM32.2933 55.3953L30.7393 59.2304L29.9575 58.9895L31.5115 55.1433L31.7713 54.9024L32.2933 55.3953ZM38.5187 54.4163L32.0335 55.6249L31.7737 54.9002L38.2589 53.7029L38.781 53.9437L38.5187 54.4163ZM38.7664 53.9437L39.0262 54.4163H38.5042L38.7664 53.9437Z" fill="black"/>
<defs>
<filter id="filter0_d_954_3" x="-1.46948" y="0.188782" width="29" height="26.6667" filterUnits="userSpaceOnUse" color-interpolation-filters="sRGB">
<feFlood flood-opacity="0" result="BackgroundImageFix"/>
<feColorMatrix in="SourceAlpha" type="matrix" values="0 0 0 0 0 0 0 0 0 0 0 0 0 0 0 0 0 0 127 0" result="hardAlpha"/>
<feOffset dy="4"/>
<feGaussianBlur stdDeviation="2"/>
<feComposite in2="hardAlpha" operator="out"/>
<feColorMatrix type="matrix" values="0 0 0 0 0 0 0 0 0 0 0 0 0 0 0 0 0 0 0.25 0"/>
<feBlend mode="normal" in2="BackgroundImageFix" result="effect1_dropShadow_954_3"/>
<feBlend mode="normal" in="SourceGraphic" in2="effect1_dropShadow_954_3" result="shape"/>
</filter>
</defs>
</svg>
