<svg width="20" height="20" xmlns="http://www.w3.org/2000/svg">
 <g>
  <title>Layer 1</title>
  <g id="Layer_1_1_">
   <rect x="0.473" y="0.472" fill="none" stroke="#C29958" strokeWidth="2" stroke-miterlimit="10" width="19.054" height="19.055" id="svg_1"/>
  </g>
  <g id="Layer_2" display="none">
   <g display="inline" id="svg_2">
    <path fill="#CEAFD3" d="m11.299,12.547l-2.668,0l-0.371,1.255l-2.399,0l2.857,-7.604l2.564,0l2.854,7.604l-2.46,0l-0.377,-1.255zm-0.486,-1.645l-0.84,-2.733l-0.832,2.733l1.672,0z" id="svg_3"/>
   </g>
  </g>
  <g id="Layer_2_copy">
   <g id="svg_4">
    <path fill="#C29958" d="m-17.93814,13.62068l3.089,0l1.192,4.626l1.183,-4.626l3.088,0l0,7.604l-1.924,0l0,-5.799l-1.482,5.799l-1.742,0l-1.48,-5.799l0,5.799l-1.924,0l0,-7.604z" id="svg_5"/>
   </g>
  </g>
  <g id="Layer_4" display="none">
   <g display="inline" id="svg_6">
    <path fill="#CEAFD3" d="m7.757,12.462l-2.578,0l-0.359,1.214l-2.32,0l2.764,-7.352l2.479,0l2.761,7.352l-2.379,0l-0.368,-1.214zm-0.471,-1.59l-0.811,-2.643l-0.803,2.643l1.614,0z" id="svg_7"/>
    <path fill="#CEAFD3" d="m10.83,11.244l2.162,-0.137c0.047,0.352 0.143,0.617 0.285,0.804c0.233,0.298 0.568,0.444 1.004,0.444c0.324,0 0.574,-0.074 0.75,-0.228s0.262,-0.329 0.262,-0.528c0,-0.189 -0.081,-0.361 -0.248,-0.513c-0.169,-0.149 -0.556,-0.292 -1.164,-0.426c-0.996,-0.225 -1.708,-0.522 -2.132,-0.894c-0.429,-0.371 -0.644,-0.844 -0.644,-1.419c0,-0.377 0.108,-0.735 0.328,-1.07c0.219,-0.336 0.549,-0.601 0.989,-0.793c0.438,-0.191 1.041,-0.288 1.808,-0.288c0.939,0 1.654,0.174 2.148,0.524c0.493,0.349 0.786,0.905 0.88,1.667l-2.141,0.126c-0.058,-0.332 -0.177,-0.572 -0.359,-0.723c-0.182,-0.151 -0.433,-0.226 -0.754,-0.226c-0.264,0 -0.464,0.056 -0.598,0.168c-0.134,0.112 -0.2,0.248 -0.2,0.409c0,0.117 0.055,0.222 0.166,0.315c0.107,0.097 0.359,0.188 0.761,0.271c0.994,0.214 1.705,0.43 2.136,0.649c0.43,0.219 0.741,0.49 0.938,0.814c0.195,0.325 0.293,0.687 0.293,1.088c0,0.473 -0.13,0.906 -0.391,1.305c-0.262,0.396 -0.627,0.7 -1.094,0.905c-0.47,0.204 -1.059,0.309 -1.771,0.309c-1.25,0 -2.116,-0.241 -2.599,-0.722c-0.479,-0.477 -0.75,-1.089 -0.815,-1.831z" id="svg_8"/>
   </g>
  </g>
  <text font-style="normal" font-weight="normal" transform="matrix(0.562597 0 0 0.480438 1.92109 9.25196)" stroke="#000" xml:space="preserve" text-anchor="start" font-family="'Quicksand SemiBold'" font-size="24" id="svg_9" y="10.56481" x="6" strokeWidth="0" fill="#c99258">H</text>
 </g>

</svg>