<svg width="430" height="127" viewBox="0 0 430 127" fill="none" xmlns="http://www.w3.org/2000/svg">
<path d="M4.848 109.288C4.848 109.32 4.848 109.368 4.848 109.432C4.848 109.576 4.848 109.768 4.848 110.008C4.848 110.232 4.856 110.44 4.872 110.632C4.888 110.824 4.92 110.936 4.968 110.968C5.128 111.08 5.32 111.152 5.544 111.184C5.784 111.2 6.152 111.208 6.648 111.208H7.968C8.416 111.208 8.904 111.16 9.432 111.064C9.976 110.952 10.408 110.784 10.728 110.56C11.016 110.352 11.28 110.064 11.52 109.696C11.776 109.328 12 108.832 12.192 108.208C12.224 108.112 12.336 108.064 12.528 108.064C12.816 108.064 13.008 108.112 13.104 108.208C12.88 108.848 12.632 109.528 12.36 110.248C12.104 110.968 11.936 111.584 11.856 112.096C10.592 112.096 9.336 112.08 8.088 112.048C6.84 112.016 5.432 112 3.864 112C3.32 112 2.832 112.008 2.4 112.024C1.968 112.056 1.52 112.072 1.056 112.072C0.992 112.008 0.96 111.896 0.96 111.736C0.976 111.576 1.008 111.464 1.056 111.4C1.152 111.4 1.328 111.392 1.584 111.376C1.84 111.344 2.08 111.296 2.304 111.232C2.544 111.168 2.672 111.096 2.688 111.016C2.752 110.824 2.784 110.576 2.784 110.272C2.8 109.968 2.808 109.64 2.808 109.288V99.28C2.808 98.928 2.8 98.6 2.784 98.296C2.784 97.976 2.752 97.72 2.688 97.528C2.672 97.432 2.544 97.36 2.304 97.312C2.08 97.264 1.84 97.232 1.584 97.216C1.328 97.184 1.152 97.168 1.056 97.168C1.008 97.104 0.976 96.992 0.96 96.832C0.96 96.672 0.992 96.56 1.056 96.496C1.536 96.512 2.008 96.536 2.472 96.568C2.936 96.584 3.392 96.592 3.84 96.592C4.304 96.592 4.752 96.584 5.184 96.568C5.632 96.536 6.096 96.512 6.576 96.496C6.64 96.56 6.664 96.672 6.648 96.832C6.648 96.992 6.624 97.104 6.576 97.168C6.48 97.168 6.304 97.184 6.048 97.216C5.792 97.232 5.552 97.264 5.328 97.312C5.104 97.36 4.976 97.432 4.944 97.528C4.896 97.688 4.864 97.896 4.848 98.152C4.848 98.408 4.848 98.688 4.848 98.992C4.848 99.04 4.848 99.088 4.848 99.136C4.848 99.184 4.848 99.232 4.848 99.28V109.288ZM21.6673 108.736C21.6673 108.736 21.7393 108.544 21.8833 108.16C22.0433 107.76 22.2513 107.224 22.5073 106.552C22.7633 105.88 23.0513 105.136 23.3713 104.32C23.7073 103.488 24.0433 102.64 24.3793 101.776C24.7153 100.896 25.0353 100.056 25.3393 99.256C25.6593 98.456 25.9393 97.752 26.1793 97.144C26.2433 97.016 26.3793 96.872 26.5873 96.712C26.8113 96.552 26.9793 96.472 27.0913 96.472C27.1233 96.472 27.1393 96.48 27.1393 96.496C27.1553 96.496 27.1793 96.504 27.2113 96.52L31.9873 109.048C32.3393 109.976 32.5393 110.488 32.5873 110.584C32.6673 110.76 32.8193 110.912 33.0433 111.04C33.2833 111.168 33.5153 111.264 33.7393 111.328C33.9793 111.376 34.1313 111.4 34.1953 111.4C34.2593 111.48 34.2833 111.608 34.2673 111.784C34.2513 111.944 34.2353 112.04 34.2193 112.072C33.7553 112.04 33.3393 112.016 32.9713 112C32.6033 111.968 32.1633 111.952 31.6513 111.952C31.1073 111.952 30.6513 111.968 30.2833 112C29.9313 112.016 29.4833 112.04 28.9393 112.072C28.8753 112.008 28.8433 111.896 28.8433 111.736C28.8593 111.576 28.8993 111.464 28.9633 111.4C29.1073 111.4 29.3313 111.376 29.6353 111.328C29.9393 111.264 30.1473 111.184 30.2593 111.088C30.3233 111.024 30.3553 110.912 30.3553 110.752C30.3553 110.608 30.2993 110.368 30.1873 110.032C30.0913 109.68 29.9633 109.288 29.8033 108.856C29.6433 108.424 29.4833 108.008 29.3233 107.608C29.1633 107.192 29.0273 106.856 28.9153 106.6C28.8193 106.328 28.7713 106.192 28.7713 106.192C28.7713 106.192 28.7553 106.176 28.7233 106.144C28.6913 106.112 28.6593 106.096 28.6273 106.096C28.3873 106.08 28.0913 106.072 27.7393 106.072C27.3873 106.072 27.0593 106.072 26.7553 106.072C26.6753 106.072 26.5953 106.072 26.5153 106.072C26.4353 106.072 26.3633 106.072 26.2993 106.072C25.8193 106.072 25.4113 106.08 25.0753 106.096C24.7393 106.096 24.3073 106.112 23.7793 106.144C23.7633 106.144 23.7393 106.16 23.7073 106.192C23.6753 106.208 23.6593 106.216 23.6593 106.216C23.6593 106.216 23.5953 106.376 23.4673 106.696C23.3553 107.016 23.2113 107.4 23.0353 107.848C22.8753 108.28 22.7313 108.688 22.6033 109.072C22.4593 109.472 22.3633 109.808 22.3153 110.08C22.2833 110.352 22.2673 110.568 22.2673 110.728C22.2673 110.904 22.3873 111.048 22.6273 111.16C22.8833 111.256 23.1393 111.32 23.3953 111.352C23.6673 111.384 23.8353 111.4 23.8993 111.4C23.9313 111.432 23.9553 111.536 23.9713 111.712C23.9873 111.872 23.9793 111.992 23.9473 112.072C23.6433 112.056 23.3793 112.04 23.1553 112.024C22.9473 112.008 22.7313 111.992 22.5073 111.976C22.2993 111.96 22.0193 111.952 21.6673 111.952C21.3153 111.952 21.0193 111.96 20.7793 111.976C20.5393 111.992 20.2993 112.008 20.0593 112.024C19.8193 112.04 19.5153 112.056 19.1473 112.072C19.1153 112.04 19.0993 111.944 19.0993 111.784C19.0993 111.608 19.1153 111.48 19.1473 111.4C19.2913 111.4 19.5313 111.368 19.8673 111.304C20.2193 111.224 20.4513 111.104 20.5633 110.944C20.8033 110.64 21.0033 110.304 21.1633 109.936C21.3393 109.552 21.5073 109.152 21.6673 108.736ZM26.2513 99.304L24.1153 105.016C24.1153 105.016 24.1153 105.032 24.1153 105.064C24.1313 105.096 24.1473 105.112 24.1633 105.112C24.4673 105.128 24.8273 105.144 25.2433 105.16C25.6753 105.16 26.0193 105.16 26.2753 105.16C26.6433 105.16 26.9713 105.152 27.2593 105.136C27.5633 105.12 27.8913 105.104 28.2433 105.088C28.2753 105.088 28.2913 105.072 28.2913 105.04C28.3073 104.992 28.3153 104.968 28.3153 104.968L26.2513 99.304ZM47.5226 96.544C48.0506 96.544 48.5946 96.608 49.1546 96.736C49.7146 96.848 50.2266 97.04 50.6906 97.312C51.1546 97.568 51.5306 97.92 51.8186 98.368C52.1066 98.816 52.2506 99.376 52.2506 100.048C52.2506 100.64 52.1066 101.176 51.8186 101.656C51.5466 102.136 51.2186 102.528 50.8346 102.832C50.4666 103.136 50.1466 103.344 49.8746 103.456C49.8266 103.488 49.8266 103.52 49.8746 103.552C50.1626 103.568 50.4986 103.664 50.8826 103.84C51.2666 104.016 51.6426 104.272 52.0106 104.608C52.3946 104.928 52.7066 105.32 52.9466 105.784C53.1866 106.248 53.3066 106.768 53.3066 107.344C53.3066 108.016 53.1866 108.64 52.9466 109.216C52.7226 109.792 52.3226 110.32 51.7466 110.8C51.1866 111.264 50.4506 111.592 49.5386 111.784C48.6266 111.96 47.7226 112.056 46.8266 112.072H41.4266C41.3626 112.008 41.3306 111.896 41.3306 111.736C41.3466 111.576 41.3786 111.464 41.4266 111.4C41.5226 111.4 41.6986 111.392 41.9546 111.376C42.2106 111.344 42.4506 111.296 42.6746 111.232C42.9146 111.168 43.0426 111.096 43.0586 111.016C43.1226 110.824 43.1546 110.576 43.1546 110.272C43.1706 109.968 43.1786 109.64 43.1786 109.288V99.28C43.1786 98.928 43.1706 98.6 43.1546 98.296C43.1546 97.976 43.1226 97.72 43.0586 97.528C43.0426 97.432 42.9146 97.36 42.6746 97.312C42.4506 97.264 42.2106 97.232 41.9546 97.216C41.6986 97.184 41.5226 97.168 41.4266 97.168C41.3786 97.104 41.3466 96.992 41.3306 96.832C41.3306 96.672 41.3626 96.56 41.4266 96.496C41.9066 96.512 42.3786 96.536 42.8426 96.568C43.3066 96.584 43.7626 96.592 44.2106 96.592C44.6746 96.592 45.1706 96.584 45.6986 96.568C46.2266 96.552 46.8346 96.544 47.5226 96.544ZM45.2186 104.224V109.312C45.2186 109.424 45.2186 109.6 45.2186 109.84C45.2346 110.064 45.2586 110.28 45.2906 110.488C45.3226 110.696 45.3626 110.832 45.4106 110.896C45.5866 111.088 45.8266 111.208 46.1306 111.256C46.4506 111.304 46.8266 111.328 47.2586 111.328C47.8506 111.328 48.4266 111.24 48.9866 111.064C49.5626 110.888 50.0426 110.552 50.4266 110.056C50.8106 109.544 51.0026 108.816 51.0026 107.872C51.0026 107.28 50.8906 106.712 50.6666 106.168C50.4426 105.608 50.0106 105.144 49.3706 104.776C48.7466 104.408 47.8346 104.224 46.6346 104.224H45.2186ZM45.2186 103.336H47.1626C47.8666 103.336 48.4346 103.2 48.8666 102.928C49.2986 102.656 49.6106 102.312 49.8026 101.896C50.0106 101.464 50.1146 101.024 50.1146 100.576C50.1146 99.536 49.7786 98.736 49.1066 98.176C48.4506 97.6 47.5786 97.312 46.4906 97.312C46.3466 97.312 46.1226 97.32 45.8186 97.336C45.5306 97.352 45.3626 97.416 45.3146 97.528C45.2666 97.656 45.2346 97.856 45.2186 98.128C45.2186 98.4 45.2186 98.688 45.2186 98.992C45.2186 99.056 45.2186 99.112 45.2186 99.16C45.2186 99.208 45.2186 99.256 45.2186 99.304V103.336ZM112.851 107.896C112.851 107.848 112.851 107.8 112.851 107.752C112.851 107.704 112.851 107.656 112.851 107.608C112.851 107.304 112.843 107.032 112.827 106.792C112.827 106.536 112.803 106.328 112.755 106.168C112.739 106.072 112.611 106 112.371 105.952C112.147 105.888 111.907 105.848 111.651 105.832C111.411 105.8 111.243 105.784 111.147 105.784C111.099 105.72 111.067 105.608 111.051 105.448C111.051 105.288 111.083 105.176 111.147 105.112C111.627 105.128 112.091 105.152 112.539 105.184C112.987 105.216 113.435 105.232 113.883 105.232C114.347 105.232 114.779 105.216 115.179 105.184C115.595 105.152 116.043 105.128 116.523 105.112C116.587 105.176 116.611 105.288 116.595 105.448C116.595 105.608 116.571 105.72 116.523 105.784C116.427 105.784 116.259 105.8 116.019 105.832C115.779 105.848 115.555 105.888 115.347 105.952C115.139 106 115.019 106.072 114.987 106.168C114.923 106.36 114.883 106.608 114.867 106.912C114.867 107.216 114.867 107.544 114.867 107.896V109.552C114.867 109.808 114.907 110 114.987 110.128C115.067 110.256 115.107 110.384 115.107 110.512C115.107 110.576 115.083 110.632 115.035 110.68C114.987 110.728 114.859 110.808 114.651 110.92C114.315 111.096 113.923 111.28 113.475 111.472C113.043 111.664 112.491 111.824 111.819 111.952C111.163 112.08 110.315 112.144 109.275 112.144C108.123 112.144 107.067 111.944 106.107 111.544C105.147 111.128 104.315 110.568 103.611 109.864C102.923 109.144 102.387 108.328 102.003 107.416C101.635 106.488 101.451 105.504 101.451 104.464C101.451 103.36 101.643 102.328 102.027 101.368C102.427 100.392 102.979 99.528 103.683 98.776C104.387 98.024 105.219 97.44 106.179 97.024C107.155 96.592 108.219 96.376 109.371 96.376C110.139 96.376 110.939 96.408 111.771 96.472C112.619 96.536 113.475 96.664 114.339 96.856C114.339 96.856 114.363 97.024 114.411 97.36C114.475 97.68 114.539 98.064 114.603 98.512C114.667 98.944 114.723 99.344 114.771 99.712C114.835 100.064 114.867 100.272 114.867 100.336C114.883 100.4 114.835 100.464 114.723 100.528C114.611 100.592 114.491 100.624 114.363 100.624C114.251 100.624 114.155 100.6 114.075 100.552C114.043 100.376 113.963 100.104 113.835 99.736C113.723 99.368 113.507 98.984 113.187 98.584C112.883 98.184 112.435 97.848 111.843 97.576C111.251 97.288 110.467 97.144 109.491 97.144C108.627 97.144 107.843 97.344 107.139 97.744C106.435 98.128 105.827 98.656 105.315 99.328C104.819 99.984 104.435 100.72 104.163 101.536C103.907 102.336 103.779 103.144 103.779 103.96C103.779 104.872 103.899 105.768 104.139 106.648C104.395 107.528 104.771 108.328 105.267 109.048C105.779 109.752 106.411 110.32 107.163 110.752C107.931 111.168 108.827 111.376 109.851 111.376C110.459 111.376 110.995 111.296 111.459 111.136C111.939 110.96 112.355 110.784 112.707 110.608C112.787 110.576 112.827 110.536 112.827 110.488C112.843 110.424 112.851 110.352 112.851 110.272V107.896ZM130.59 96.544C131.118 96.544 131.662 96.632 132.222 96.808C132.782 96.984 133.294 97.24 133.758 97.576C134.238 97.912 134.622 98.336 134.91 98.848C135.198 99.344 135.342 99.928 135.342 100.6C135.342 101.16 135.182 101.704 134.862 102.232C134.558 102.76 134.158 103.224 133.662 103.624C133.182 104.024 132.678 104.312 132.15 104.488C132.566 105.176 132.966 105.808 133.35 106.384C133.734 106.96 134.134 107.536 134.55 108.112C134.966 108.672 135.43 109.296 135.942 109.984C136.278 110.432 136.638 110.768 137.022 110.992C137.422 111.216 137.942 111.352 138.582 111.4C138.646 111.464 138.662 111.584 138.63 111.76C138.598 111.936 138.574 112.04 138.558 112.072C137.774 112.072 137.118 112.048 136.59 112C136.078 111.936 135.702 111.864 135.462 111.784C135.302 111.72 135.078 111.624 134.79 111.496C134.502 111.352 134.222 111.104 133.95 110.752C133.854 110.624 133.678 110.376 133.422 110.008C133.166 109.64 132.862 109.192 132.51 108.664C132.158 108.136 131.782 107.576 131.382 106.984C130.982 106.376 130.598 105.784 130.23 105.208C130.102 105.016 129.862 104.92 129.51 104.92H128.286V109.288C128.286 109.336 128.286 109.384 128.286 109.432C128.286 109.48 128.286 109.528 128.286 109.576C128.286 109.88 128.286 110.16 128.286 110.416C128.302 110.656 128.334 110.856 128.382 111.016C128.414 111.096 128.542 111.168 128.766 111.232C128.99 111.296 129.23 111.344 129.486 111.376C129.742 111.392 129.918 111.4 130.014 111.4C130.062 111.464 130.086 111.576 130.086 111.736C130.102 111.896 130.078 112.008 130.014 112.072C129.534 112.04 129.07 112.016 128.622 112C128.19 111.968 127.742 111.952 127.278 111.952C126.83 111.952 126.374 111.968 125.91 112C125.446 112.016 124.974 112.04 124.494 112.072C124.43 112.008 124.398 111.896 124.398 111.736C124.414 111.576 124.446 111.464 124.494 111.4C124.59 111.4 124.766 111.392 125.022 111.376C125.278 111.344 125.518 111.296 125.742 111.232C125.982 111.168 126.11 111.096 126.126 111.016C126.19 110.824 126.222 110.576 126.222 110.272C126.238 109.968 126.246 109.64 126.246 109.288L126.222 99.28C126.222 98.928 126.214 98.6 126.198 98.296C126.198 97.976 126.166 97.72 126.102 97.528C126.086 97.432 125.958 97.36 125.718 97.312C125.494 97.264 125.254 97.232 124.998 97.216C124.758 97.184 124.59 97.168 124.494 97.168C124.446 97.104 124.414 96.992 124.398 96.832C124.398 96.672 124.43 96.56 124.494 96.496C124.974 96.512 125.438 96.536 125.886 96.568C126.35 96.584 126.806 96.592 127.254 96.592C127.718 96.592 128.214 96.584 128.742 96.568C129.286 96.552 129.902 96.544 130.59 96.544ZM133.158 100.816C133.158 99.792 132.878 98.952 132.318 98.296C131.774 97.64 130.854 97.312 129.558 97.312C129.414 97.312 129.19 97.32 128.886 97.336C128.598 97.352 128.43 97.416 128.382 97.528C128.318 97.672 128.278 97.92 128.262 98.272C128.262 98.608 128.262 98.952 128.262 99.304L128.286 104.2H129.534C130.142 104.2 130.718 104.064 131.262 103.792C131.822 103.504 132.278 103.112 132.63 102.616C132.982 102.104 133.158 101.504 133.158 100.816ZM152.617 96.376C153.657 96.376 154.633 96.568 155.545 96.952C156.473 97.336 157.289 97.888 157.993 98.608C158.697 99.312 159.249 100.152 159.649 101.128C160.065 102.088 160.273 103.152 160.273 104.32C160.273 105.424 160.065 106.456 159.649 107.416C159.249 108.36 158.697 109.2 157.993 109.936C157.289 110.656 156.473 111.224 155.545 111.64C154.633 112.04 153.657 112.24 152.617 112.24C151.593 112.24 150.617 112.048 149.689 111.664C148.777 111.28 147.969 110.736 147.265 110.032C146.577 109.312 146.033 108.472 145.633 107.512C145.233 106.536 145.033 105.472 145.033 104.32C145.033 103.216 145.233 102.184 145.633 101.224C146.033 100.264 146.577 99.424 147.265 98.704C147.969 97.968 148.777 97.4 149.689 97C150.617 96.584 151.593 96.376 152.617 96.376ZM152.281 97.168C151.401 97.168 150.649 97.368 150.025 97.768C149.401 98.152 148.889 98.664 148.489 99.304C148.105 99.944 147.817 100.656 147.625 101.44C147.449 102.224 147.361 103.008 147.361 103.792C147.361 104.704 147.481 105.616 147.721 106.528C147.977 107.424 148.345 108.248 148.825 109C149.305 109.736 149.889 110.328 150.577 110.776C151.281 111.224 152.089 111.448 153.001 111.448C153.881 111.448 154.633 111.256 155.257 110.872C155.881 110.472 156.393 109.944 156.793 109.288C157.193 108.632 157.481 107.912 157.657 107.128C157.849 106.328 157.945 105.536 157.945 104.752C157.945 103.84 157.817 102.936 157.561 102.04C157.321 101.144 156.953 100.328 156.457 99.592C155.977 98.856 155.385 98.272 154.681 97.84C153.993 97.392 153.193 97.168 152.281 97.168ZM169.99 96.592C170.502 96.592 170.934 96.584 171.286 96.568C171.638 96.536 172.046 96.512 172.51 96.496C172.542 96.56 172.55 96.688 172.534 96.88C172.534 97.056 172.51 97.152 172.462 97.168C172.398 97.168 172.254 97.192 172.03 97.24C171.806 97.272 171.59 97.344 171.382 97.456C171.174 97.552 171.07 97.712 171.07 97.936C171.07 98 171.102 98.168 171.166 98.44C171.23 98.712 171.318 99.056 171.43 99.472C171.606 100.112 171.846 100.936 172.15 101.944C172.454 102.936 172.782 104.008 173.134 105.16C173.486 106.296 173.822 107.416 174.142 108.52C174.414 107.608 174.718 106.624 175.054 105.568C175.39 104.512 175.726 103.456 176.062 102.4C176.398 101.344 176.71 100.368 176.998 99.472C177.286 98.576 177.518 97.84 177.694 97.264C177.774 97.04 177.902 96.856 178.078 96.712C178.254 96.568 178.406 96.496 178.534 96.496C178.598 96.496 178.686 96.616 178.798 96.856C178.83 96.952 178.926 97.264 179.086 97.792C179.262 98.32 179.478 99 179.734 99.832C179.99 100.648 180.278 101.552 180.598 102.544C180.918 103.52 181.246 104.52 181.582 105.544C181.918 106.568 182.238 107.544 182.542 108.472C182.798 107.576 183.03 106.768 183.238 106.048C183.446 105.328 183.638 104.648 183.814 104.008C184.006 103.352 184.198 102.68 184.39 101.992C184.582 101.304 184.782 100.544 184.99 99.712C185.07 99.44 185.134 99.152 185.182 98.848C185.23 98.544 185.254 98.288 185.254 98.08C185.254 97.824 185.142 97.632 184.918 97.504C184.694 97.376 184.454 97.288 184.198 97.24C183.942 97.192 183.766 97.168 183.67 97.168C183.606 97.136 183.574 97.032 183.574 96.856C183.574 96.68 183.606 96.56 183.67 96.496C184.102 96.512 184.526 96.536 184.942 96.568C185.358 96.584 185.782 96.592 186.214 96.592C186.582 96.592 186.862 96.592 187.054 96.592C187.262 96.576 187.462 96.56 187.654 96.544C187.862 96.528 188.118 96.512 188.422 96.496C188.454 96.56 188.462 96.688 188.446 96.88C188.43 97.072 188.406 97.168 188.374 97.168C188.278 97.168 188.062 97.216 187.726 97.312C187.406 97.408 187.126 97.56 186.886 97.768C186.726 97.912 186.582 98.128 186.454 98.416C186.326 98.688 186.19 99.064 186.046 99.544C185.614 101.016 185.222 102.376 184.87 103.624C184.518 104.872 184.166 106.104 183.814 107.32C183.478 108.536 183.102 109.848 182.686 111.256C182.622 111.464 182.494 111.648 182.302 111.808C182.126 111.968 181.958 112.048 181.798 112.048C181.75 112.048 181.702 112 181.654 111.904C181.606 111.792 181.574 111.712 181.558 111.664C181.366 111.104 181.142 110.432 180.886 109.648C180.63 108.864 180.358 108.04 180.07 107.176C179.782 106.296 179.502 105.44 179.23 104.608C178.958 103.776 178.71 103.024 178.486 102.352C178.262 101.664 178.078 101.12 177.934 100.72C177.806 100.304 177.742 100.096 177.742 100.096C177.406 101.168 177.094 102.168 176.806 103.096C176.518 104.008 176.23 104.896 175.942 105.76C175.67 106.608 175.39 107.48 175.102 108.376C174.83 109.256 174.534 110.216 174.214 111.256C174.15 111.464 174.022 111.648 173.83 111.808C173.638 111.968 173.462 112.048 173.302 112.048C173.254 112.048 173.206 112 173.158 111.904C173.126 111.792 173.102 111.712 173.086 111.664C172.638 110.208 172.214 108.856 171.814 107.608C171.43 106.344 171.038 105.064 170.638 103.768C170.238 102.472 169.798 101.056 169.318 99.52C169.174 99.056 169.054 98.68 168.958 98.392C168.862 98.088 168.702 97.832 168.478 97.624C168.318 97.464 168.086 97.352 167.782 97.288C167.494 97.208 167.278 97.168 167.134 97.168C167.118 97.168 167.11 97.064 167.11 96.856C167.11 96.632 167.118 96.512 167.134 96.496C167.678 96.512 168.15 96.536 168.55 96.568C168.966 96.584 169.446 96.592 169.99 96.592ZM197.901 96.52C198.253 96.52 198.597 96.52 198.933 96.52C199.269 96.52 199.517 96.512 199.677 96.496C199.917 96.864 200.301 97.384 200.829 98.056C201.357 98.728 201.973 99.496 202.677 100.36C203.381 101.208 204.109 102.088 204.861 103C205.613 103.912 206.341 104.816 207.045 105.712C207.749 106.592 208.357 107.392 208.869 108.112V99.232C208.869 98.816 208.861 98.488 208.845 98.248C208.829 98.008 208.757 97.792 208.629 97.6C208.581 97.52 208.437 97.448 208.197 97.384C207.957 97.304 207.701 97.248 207.429 97.216C207.173 97.168 206.981 97.144 206.853 97.144C206.789 97.064 206.757 96.952 206.757 96.808C206.773 96.648 206.789 96.536 206.805 96.472C207.269 96.488 207.701 96.512 208.101 96.544C208.517 96.56 208.981 96.568 209.493 96.568C209.861 96.568 210.157 96.568 210.381 96.568C210.621 96.552 210.861 96.536 211.101 96.52C211.357 96.504 211.661 96.488 212.013 96.472C212.045 96.536 212.069 96.632 212.085 96.76C212.101 96.888 212.077 97.016 212.013 97.144C211.917 97.144 211.725 97.16 211.437 97.192C211.165 97.224 210.901 97.28 210.645 97.36C210.389 97.424 210.229 97.504 210.165 97.6C210.053 97.776 209.989 97.976 209.973 98.2C209.957 98.424 209.949 98.76 209.949 99.208V108.736C209.949 109.184 209.949 109.576 209.949 109.912C209.949 110.248 209.949 110.576 209.949 110.896C209.965 111.2 209.981 111.56 209.997 111.976C209.981 112.04 209.933 112.08 209.853 112.096C209.773 112.112 209.717 112.12 209.685 112.12C209.621 112.12 209.509 112.08 209.349 112C209.205 111.92 209.045 111.776 208.869 111.568L198.645 98.656V109.312C198.645 109.728 198.653 110.056 198.669 110.296C198.701 110.52 198.773 110.728 198.885 110.92C198.933 111 199.069 111.08 199.293 111.16C199.533 111.224 199.781 111.28 200.037 111.328C200.309 111.376 200.509 111.4 200.637 111.4C200.701 111.48 200.733 111.592 200.733 111.736C200.733 111.88 200.717 111.992 200.685 112.072C200.221 112.04 199.789 112.016 199.389 112C198.989 111.968 198.533 111.952 198.021 111.952C197.669 111.952 197.365 111.96 197.109 111.976C196.869 111.992 196.629 112.008 196.389 112.024C196.165 112.04 195.869 112.056 195.501 112.072C195.469 112.008 195.445 111.912 195.429 111.784C195.413 111.656 195.437 111.528 195.501 111.4C195.597 111.4 195.781 111.384 196.053 111.352C196.325 111.304 196.589 111.248 196.845 111.184C197.117 111.104 197.277 111.016 197.325 110.92C197.437 110.744 197.501 110.552 197.517 110.344C197.549 110.12 197.565 109.784 197.565 109.336V99.16C197.565 98.712 197.549 98.376 197.517 98.152C197.501 97.928 197.437 97.728 197.325 97.552C197.277 97.456 197.117 97.376 196.845 97.312C196.589 97.232 196.325 97.176 196.053 97.144C195.781 97.112 195.597 97.096 195.501 97.096C195.437 96.968 195.413 96.84 195.429 96.712C195.445 96.584 195.469 96.488 195.501 96.424C196.045 96.44 196.485 96.464 196.821 96.496C197.157 96.512 197.517 96.52 197.901 96.52ZM265.912 96.568C267.624 96.568 269.096 96.904 270.328 97.576C271.56 98.232 272.504 99.136 273.16 100.288C273.816 101.424 274.144 102.72 274.144 104.176C274.144 105.168 274.008 106.136 273.736 107.08C273.464 108.024 273 108.872 272.344 109.624C271.704 110.376 270.832 110.976 269.728 111.424C268.624 111.856 267.248 112.072 265.6 112.072H259.744C259.68 112.008 259.648 111.896 259.648 111.736C259.664 111.576 259.696 111.464 259.744 111.4C259.84 111.4 260.016 111.392 260.272 111.376C260.528 111.344 260.768 111.296 260.992 111.232C261.232 111.168 261.36 111.096 261.376 111.016C261.44 110.824 261.472 110.576 261.472 110.272C261.488 109.968 261.496 109.64 261.496 109.288V99.28C261.496 98.928 261.488 98.6 261.472 98.296C261.472 97.976 261.44 97.72 261.376 97.528C261.36 97.432 261.232 97.36 260.992 97.312C260.768 97.264 260.528 97.232 260.272 97.216C260.016 97.184 259.84 97.168 259.744 97.168C259.696 97.104 259.664 96.992 259.648 96.832C259.648 96.672 259.68 96.56 259.744 96.496C260.224 96.512 260.696 96.536 261.16 96.568C261.624 96.584 262.08 96.592 262.528 96.592C262.992 96.592 263.544 96.592 264.184 96.592C264.824 96.576 265.4 96.568 265.912 96.568ZM263.56 99.328V109.312C263.56 109.424 263.56 109.608 263.56 109.864C263.56 110.104 263.568 110.344 263.584 110.584C263.616 110.808 263.648 110.944 263.68 110.992C263.776 111.12 264.008 111.208 264.376 111.256C264.76 111.304 265.168 111.328 265.6 111.328C266.72 111.328 267.744 111.088 268.672 110.608C269.616 110.128 270.376 109.4 270.952 108.424C271.528 107.432 271.816 106.176 271.816 104.656C271.816 103.328 271.632 102.2 271.264 101.272C270.912 100.344 270.424 99.592 269.8 99.016C269.192 98.424 268.496 98 267.712 97.744C266.944 97.472 266.136 97.336 265.288 97.336C265.192 97.336 265.016 97.344 264.76 97.36C264.504 97.36 264.264 97.376 264.04 97.408C263.816 97.44 263.688 97.496 263.656 97.576C263.608 97.736 263.576 97.952 263.56 98.224C263.56 98.48 263.56 98.752 263.56 99.04C263.56 99.088 263.56 99.136 263.56 99.184C263.56 99.232 263.56 99.28 263.56 99.328ZM285.198 96.592C285.662 96.592 286.11 96.584 286.542 96.568C286.99 96.536 287.454 96.512 287.934 96.496C287.998 96.56 288.022 96.672 288.006 96.832C288.006 96.992 287.982 97.104 287.934 97.168C287.838 97.168 287.662 97.184 287.406 97.216C287.15 97.232 286.91 97.264 286.686 97.312C286.462 97.36 286.334 97.432 286.302 97.528C286.254 97.688 286.222 97.896 286.206 98.152C286.206 98.408 286.206 98.688 286.206 98.992C286.206 99.04 286.206 99.088 286.206 99.136C286.206 99.184 286.206 99.232 286.206 99.28V109.288C286.206 109.336 286.206 109.384 286.206 109.432C286.206 109.48 286.206 109.528 286.206 109.576C286.206 109.88 286.206 110.16 286.206 110.416C286.222 110.656 286.254 110.856 286.302 111.016C286.334 111.096 286.462 111.168 286.686 111.232C286.91 111.296 287.15 111.344 287.406 111.376C287.662 111.392 287.838 111.4 287.934 111.4C287.982 111.464 288.006 111.576 288.006 111.736C288.022 111.896 287.998 112.008 287.934 112.072C287.454 112.04 286.99 112.016 286.542 112C286.11 111.968 285.662 111.952 285.198 111.952C284.75 111.952 284.294 111.968 283.83 112C283.366 112.016 282.894 112.04 282.414 112.072C282.35 112.008 282.318 111.896 282.318 111.736C282.334 111.576 282.366 111.464 282.414 111.4C282.51 111.4 282.686 111.392 282.942 111.376C283.198 111.344 283.438 111.296 283.662 111.232C283.902 111.168 284.03 111.096 284.046 111.016C284.11 110.824 284.142 110.576 284.142 110.272C284.158 109.968 284.166 109.64 284.166 109.288V99.28C284.166 98.928 284.158 98.6 284.142 98.296C284.142 97.976 284.11 97.72 284.046 97.528C284.03 97.432 283.902 97.36 283.662 97.312C283.438 97.264 283.198 97.232 282.942 97.216C282.686 97.184 282.51 97.168 282.414 97.168C282.366 97.104 282.334 96.992 282.318 96.832C282.318 96.672 282.35 96.56 282.414 96.496C282.894 96.512 283.366 96.536 283.83 96.568C284.294 96.584 284.75 96.592 285.198 96.592ZM297.424 108.736C297.424 108.736 297.496 108.544 297.64 108.16C297.8 107.76 298.008 107.224 298.264 106.552C298.52 105.88 298.808 105.136 299.128 104.32C299.464 103.488 299.8 102.64 300.136 101.776C300.472 100.896 300.792 100.056 301.096 99.256C301.416 98.456 301.696 97.752 301.936 97.144C302 97.016 302.136 96.872 302.344 96.712C302.568 96.552 302.736 96.472 302.848 96.472C302.88 96.472 302.896 96.48 302.896 96.496C302.912 96.496 302.936 96.504 302.968 96.52L307.744 109.048C308.096 109.976 308.296 110.488 308.344 110.584C308.424 110.76 308.576 110.912 308.8 111.04C309.04 111.168 309.272 111.264 309.496 111.328C309.736 111.376 309.888 111.4 309.952 111.4C310.016 111.48 310.04 111.608 310.024 111.784C310.008 111.944 309.992 112.04 309.976 112.072C309.512 112.04 309.096 112.016 308.728 112C308.36 111.968 307.92 111.952 307.408 111.952C306.864 111.952 306.408 111.968 306.04 112C305.688 112.016 305.24 112.04 304.696 112.072C304.632 112.008 304.6 111.896 304.6 111.736C304.616 111.576 304.656 111.464 304.72 111.4C304.864 111.4 305.088 111.376 305.392 111.328C305.696 111.264 305.904 111.184 306.016 111.088C306.08 111.024 306.112 110.912 306.112 110.752C306.112 110.608 306.056 110.368 305.944 110.032C305.848 109.68 305.72 109.288 305.56 108.856C305.4 108.424 305.24 108.008 305.08 107.608C304.92 107.192 304.784 106.856 304.672 106.6C304.576 106.328 304.528 106.192 304.528 106.192C304.528 106.192 304.512 106.176 304.48 106.144C304.448 106.112 304.416 106.096 304.384 106.096C304.144 106.08 303.848 106.072 303.496 106.072C303.144 106.072 302.816 106.072 302.512 106.072C302.432 106.072 302.352 106.072 302.272 106.072C302.192 106.072 302.12 106.072 302.056 106.072C301.576 106.072 301.168 106.08 300.832 106.096C300.496 106.096 300.064 106.112 299.536 106.144C299.52 106.144 299.496 106.16 299.464 106.192C299.432 106.208 299.416 106.216 299.416 106.216C299.416 106.216 299.352 106.376 299.224 106.696C299.112 107.016 298.968 107.4 298.792 107.848C298.632 108.28 298.488 108.688 298.36 109.072C298.216 109.472 298.12 109.808 298.072 110.08C298.04 110.352 298.024 110.568 298.024 110.728C298.024 110.904 298.144 111.048 298.384 111.16C298.64 111.256 298.896 111.32 299.152 111.352C299.424 111.384 299.592 111.4 299.656 111.4C299.688 111.432 299.712 111.536 299.728 111.712C299.744 111.872 299.736 111.992 299.704 112.072C299.4 112.056 299.136 112.04 298.912 112.024C298.704 112.008 298.488 111.992 298.264 111.976C298.056 111.96 297.776 111.952 297.424 111.952C297.072 111.952 296.776 111.96 296.536 111.976C296.296 111.992 296.056 112.008 295.816 112.024C295.576 112.04 295.272 112.056 294.904 112.072C294.872 112.04 294.856 111.944 294.856 111.784C294.856 111.608 294.872 111.48 294.904 111.4C295.048 111.4 295.288 111.368 295.624 111.304C295.976 111.224 296.208 111.104 296.32 110.944C296.56 110.64 296.76 110.304 296.92 109.936C297.096 109.552 297.264 109.152 297.424 108.736ZM302.008 99.304L299.872 105.016C299.872 105.016 299.872 105.032 299.872 105.064C299.888 105.096 299.904 105.112 299.92 105.112C300.224 105.128 300.584 105.144 301 105.16C301.432 105.16 301.776 105.16 302.032 105.16C302.4 105.16 302.728 105.152 303.016 105.136C303.32 105.12 303.648 105.104 304 105.088C304.032 105.088 304.048 105.072 304.048 105.04C304.064 104.992 304.072 104.968 304.072 104.968L302.008 99.304ZM319.943 96.592C320.343 96.592 320.695 96.584 320.999 96.568C321.303 96.536 321.583 96.512 321.839 96.496C321.935 96.8 322.111 97.272 322.367 97.912C322.639 98.552 322.951 99.312 323.303 100.192C323.671 101.056 324.063 101.976 324.479 102.952C324.895 103.928 325.303 104.904 325.703 105.88C326.103 106.84 326.471 107.736 326.807 108.568C326.823 108.6 326.855 108.616 326.903 108.616C326.951 108.616 326.983 108.584 326.999 108.52C327.463 107.336 327.879 106.272 328.247 105.328C328.615 104.368 328.983 103.416 329.351 102.472C329.735 101.512 330.151 100.456 330.599 99.304C330.743 98.936 330.895 98.536 331.055 98.104C331.215 97.672 331.351 97.296 331.463 96.976C331.575 96.656 331.631 96.496 331.631 96.496C332.383 96.544 332.999 96.568 333.479 96.568C333.895 96.568 334.359 96.56 334.871 96.544C335.399 96.528 335.807 96.512 336.095 96.496C336.111 96.528 336.127 96.648 336.143 96.856C336.159 97.064 336.167 97.168 336.167 97.168C336.055 97.168 335.871 97.184 335.615 97.216C335.375 97.248 335.143 97.296 334.919 97.36C334.695 97.424 334.559 97.496 334.511 97.576C334.463 97.688 334.431 97.832 334.415 98.008C334.399 98.184 334.391 98.344 334.391 98.488C334.407 98.888 334.423 99.496 334.439 100.312C334.455 101.128 334.471 102.048 334.487 103.072C334.519 104.08 334.543 105.08 334.559 106.072C334.591 107.064 334.615 107.944 334.631 108.712C334.647 109.16 334.671 109.584 334.703 109.984C334.735 110.384 334.807 110.72 334.919 110.992C334.967 111.104 335.111 111.192 335.351 111.256C335.591 111.304 335.831 111.344 336.071 111.376C336.327 111.392 336.487 111.4 336.551 111.4C336.615 111.512 336.639 111.648 336.623 111.808C336.623 111.952 336.615 112.04 336.599 112.072C336.135 112.04 335.679 112.016 335.231 112C334.799 111.968 334.327 111.952 333.815 111.952C333.271 111.952 332.799 111.968 332.399 112C331.999 112.016 331.527 112.04 330.983 112.072C330.967 112.04 330.951 111.944 330.935 111.784C330.919 111.624 330.935 111.496 330.983 111.4C331.079 111.4 331.231 111.392 331.439 111.376C331.647 111.344 331.855 111.312 332.063 111.28C332.271 111.232 332.423 111.184 332.519 111.136C332.599 111.088 332.655 110.952 332.687 110.728C332.719 110.504 332.735 110.312 332.735 110.152C332.735 109.976 332.727 109.752 332.711 109.48C332.695 109.192 332.687 108.96 332.687 108.784C332.655 107.648 332.623 106.56 332.591 105.52C332.559 104.464 332.527 103.392 332.495 102.304C332.463 101.2 332.423 100.016 332.375 98.752C332.375 98.704 332.359 98.616 332.327 98.488C332.295 98.36 332.239 98.296 332.159 98.296C332.127 98.296 332.087 98.352 332.039 98.464C331.559 99.664 331.111 100.776 330.695 101.8C330.295 102.824 329.903 103.816 329.519 104.776C329.135 105.72 328.743 106.688 328.343 107.68C327.959 108.656 327.543 109.712 327.095 110.848C327.063 110.912 326.991 111.04 326.879 111.232C326.767 111.424 326.647 111.608 326.519 111.784C326.407 111.944 326.303 112.032 326.207 112.048C326.175 112.064 326.119 112.056 326.039 112.024C326.023 112.008 326.007 112 325.991 112L320.279 98.32C320.263 99.344 320.239 100.4 320.207 101.488C320.175 102.576 320.143 103.632 320.111 104.656C320.095 105.68 320.071 106.608 320.039 107.44C320.023 108.256 320.007 108.92 319.991 109.432C319.975 109.928 319.967 110.2 319.967 110.248C319.967 110.36 319.975 110.488 319.991 110.632C320.007 110.76 320.031 110.872 320.063 110.968C320.111 111.08 320.271 111.168 320.543 111.232C320.831 111.296 321.119 111.344 321.407 111.376C321.695 111.392 321.871 111.4 321.935 111.4C321.999 111.464 322.023 111.584 322.007 111.76C321.991 111.936 321.975 112.04 321.959 112.072C321.495 112.04 321.095 112.016 320.759 112C320.423 111.968 319.999 111.952 319.487 111.952C318.943 111.952 318.487 111.968 318.119 112C317.751 112.016 317.295 112.04 316.751 112.072C316.735 112.04 316.719 111.944 316.703 111.784C316.687 111.624 316.703 111.496 316.751 111.4C316.847 111.4 317.031 111.384 317.303 111.352C317.591 111.32 317.871 111.272 318.143 111.208C318.415 111.144 318.583 111.064 318.647 110.968C318.759 110.808 318.831 110.64 318.863 110.464C318.895 110.272 318.919 110.048 318.935 109.792C318.983 108.384 319.023 107.032 319.055 105.736C319.103 104.44 319.135 103.28 319.151 102.256C319.183 101.216 319.207 100.376 319.223 99.736C319.239 99.08 319.247 98.696 319.247 98.584C319.247 98.408 319.239 98.24 319.223 98.08C319.223 97.92 319.199 97.776 319.151 97.648C319.119 97.552 318.983 97.472 318.743 97.408C318.519 97.328 318.279 97.272 318.023 97.24C317.783 97.192 317.615 97.168 317.519 97.168C317.503 97.168 317.495 97.064 317.495 96.856C317.495 96.632 317.503 96.512 317.519 96.496C317.887 96.512 318.183 96.528 318.407 96.544C318.631 96.56 318.855 96.576 319.079 96.592C319.303 96.592 319.591 96.592 319.943 96.592ZM352.103 96.376C353.143 96.376 354.119 96.568 355.031 96.952C355.959 97.336 356.775 97.888 357.479 98.608C358.183 99.312 358.735 100.152 359.135 101.128C359.551 102.088 359.759 103.152 359.759 104.32C359.759 105.424 359.551 106.456 359.135 107.416C358.735 108.36 358.183 109.2 357.479 109.936C356.775 110.656 355.959 111.224 355.031 111.64C354.119 112.04 353.143 112.24 352.103 112.24C351.079 112.24 350.103 112.048 349.175 111.664C348.263 111.28 347.455 110.736 346.751 110.032C346.063 109.312 345.519 108.472 345.119 107.512C344.719 106.536 344.519 105.472 344.519 104.32C344.519 103.216 344.719 102.184 345.119 101.224C345.519 100.264 346.063 99.424 346.751 98.704C347.455 97.968 348.263 97.4 349.175 97C350.103 96.584 351.079 96.376 352.103 96.376ZM351.767 97.168C350.887 97.168 350.135 97.368 349.511 97.768C348.887 98.152 348.375 98.664 347.975 99.304C347.591 99.944 347.303 100.656 347.111 101.44C346.935 102.224 346.847 103.008 346.847 103.792C346.847 104.704 346.967 105.616 347.207 106.528C347.463 107.424 347.831 108.248 348.311 109C348.791 109.736 349.375 110.328 350.063 110.776C350.767 111.224 351.575 111.448 352.487 111.448C353.367 111.448 354.119 111.256 354.743 110.872C355.367 110.472 355.879 109.944 356.279 109.288C356.679 108.632 356.967 107.912 357.143 107.128C357.335 106.328 357.431 105.536 357.431 104.752C357.431 103.84 357.303 102.936 357.047 102.04C356.807 101.144 356.439 100.328 355.943 99.592C355.463 98.856 354.871 98.272 354.167 97.84C353.479 97.392 352.679 97.168 351.767 97.168ZM370.24 96.52C370.592 96.52 370.936 96.52 371.272 96.52C371.608 96.52 371.856 96.512 372.016 96.496C372.256 96.864 372.64 97.384 373.168 98.056C373.696 98.728 374.312 99.496 375.016 100.36C375.72 101.208 376.448 102.088 377.2 103C377.952 103.912 378.68 104.816 379.384 105.712C380.088 106.592 380.696 107.392 381.208 108.112V99.232C381.208 98.816 381.2 98.488 381.184 98.248C381.168 98.008 381.096 97.792 380.968 97.6C380.92 97.52 380.776 97.448 380.536 97.384C380.296 97.304 380.04 97.248 379.768 97.216C379.512 97.168 379.32 97.144 379.192 97.144C379.128 97.064 379.096 96.952 379.096 96.808C379.112 96.648 379.128 96.536 379.144 96.472C379.608 96.488 380.04 96.512 380.44 96.544C380.856 96.56 381.32 96.568 381.832 96.568C382.2 96.568 382.496 96.568 382.72 96.568C382.96 96.552 383.2 96.536 383.44 96.52C383.696 96.504 384 96.488 384.352 96.472C384.384 96.536 384.408 96.632 384.424 96.76C384.44 96.888 384.416 97.016 384.352 97.144C384.256 97.144 384.064 97.16 383.776 97.192C383.504 97.224 383.24 97.28 382.984 97.36C382.728 97.424 382.568 97.504 382.504 97.6C382.392 97.776 382.328 97.976 382.312 98.2C382.296 98.424 382.288 98.76 382.288 99.208V108.736C382.288 109.184 382.288 109.576 382.288 109.912C382.288 110.248 382.288 110.576 382.288 110.896C382.304 111.2 382.32 111.56 382.336 111.976C382.32 112.04 382.272 112.08 382.192 112.096C382.112 112.112 382.056 112.12 382.024 112.12C381.96 112.12 381.848 112.08 381.688 112C381.544 111.92 381.384 111.776 381.208 111.568L370.984 98.656V109.312C370.984 109.728 370.992 110.056 371.008 110.296C371.04 110.52 371.112 110.728 371.224 110.92C371.272 111 371.408 111.08 371.632 111.16C371.872 111.224 372.12 111.28 372.376 111.328C372.648 111.376 372.848 111.4 372.976 111.4C373.04 111.48 373.072 111.592 373.072 111.736C373.072 111.88 373.056 111.992 373.024 112.072C372.56 112.04 372.128 112.016 371.728 112C371.328 111.968 370.872 111.952 370.36 111.952C370.008 111.952 369.704 111.96 369.448 111.976C369.208 111.992 368.968 112.008 368.728 112.024C368.504 112.04 368.208 112.056 367.84 112.072C367.808 112.008 367.784 111.912 367.768 111.784C367.752 111.656 367.776 111.528 367.84 111.4C367.936 111.4 368.12 111.384 368.392 111.352C368.664 111.304 368.928 111.248 369.184 111.184C369.456 111.104 369.616 111.016 369.664 110.92C369.776 110.744 369.84 110.552 369.856 110.344C369.888 110.12 369.904 109.784 369.904 109.336V99.16C369.904 98.712 369.888 98.376 369.856 98.152C369.84 97.928 369.776 97.728 369.664 97.552C369.616 97.456 369.456 97.376 369.184 97.312C368.928 97.232 368.664 97.176 368.392 97.144C368.12 97.112 367.936 97.096 367.84 97.096C367.776 96.968 367.752 96.84 367.768 96.712C367.784 96.584 367.808 96.488 367.84 96.424C368.384 96.44 368.824 96.464 369.16 96.496C369.496 96.512 369.856 96.52 370.24 96.52ZM398.508 96.568C400.22 96.568 401.692 96.904 402.924 97.576C404.156 98.232 405.1 99.136 405.756 100.288C406.412 101.424 406.74 102.72 406.74 104.176C406.74 105.168 406.604 106.136 406.332 107.08C406.06 108.024 405.596 108.872 404.94 109.624C404.3 110.376 403.428 110.976 402.324 111.424C401.22 111.856 399.844 112.072 398.196 112.072H392.34C392.276 112.008 392.244 111.896 392.244 111.736C392.26 111.576 392.292 111.464 392.34 111.4C392.436 111.4 392.612 111.392 392.868 111.376C393.124 111.344 393.364 111.296 393.588 111.232C393.828 111.168 393.956 111.096 393.972 111.016C394.036 110.824 394.068 110.576 394.068 110.272C394.084 109.968 394.092 109.64 394.092 109.288V99.28C394.092 98.928 394.084 98.6 394.068 98.296C394.068 97.976 394.036 97.72 393.972 97.528C393.956 97.432 393.828 97.36 393.588 97.312C393.364 97.264 393.124 97.232 392.868 97.216C392.612 97.184 392.436 97.168 392.34 97.168C392.292 97.104 392.26 96.992 392.244 96.832C392.244 96.672 392.276 96.56 392.34 96.496C392.82 96.512 393.292 96.536 393.756 96.568C394.22 96.584 394.676 96.592 395.124 96.592C395.588 96.592 396.14 96.592 396.78 96.592C397.42 96.576 397.996 96.568 398.508 96.568ZM396.156 99.328V109.312C396.156 109.424 396.156 109.608 396.156 109.864C396.156 110.104 396.164 110.344 396.18 110.584C396.212 110.808 396.244 110.944 396.276 110.992C396.372 111.12 396.604 111.208 396.972 111.256C397.356 111.304 397.764 111.328 398.196 111.328C399.316 111.328 400.34 111.088 401.268 110.608C402.212 110.128 402.972 109.4 403.548 108.424C404.124 107.432 404.412 106.176 404.412 104.656C404.412 103.328 404.228 102.2 403.86 101.272C403.508 100.344 403.02 99.592 402.396 99.016C401.788 98.424 401.092 98 400.308 97.744C399.54 97.472 398.732 97.336 397.884 97.336C397.788 97.336 397.612 97.344 397.356 97.36C397.1 97.36 396.86 97.376 396.636 97.408C396.412 97.44 396.284 97.496 396.252 97.576C396.204 97.736 396.172 97.952 396.156 98.224C396.156 98.48 396.156 98.752 396.156 99.04C396.156 99.088 396.156 99.136 396.156 99.184C396.156 99.232 396.156 99.28 396.156 99.328ZM420.285 96.4C420.781 96.4 421.189 96.432 421.509 96.496C421.845 96.544 422.181 96.616 422.517 96.712C422.869 96.808 423.301 96.92 423.813 97.048C423.909 97.656 423.981 98.288 424.029 98.944C424.093 99.584 424.133 100.064 424.149 100.384C424.165 100.464 424.109 100.528 423.981 100.576C423.853 100.608 423.749 100.624 423.669 100.624C423.557 100.624 423.469 100.592 423.405 100.528C423.373 100.24 423.277 99.904 423.117 99.52C422.957 99.136 422.733 98.768 422.445 98.416C422.173 98.064 421.837 97.776 421.437 97.552C421.053 97.312 420.613 97.192 420.117 97.192C419.477 97.192 418.973 97.328 418.605 97.6C418.237 97.872 417.973 98.208 417.813 98.608C417.653 99.008 417.573 99.4 417.573 99.784C417.573 100.408 417.733 100.928 418.053 101.344C418.389 101.76 418.805 102.128 419.301 102.448C419.813 102.768 420.325 103.096 420.837 103.432C421.221 103.672 421.645 103.936 422.109 104.224C422.573 104.512 423.021 104.832 423.453 105.184C423.885 105.536 424.237 105.944 424.509 106.408C424.781 106.856 424.917 107.368 424.917 107.944C424.917 108.792 424.677 109.544 424.197 110.2C423.733 110.84 423.125 111.344 422.373 111.712C421.637 112.064 420.853 112.24 420.021 112.24C419.237 112.24 418.477 112.152 417.741 111.976C417.021 111.8 416.373 111.656 415.797 111.544C415.701 111.08 415.613 110.584 415.533 110.056C415.469 109.528 415.413 109.064 415.365 108.664C415.333 108.264 415.317 108.016 415.317 107.92C415.397 107.84 415.485 107.776 415.581 107.728C415.693 107.664 415.805 107.632 415.917 107.632C416.061 107.632 416.149 107.704 416.181 107.848C416.229 108.072 416.325 108.384 416.469 108.784C416.629 109.168 416.853 109.568 417.141 109.984C417.445 110.4 417.829 110.752 418.293 111.04C418.773 111.312 419.365 111.448 420.069 111.448C420.821 111.448 421.477 111.2 422.037 110.704C422.597 110.192 422.877 109.48 422.877 108.568C422.877 107.912 422.725 107.4 422.421 107.032C422.133 106.664 421.749 106.344 421.269 106.072C420.805 105.8 420.301 105.512 419.757 105.208C419.165 104.856 418.549 104.472 417.909 104.056C417.285 103.624 416.757 103.12 416.325 102.544C415.893 101.968 415.677 101.288 415.677 100.504C415.677 99.672 415.893 98.952 416.325 98.344C416.773 97.72 417.349 97.24 418.053 96.904C418.757 96.568 419.501 96.4 420.285 96.4Z" fill="white"/>
<path d="M0 71.7419V63.0347H0.385905V71.7419L0.257671 71.9999L0 71.7419ZM0.257671 71.9999H0V71.7419L0.257671 71.9999ZM8.83031 71.9999H0.257671V71.6135H8.83031H8.95855L8.83031 71.9999ZM8.95855 71.6135L9.98324 71.9999H8.8363L8.95855 71.6135ZM2.56352 69.1751L8.95974 71.6123L8.8363 71.9999L2.44008 69.4331L2.31184 69.3047L2.56352 69.1751ZM2.43409 69.4331H2.31064L2.31184 69.3047L2.43409 69.4331ZM0.385905 63.0347L2.69176 69.1751L2.31184 69.3035L0 63.1631V63.0347H0.385905ZM0 63.0347V61.8743L0.385905 63.0347H0Z" fill="white"/>
<path d="M71.5221 71.7419V63.0347H71.914V71.7419L71.6504 71.9999L71.5221 71.7419ZM71.914 71.7419V71.9999H71.6504L71.914 71.7419ZM62.9555 71.6135H71.6516L71.6504 71.9999H62.9555V71.6135ZM62.9555 71.9999H61.932L62.9555 71.6135V71.9999ZM69.48 69.4331L63.0837 71.9999L62.9555 71.6135L69.3517 69.1763L69.6094 69.3047L69.48 69.4331ZM69.6022 69.3047V69.4331H69.4788L69.6022 69.3047ZM71.914 63.1643L69.6022 69.3047L69.2223 69.1871L71.5221 63.0347H71.9081V63.1631L71.914 63.1643ZM71.5221 63.0347L71.914 61.8743V63.0347H71.5221Z" fill="white"/>
<path d="M0.385905 0.258V8.8416H0V0.258L0.257671 0L0.385905 0.258ZM0 0.258V0H0.257671L0 0.258ZM8.83031 0.3864H0.257671V0H8.83031L8.95855 0.3864H8.83031ZM8.83031 0H9.98324L8.95855 0.3864L8.83031 0ZM2.43409 2.4372L8.83031 0L8.95855 0.3864L2.56233 2.8176L2.30465 2.5656L2.43409 2.4372ZM2.31184 2.5668V2.4372H2.43409L2.31184 2.5668ZM0 8.8416L2.31184 2.5668L2.69176 2.6904L0.385905 8.9712L0 8.8416ZM0.385905 8.9712L0 9.9912V8.8428L0.385905 8.9712Z" fill="white"/>
<path d="M71.9141 0.258V8.8416H71.5222V0.258L71.6505 0L71.9141 0.258ZM71.6505 0H71.9141V0.258L71.6505 0ZM62.9556 0H71.6505L71.6517 0.3864H62.9556V0ZM62.9556 0.3864L61.9309 0H62.9556V0.3864ZM69.3506 2.8188L62.9556 0.3864L63.0838 0L69.4801 2.4372L69.6035 2.5656L69.3506 2.8188ZM69.4801 2.4372H69.6035V2.5656L69.4801 2.4372ZM71.5222 8.9712L69.2224 2.6964L69.6083 2.568L71.9141 8.8428L71.5222 8.9712ZM71.9141 8.8416V9.99L71.5222 8.9712L71.9141 8.8416Z" fill="white"/>
<path d="M24.7016 63.6684L33.2683 65.0868L33.14 65.4624L24.5734 64.056V63.9276L24.7016 63.6684ZM17.5324 58.8048L24.6956 63.6684L24.5722 63.9264L17.4041 59.0628H17.2759L17.5324 58.8048ZM17.2759 59.0628L16.5077 58.032L17.5312 58.806L17.2759 59.0628ZM23.291 66.75L17.2759 59.0628L17.6546 58.8048L23.6757 66.492L23.5475 66.8784L23.291 66.75ZM23.5475 66.8784H23.4205L23.297 66.75L23.5475 66.8784ZM33.2683 65.4612L23.5487 66.8796L23.4205 66.4932L33.14 65.0868H33.2683V65.4612ZM33.2683 65.0868L34.5494 65.3316L33.2683 65.4612V65.0868Z" fill="white"/>
<path d="M48.4948 5.24958L54.6334 12.9428L54.2534 13.1948L48.2371 5.37798L48.3654 5.12598L48.4948 5.24958ZM48.3654 5.12598H48.4948V5.24958L48.3654 5.12598ZM38.6398 6.40398L48.3654 5.12598V5.50758L38.768 6.79038H38.6398V6.40398ZM38.6398 6.79038L37.3646 6.66678L38.6398 6.40398V6.79038ZM47.2196 8.33118L38.647 6.79038L38.7704 6.40398L47.2208 7.94478H47.3443L47.2196 8.33118ZM54.2534 13.1948L47.0902 8.33118L47.3431 7.94478L54.5099 12.9428H54.6334L54.2534 13.1948ZM54.6334 12.9428L55.4004 13.9676L54.2534 13.1936L54.6334 12.9428Z" fill="white"/>
<path d="M8.32218 24.7257L6.78335 33.3093L6.39744 33.1809L7.93627 24.5973L8.32218 24.7257ZM13.1844 17.5545L8.32098 24.7269L7.93507 24.5985L12.9267 17.4261V17.2977L13.1844 17.5545ZM12.9267 17.2965L13.9502 16.5225L13.1832 17.5533L12.9267 17.2965ZM5.24931 23.3205L12.9267 17.2917L13.1844 17.6781L5.37754 23.7021L5.11987 23.5737L5.24931 23.3205ZM5.12107 23.5725V23.4489L5.24931 23.3205L5.12107 23.5725ZM6.39624 33.3105L5.12107 23.5725L5.50698 23.4489L6.78215 33.1809V33.3045H6.39624V33.3105ZM6.78215 33.3105L6.65391 34.5933L6.39624 33.3105H6.78215Z" fill="white"/>
<path d="M66.6649 48.5504L58.9875 54.5744L58.7298 54.3164L66.4012 48.2924L66.7931 48.4208L66.6649 48.5504ZM66.7943 48.422V48.5504H66.6661L66.7943 48.422ZM65.3837 38.6888L66.7943 48.422L66.4072 48.4208L65.0026 38.6888H65.3837ZM64.9978 38.6888L65.2555 37.406L65.3837 38.6888H64.9978ZM63.5932 47.2736L64.9978 38.6888L65.3837 38.8136L63.9731 47.2748L63.8497 47.4032L63.5932 47.2736ZM63.9731 47.2748V47.402L63.8497 47.4032L63.9731 47.2748ZM58.7298 54.3164L63.5932 47.144L63.8509 47.402L58.9875 54.5744L58.7298 54.3164ZM58.9875 54.5744L57.964 55.4768L58.731 54.3164L58.9875 54.5744Z" fill="white"/>
<path d="M8.4505 47.5307L13.4361 54.7031L13.0562 54.9611L8.19283 47.7887L8.06459 47.6603L8.4505 47.5307ZM8.19283 47.7887H8.06939V47.6603L8.19283 47.7887ZM6.91167 39.0755L8.4505 47.6591H8.07058L6.52576 39.2039V39.0755H6.91167ZM6.52576 39.0755L6.654 37.7927L6.91167 39.0755H6.52576ZM5.24939 48.8087L6.52456 39.0767L6.91047 39.2051L5.6353 48.8087L5.37763 49.0667L5.24939 48.8087ZM5.37763 49.0667L5.25059 48.9383V48.8099L5.37763 49.0667ZM13.1844 54.9611L5.37763 49.0667L5.6353 48.6803L13.4421 54.5747V54.7031L13.1844 54.9611ZM13.4421 54.7031L14.2091 55.7339L13.1856 54.9599L13.4421 54.7031Z" fill="white"/>
<path d="M66.5363 23.1912L65.3834 32.7948H64.9975L66.1504 23.0628L66.5363 22.9344V23.1912ZM66.5363 22.9344L66.6646 23.0616L66.5363 23.1912V22.9344ZM58.7295 17.0388L66.5363 22.9344L66.2787 23.3196L58.4778 17.2956L58.7295 17.0388ZM58.4778 17.2956L57.7108 16.272L58.7295 17.04L58.4778 17.2956ZM63.4635 24.3456L58.4778 17.2956L58.7295 17.0388L63.7211 24.216L63.4635 24.3456ZM64.9975 32.9244L63.3352 24.3468L63.7211 24.2184L65.3834 32.7948L64.9975 32.9244ZM65.3834 32.7948L65.2552 34.0836L64.9975 32.9244L65.3834 32.7948Z" fill="white"/>
<path d="M47.4714 63.5389L54.6347 58.5469L54.8923 58.8049L47.7291 63.7969H47.6009L47.4714 63.5389ZM39.027 65.0857L47.5997 63.4213L47.6009 63.7969L39.1493 65.4613H39.0258L39.027 65.0857ZM39.0258 65.4613L37.7458 65.3329L39.027 65.0857L39.0258 65.4613ZM48.7526 66.6217L39.0258 65.4613L39.027 65.0857L48.7526 66.2341L48.876 66.6205H48.7526V66.6217ZM54.8911 58.8049L48.8808 66.6217L48.6231 66.3637L54.51 58.5469H54.6335L54.8911 58.8049ZM54.6335 58.5469L55.6629 57.7729L54.8899 58.8037L54.6335 58.5469Z" fill="white"/>
<path d="M23.1616 5.24976L32.8872 6.53256L32.7589 6.91896L23.0334 5.63616L22.9051 5.37816L23.1616 5.24976ZM22.9051 5.37816L23.0334 5.24976H23.1568L22.9051 5.37816ZM17.017 13.195L22.9051 5.37816L23.2898 5.63616L17.2735 13.453L17.017 13.195ZM17.2735 13.453L16.2512 14.221L17.0182 13.1962L17.2735 13.453ZM24.444 8.45496L17.2759 13.453L17.0182 13.0666L24.1863 8.06856L24.444 8.45496ZM32.8884 6.92016L24.3157 8.45496L24.1863 8.07456L32.7601 6.53376H32.8884V6.92016ZM32.8884 6.53376L34.1695 6.66696L32.8884 6.91896V6.53376Z" fill="white"/>
<path d="M35.7022 61.8755L34.421 53.6723H34.8069L36.0821 61.8755H35.7022ZM36.0821 61.8755L35.9551 63.0359L35.7022 61.8755H36.0821ZM37.4927 53.6831L36.0881 61.8863H35.7022L37.1068 53.6831L37.4927 53.5547V53.6831ZM36.7269 52.1483L37.4927 53.5547L37.108 53.8127L36.341 52.4063V52.2779L36.7269 52.1483ZM37.4927 40.8695L36.7257 52.2779H36.341L37.1068 40.8695H37.4927ZM36.0833 38.0507L37.4879 40.8695L37.108 40.9979L35.7034 38.3087V38.0507H36.0833ZM35.7034 38.0507L35.9599 37.6643L36.0881 38.0507H35.7034ZM34.421 40.8695L35.7034 38.0507L36.0881 38.3087L34.8069 40.9979L34.421 40.8695ZM35.188 52.2659L34.421 40.8695H34.8069L35.5739 52.2659V52.3943L35.188 52.2659ZM34.421 53.5547L35.188 52.1483L35.5739 52.4063L34.8069 53.8127L34.421 53.6843V53.5547Z" fill="white"/>
<path d="M36.0833 10.1196L34.8081 18.3228H34.4222L35.7034 10.1196H36.0833ZM35.7034 10.1196L35.9599 8.84277L36.0881 10.1196H35.7034ZM37.1068 18.3228L35.7034 10.1196H36.0881L37.4927 18.3228V18.4512L37.1068 18.3228ZM36.3398 19.5996L37.1068 18.1932L37.4927 18.4512L36.7257 19.734H36.3398V19.5996ZM37.1068 31.002L36.3398 19.734L36.7257 19.6056L37.4927 31.008V31.1316L37.1068 31.002ZM35.7022 33.6972L37.1068 31.002L37.4927 31.1304L36.0881 33.8256H35.7022V33.6972ZM36.0833 33.8256L35.9551 34.206L35.7022 33.8256H36.0833ZM34.8069 31.002L36.0821 33.6972L35.7022 33.8256L34.421 31.1304V31.002H34.8069ZM35.5739 19.728L34.8069 31.002H34.421L35.188 19.5996H35.5739V19.728ZM34.8069 18.1932L35.5739 19.5996L35.188 19.728L34.421 18.4512L34.4222 18.3228L34.8069 18.1932Z" fill="white"/>
<path d="M60.6497 36.1285L52.8489 37.5349L52.7206 37.1545L60.5215 35.7421H60.6497V36.1285ZM60.6497 35.7421L61.6732 36.0001L60.6497 36.1285V35.7421ZM52.8489 34.3357L60.6497 35.7421L60.5215 36.1285L52.7206 34.7221V34.3357H52.8489ZM51.31 35.2321L52.7206 34.3357L52.8441 34.7161L51.5689 35.6125H51.4407L51.31 35.2321ZM40.694 34.3357L51.4383 35.2321V35.6185L40.5658 34.7221V34.3357H40.694ZM37.874 35.7421L40.5658 34.3357L40.6892 34.7221L38.1317 36.1285H37.874V35.7421ZM37.874 36.1285L37.6163 36.0001L37.874 35.7421V36.1285ZM40.5658 37.5349L37.88 36.1285L38.1317 35.7421L40.6952 37.1545V37.5349H40.5658ZM51.4383 36.7681L40.694 37.5349L40.5658 37.1557L51.4383 36.3877H51.5665L51.4383 36.7681ZM52.7194 37.5349L51.3088 36.7669L51.5665 36.3865L52.8477 37.2769V37.5349H52.7194ZM52.8489 37.5349L52.7206 37.6633L52.7194 37.5349H52.8489Z" fill="white"/>
<path d="M11.3878 35.7421L19.1947 37.1545L19.0712 37.5349L11.2644 36.1285V35.7421H11.3878ZM11.2644 36.1285L10.1127 36.0001L11.2644 35.7421V36.1285ZM19.1947 34.7233L11.3878 36.1297L11.2644 35.7421L19.0712 34.3369H19.1947V34.7233ZM20.3476 35.6137L18.943 34.7173L19.1947 34.3369L20.4758 35.2333V35.6137H20.3476ZM31.2201 34.7233L20.4758 35.6197L20.3476 35.2333L31.2201 34.3369H31.3483L31.2201 34.7233ZM33.7776 36.1285L31.0978 34.7221L31.3495 34.3357L33.9071 35.7421V36.1285H33.7776ZM33.9071 35.7421L34.2918 36.0001L33.9071 36.1285V35.7421ZM31.0966 37.1545L33.7764 35.7421L33.9047 36.1285L31.3471 37.5349H31.2189L31.0966 37.1545ZM20.4758 36.3865L31.2261 37.1545V37.5349L20.3476 36.7669V36.3865H20.4758ZM18.943 37.2769L20.3476 36.3865L20.4758 36.7669L19.1947 37.5349H19.0664L18.943 37.2769ZM19.1947 37.5349V37.6633L19.0712 37.5349H19.1947Z" fill="white"/>
<path d="M18.3056 54.1873L22.9053 47.4025L23.2912 47.5309L18.6855 54.4453L18.3056 54.1873ZM18.6855 54.4453L17.662 55.0897L18.3056 54.1873L18.6855 54.4453ZM25.0817 49.5817L18.6855 54.4453L18.4278 54.0589L24.824 49.3249L25.2099 49.5829L25.0817 49.5817ZM25.5911 47.9185L25.2099 49.5829L24.8252 49.4545L25.2111 47.9197V47.7913L25.5911 47.9185ZM33.6543 40.6117L25.4676 48.0469L25.2099 47.7901L33.3967 40.3537L33.7766 40.4821L33.6543 40.6117ZM33.7766 40.4821L33.7778 40.6105L33.6543 40.6117L33.7766 40.4821ZM34.679 37.5349L33.7766 40.4821L33.3979 40.3585L34.2991 37.4053L34.4226 37.2817L34.679 37.5349ZM34.4214 37.2769L34.8073 37.1533L34.679 37.5349L34.4214 37.2769ZM31.6062 38.3029L34.4214 37.2769L34.5496 37.6645L31.7344 38.6893L31.4767 38.3029H31.6062ZM24.4441 47.0161L31.4767 38.3029L31.8638 38.5609L24.7006 47.2741H24.5724L24.4441 47.0161ZM23.0335 47.2741L24.5724 46.8877V47.2741L23.1558 47.6605L22.9053 47.4025L23.0335 47.2741ZM22.9053 47.4025V47.2741H23.0335L22.9053 47.4025Z" fill="white"/>
<path d="M53.4865 17.8128L46.9621 22.6764L46.8338 22.29L53.23 17.556L53.4865 17.8128ZM53.2289 17.5548L54.1241 16.7808L53.4865 17.8056L53.2289 17.5548ZM48.6243 24.3456L53.23 17.556L53.4877 17.8128L49.0114 24.5976L48.8832 24.726L48.6243 24.3456ZM49.0042 24.5976H48.8808V24.726L49.0042 24.5976ZM47.2197 24.5976L48.7526 24.3456L48.8808 24.726L47.342 24.984L47.2185 24.726V24.5976H47.2197ZM40.0505 33.3108L47.2137 24.7272L47.4714 24.9852L40.3082 33.5628V33.6972L40.0505 33.3108ZM37.3647 34.2072L40.1799 33.3048L40.3082 33.6912L37.493 34.5876L37.2353 34.3296L37.3647 34.2072ZM37.493 34.5936L37.1071 34.7172L37.2353 34.3368L37.493 34.5936ZM38.5177 31.518L37.6224 34.4652L37.2365 34.3368L38.1317 31.3896L38.5177 31.518ZM46.7044 24.2172L38.3834 31.6464L38.1317 31.3884L46.4467 23.8296L46.7044 24.0876V24.2172ZM47.0903 22.5468L46.7044 24.0876L46.3245 23.9592L46.7044 22.4184L46.8326 22.2948L47.0903 22.5468ZM46.7044 22.4184V22.29H46.8338L46.7044 22.4184Z" fill="white"/>
<path d="M53.229 54.4456L46.8328 49.582L46.961 49.324L53.4855 54.058V54.1864L53.229 54.4456ZM53.4867 54.1876L54.1242 55.09L53.229 54.4456L53.4867 54.1876ZM49.0044 47.4028L53.4867 54.1876L53.229 54.4456L48.6233 47.5312L48.875 47.2732L49.0044 47.4028ZM47.3421 46.8868L48.881 47.2744L48.7527 47.6596L47.2199 47.2732L47.3421 46.8868ZM40.3083 38.3032L47.4716 47.0164L47.2139 47.2744L40.0506 38.5612L40.3083 38.3032ZM37.4931 37.2772L40.3083 38.3032L40.1801 38.6884L37.3649 37.6636L37.2366 37.5352L37.4931 37.2772ZM37.2366 37.5352L37.1084 37.1548L37.4943 37.2784L37.2366 37.5352ZM38.1319 40.4824L37.2366 37.5352L37.6165 37.4068L38.5118 40.36L38.1319 40.612V40.4824ZM46.4529 48.0472L38.1319 40.612L38.3896 40.354L46.7045 47.7892V47.9068L46.4529 48.0472ZM46.7045 49.582L46.3246 47.9176H46.7045L47.0904 49.4524L46.8328 49.582H46.7045Z" fill="white"/>
<path d="M18.6855 17.555L23.2972 24.3458L22.9053 24.5978L18.3056 17.813L18.6855 17.555ZM18.3056 17.813L17.662 16.7822L18.6855 17.555L18.3056 17.813ZM24.824 22.6754L18.4278 17.8118L18.6855 17.555L25.0817 22.2878L25.2099 22.4162L24.824 22.6754ZM25.0817 22.2878L25.2099 22.289V22.4162L25.0817 22.2878ZM25.2099 24.0878L24.824 22.547L25.2099 22.4186L25.5899 23.9594L25.2099 24.2174V24.0878ZM33.3967 31.6406L25.2099 24.2114L25.4676 23.831L33.6543 31.3898H33.7778L33.3967 31.6406ZM34.2979 34.4654L33.3967 31.5182L33.7778 31.3898L34.6778 34.337L34.4202 34.595L34.2979 34.4654ZM34.679 34.3358L34.8073 34.7222L34.4214 34.5938L34.679 34.3358ZM31.7356 33.311L34.5508 34.2074L34.4214 34.5938L31.6074 33.6974L31.4791 33.563L31.7356 33.311ZM31.6074 33.6974H31.4779L31.4791 33.563L31.6074 33.6974ZM24.7018 24.7262L31.865 33.3098L31.4791 33.563L24.4453 24.9842L24.5736 24.5978L24.7018 24.7262ZM23.1618 24.3458L24.5736 24.5978L24.5724 24.9842L23.0335 24.7262L22.9053 24.5978L23.1618 24.3458Z" fill="white"/>
<path d="M46.7043 15.3755L44.0185 17.2979L43.7609 16.9115L46.4466 14.9891H46.7043V15.3755ZM46.4526 14.9879H46.5761H46.7043H46.4526ZM48.3666 16.2719L46.4466 15.3755L46.7043 14.9891L48.6243 15.8855V16.1435L48.3666 16.2719ZM48.6243 15.8843H48.7525L48.6243 16.1435V15.8843ZM45.6796 22.6751L48.2372 16.0127L48.6231 16.1411L46.0655 22.8035V22.9319L45.6796 22.6751ZM38.5176 30.3635L45.6808 22.6763L46.0667 22.9331L38.8987 30.6215L38.5188 30.4931V30.3635H38.5176ZM38.8987 30.6215L38.5176 31.0019V30.4919L38.8987 30.6215ZM38.8975 19.7279V30.4919H38.5176V19.7279V19.5995L38.8975 19.7279ZM41.5833 13.0727L38.8975 19.7351L38.5176 19.6067L41.2033 12.9443L41.461 12.8159L41.5833 13.0727ZM41.2033 12.9443V12.6851L41.461 12.8135L41.2033 12.9443ZM43.2455 13.9691L41.2033 13.1951L41.461 12.8135L43.375 13.5827L43.5032 13.7111L43.2455 13.9691ZM43.6314 17.1683L43.1221 13.8407L43.502 13.7123L44.1396 17.0399L44.0162 17.2979L43.6314 17.1683ZM44.0185 17.2967L43.7609 17.4251L43.6326 17.1671L44.0185 17.2967Z" fill="white"/>
<path d="M25.4674 14.9881L28.1471 17.0389L27.8955 17.2969L25.2097 15.3745V14.9881H25.4674ZM25.2097 14.9881H25.3379H25.4614H25.2097ZM23.2909 15.8845L25.2097 14.9881L25.3391 15.3745L23.4192 16.2709L23.1555 16.1425L23.2909 15.8845ZM23.1615 16.1425V15.8845H23.2957L23.1615 16.1425ZM25.8485 22.8049L23.1615 16.1425L23.5486 16.0141L26.2344 22.6765L25.8485 22.9345V22.8049ZM33.0105 30.6217L25.8485 22.9345L26.1049 22.6765L33.2682 30.3637L33.3964 30.4921L33.0105 30.6217ZM33.3964 30.4921V31.0021L33.0105 30.6217L33.3964 30.4921ZM33.3964 19.7281V30.4921H33.0105V19.7281L33.3964 19.5997V19.7281ZM30.7107 12.9433L33.3964 19.5997L33.0105 19.7281L30.3248 13.0657L30.453 12.8137L30.7107 12.9433ZM30.453 12.8137L30.5812 12.6865L30.7095 12.9445L30.453 12.8137ZM28.5342 13.5817L30.459 12.8137L30.5824 13.1941L28.6685 13.9681L28.4048 13.7101L28.5342 13.5817ZM27.7672 17.0389L28.4048 13.7101L28.7967 13.8349L28.1531 17.1685L27.8955 17.2921L27.7672 17.0389ZM28.1483 17.1685V17.4265L27.8967 17.2981L28.1483 17.1685Z" fill="white"/>
<path d="M46.4527 56.8822L43.761 54.9598L44.0186 54.7018L46.7044 56.6242V56.8822H46.4527ZM46.7044 56.8822L46.5762 57.0106L46.4527 56.8822H46.7044ZM48.6244 56.1214L46.7044 56.8822L46.4467 56.497L48.3667 55.735L48.6244 55.8634V56.1214ZM48.6244 55.8634L48.7526 55.9918L48.6244 56.1202V55.8634ZM46.0668 49.0666L48.6244 55.8634L48.3667 55.981L45.6809 49.1962L46.0668 49.0666ZM38.8976 41.3782L46.0656 49.0654L45.6797 49.3234L38.5165 41.6362V41.5078L38.8976 41.3782ZM38.5165 41.5078L38.5177 40.9978L38.8976 41.3782L38.5165 41.5078ZM38.5177 52.2658L38.5165 41.5078H38.8976V52.2658H38.5177ZM41.2034 59.0626L38.5177 52.2778L38.8976 52.1494L41.5834 58.9342L41.4599 59.1922L41.2034 59.0626ZM41.4611 59.191L41.2034 59.3194V59.0614L41.4611 59.191ZM43.3751 58.2886L41.4611 59.191L41.2034 58.8046L43.2456 58.0306L43.5033 58.159L43.3751 58.2886ZM43.5033 58.159V58.2886H43.3751L43.5033 58.159ZM44.1409 54.8314L43.5033 58.159H43.1234L43.6327 54.8314L44.0186 54.7018L44.1409 54.8314ZM43.6315 54.8314L43.7598 54.445L44.0174 54.703L43.6315 54.8314Z" fill="white"/>
<path d="M25.2098 56.6254L27.8956 54.703L28.1473 54.961L25.4675 56.8834H25.2098V56.6254ZM25.4675 56.8834L25.3393 57.0106L25.211 56.8822L25.4675 56.8834ZM23.4193 55.7338L25.3393 56.4958L25.211 56.8822L23.2971 56.1202L23.1629 55.8622L23.4193 55.7338ZM23.2911 56.1214L23.1569 55.993V55.8646L23.2911 56.1214ZM26.2345 49.195L23.5488 55.9918L23.1629 55.8634L25.8486 49.0666L26.2345 49.195ZM33.2683 41.6362L26.1051 49.3234L25.8474 49.0654L33.0107 41.3782L33.3966 41.5066L33.2683 41.6362ZM33.0107 41.3782L33.3966 40.9978V41.5066L33.0107 41.3782ZM33.0107 52.2658V41.5078L33.3966 41.5066V52.2658H33.0107ZM30.3249 58.933L33.0107 52.1482L33.3966 52.2658L30.7108 59.0626L30.4531 59.1802L30.3249 58.933ZM30.7108 59.0626L30.5826 59.191H30.4591L30.7108 59.0626ZM28.6626 57.9022L30.5826 58.8046L30.4543 59.191L28.5344 58.2886L28.4062 58.1602L28.6626 57.9022ZM28.5344 58.2886H28.4062V58.1602L28.5344 58.2886ZM28.1485 54.8314L28.7921 58.159L28.4062 58.1602L27.7686 54.8314L27.892 54.703L28.1485 54.8314ZM27.8968 54.703L28.1485 54.445V54.8314L27.8968 54.703Z" fill="white"/>
<path d="M55.5286 47.274L53.7381 44.4492L53.9958 44.1912L55.9205 47.016V47.1444L55.5286 47.274ZM54.7628 49.0668L55.5298 47.016L55.9157 47.1444L55.1487 49.1952L54.891 49.3236L54.7628 49.0668ZM55.1487 49.1952L55.0205 49.4532L54.8922 49.3248L55.1487 49.1952ZM48.6243 46.254L55.0205 48.9372L54.8922 49.3248L48.3678 46.6404V46.512L48.6243 46.254ZM41.3328 38.6892L48.6243 46.242L48.3666 46.5L41.0751 39.0756L41.2033 38.6892H41.3328ZM41.0751 39.0756L40.6952 38.6892H41.2033L41.0751 39.0756ZM51.4383 39.0756H41.2033V38.6892H51.4383H51.5665L51.4383 39.0756ZM57.7062 41.8944L51.31 39.0756L51.5665 38.6892L57.9639 41.508L58.0922 41.766L57.7062 41.8944ZM57.9627 41.508H58.091V41.766L57.9627 41.508ZM56.811 43.5588L57.7062 41.6364L58.0922 41.766L57.1969 43.8156H57.0687L56.811 43.5588ZM53.8676 44.0748L57.0687 43.4304V43.8156L53.8676 44.5908L53.7393 44.4504L53.8676 44.0748ZM53.7381 44.4492L53.4864 44.1912L53.8664 44.0736L53.7381 44.4492Z" fill="white"/>
<path d="M55.9204 24.9841L53.9956 27.6733L53.738 27.5449L55.5285 24.7261H55.9144V24.9841H55.9204ZM55.9204 24.7261V24.8545V24.9841V24.7261ZM55.1486 22.6753L55.9204 24.7261L55.5297 24.8545L54.7627 22.8037L54.8909 22.5457L55.1486 22.6753ZM54.8909 22.5457L55.0191 22.5469L55.1474 22.6753L54.8909 22.5457ZM48.3664 25.3657L54.8909 22.5457L55.0143 22.9333L48.6241 25.7461L48.3664 25.3657ZM41.075 32.9245L48.3664 25.3717L48.6241 25.7521L41.3326 33.1813L41.2044 33.3049L41.075 32.9245ZM41.2032 33.3109H40.6938L41.075 32.9245L41.2032 33.3109ZM51.4381 33.3109H41.2032V32.9245L51.4381 32.7961L51.5664 33.1825L51.4381 33.3109ZM57.9626 30.4921L51.5675 33.1813L51.3087 32.9233L57.7049 30.1045L58.0908 30.2329L57.9626 30.4921ZM58.092 30.2341V30.3625L57.9638 30.4909L58.092 30.2341ZM57.1968 28.1833L58.092 30.2341L57.7061 30.3625L56.8108 28.3177L57.0685 28.0537L57.1968 28.1833ZM57.0673 28.0549H57.1956L57.1968 28.1833L57.0673 28.0549ZM53.8674 27.4165L57.0685 28.0537V28.4413L53.8674 27.7969L53.7392 27.5449L53.8674 27.4165ZM53.8674 27.7969H53.4875L53.7392 27.5449L53.8674 27.7969Z" fill="white"/>
<path d="M15.9938 47.0157L17.7843 44.1909L18.1702 44.4489L16.3797 47.2737L15.9938 47.1453V47.0157ZM16.7608 49.1949L15.9938 47.1453L16.3797 47.0157L17.1467 49.0665L17.0185 49.3245L16.7608 49.1949ZM17.0185 49.3245L16.8938 49.4529L16.7596 49.1949L17.0185 49.3245ZM23.4195 46.6401L17.0233 49.3233L16.895 48.9369L23.2972 46.2537L23.5489 46.5117L23.4195 46.6401ZM23.5489 46.4997V46.6281H23.4207L23.5489 46.4997ZM30.8404 39.0753L23.5489 46.5117L23.2912 46.2525L30.5827 38.6877H30.711L30.8404 39.0753ZM30.711 38.6877L31.0969 38.6889L30.8404 39.0753L30.711 38.6877ZM20.476 38.6889L30.711 38.6877V39.0753H20.476L20.3478 38.6889H20.476ZM13.9516 41.5077L20.3478 38.6889L20.476 39.0753L14.0798 41.8881L13.8221 41.7645L13.9516 41.5077ZM13.8221 41.7645V41.5077H13.9516L13.8221 41.7645ZM14.5892 43.8165L13.8221 41.7645L14.2081 41.6373L14.9751 43.5597L14.7174 43.8177L14.5892 43.8165ZM17.9185 44.5893L14.7174 43.8153L14.8456 43.4289L18.0467 44.0733L18.1702 44.4489L17.9185 44.5893ZM18.0479 44.0745L18.3056 44.1921L18.1774 44.4501L18.0479 44.0745Z" fill="white"/>
<path d="M16.3797 24.7263L18.1702 27.5451L17.7843 27.6687L15.9938 24.9855V24.7275H16.3797V24.7263ZM15.9938 24.9855V24.8559V24.7275V24.9855ZM17.1467 22.8051L16.3797 24.8559L15.9998 24.7275L16.7668 22.6767L17.0245 22.5483L17.1467 22.8051ZM16.7608 22.6755L16.895 22.5471H17.0185L16.7608 22.6755ZM23.2912 25.7523L16.895 22.9335L17.0185 22.5471L23.4207 25.3719H23.5489L23.2912 25.7523ZM30.5827 33.1815L23.2972 25.7523L23.5477 25.3659L30.8404 32.9247L30.7122 33.3051L30.5827 33.1815ZM30.8404 32.9247L31.0981 33.3111H30.7122L30.8404 32.9247ZM20.476 32.7951L30.711 32.9235V33.3099H20.476L20.3478 33.1815L20.476 32.7951ZM20.476 33.3111H20.3478V33.1827L20.476 33.3111ZM14.0798 30.1059L20.476 32.9247L20.3478 33.1827L13.9516 30.4935L13.8233 30.2355L14.0798 30.1059ZM13.9516 30.4935L13.8233 30.3639V30.2355L13.9516 30.4935ZM14.9751 28.3191L14.2081 30.3639L13.8221 30.2355L14.5892 28.1847L14.7174 28.0563L14.9751 28.3191ZM18.0479 27.7971L14.8468 28.4415L14.7186 28.0551L17.9197 27.4167L18.1774 27.5451L18.0479 27.7971ZM18.1702 27.5451L18.2984 27.7971H18.0408L18.1702 27.5451Z" fill="white"/>
<path d="M156.375 71.1319H110.578C110.046 71.1319 109.729 70.8151 109.729 70.2883C109.729 69.8551 110.046 69.4327 110.578 69.4327H113.346C114.733 69.4327 115.904 68.3659 115.904 66.9715V5.02148C115.904 3.74468 114.733 2.56628 113.346 2.56628H110.578C110.046 2.56628 109.729 2.14388 109.729 1.71668C109.729 1.18388 110.046 0.861084 110.578 0.861084H130.281C130.813 0.861084 131.135 1.18388 131.135 1.71668C131.135 2.14388 130.813 2.56628 130.281 2.56628H127.512C126.126 2.56628 124.955 3.74348 124.955 5.02148V66.9727C124.955 68.2615 126.126 69.4339 127.512 69.4339H141.679C149.878 69.4339 154.776 63.0355 154.776 55.3591V53.4367C154.776 52.8979 155.099 52.5811 155.631 52.5811C156.163 52.5811 156.374 52.8979 156.374 53.4367L156.375 71.1319Z" fill="white"/>
<path d="M226.663 71.1323H202.698C202.271 71.1323 201.85 70.8155 201.85 70.2887C201.85 69.8555 202.271 69.4331 202.698 69.4331H206.531C208.24 69.4331 209.409 68.3663 209.409 66.9719C209.409 66.6551 209.304 66.2339 209.087 65.6951L202.486 48.4211H175.329L168.616 65.6951C168.511 66.2339 168.405 66.6563 168.405 66.8675C168.405 68.4731 169.471 69.4343 171.174 69.4343H175.006C175.538 69.4343 175.861 69.8567 175.861 70.2899C175.861 70.8167 175.538 71.1335 175.006 71.1335H159.248C158.821 71.1335 158.393 70.8167 158.393 70.2899C158.393 69.8567 158.82 69.4343 159.248 69.4343H161.805C164.468 69.4343 165.849 68.2619 166.703 65.6963L192.047 0.434326H194.071L219.1 65.8019C220.165 68.2631 221.869 69.4343 224.32 69.4343H226.66C227.192 69.4343 227.514 69.8567 227.514 70.2899C227.516 70.8167 227.195 71.1323 226.663 71.1323ZM201.955 46.8275L189.069 13.0199L175.966 46.8275H201.955Z" fill="white"/>
<path d="M259.245 71.1319H232.197C231.659 71.1319 231.344 70.8151 231.344 70.2883C231.344 69.8551 231.659 69.4327 232.197 69.4327H234.96C236.564 69.4327 237.524 68.2603 237.524 66.9715V5.02148C237.524 3.74468 236.564 2.56628 234.96 2.56628H232.197C231.659 2.56628 231.344 2.14388 231.344 1.71668C231.344 1.18388 231.659 0.861084 232.197 0.861084H257.009C264.255 0.861084 270.211 2.24948 274.799 5.02148C279.48 7.68788 281.821 12.0583 281.821 17.9239C281.821 26.4547 275.537 33.0703 263.61 34.7755C278.52 35.5195 286.399 41.0623 286.399 51.6211C286.398 64.1011 276.391 71.1319 259.245 71.1319ZM246.569 34.3471H256.577C265.097 34.3471 272.237 27.5215 272.237 18.2455C272.237 8.75348 267.227 2.56628 256.471 2.56628H249.134C247.529 2.56628 246.569 3.74348 246.569 5.02148V34.3471ZM258.601 36.0523H246.569V66.9727C246.569 68.2615 247.74 69.4339 249.134 69.4339H258.601C270.538 69.4339 276.811 62.1799 276.811 51.6211C276.811 42.2335 270.211 36.0523 258.601 36.0523Z" fill="white"/>
<path d="M329.642 71.7765C309.723 71.7765 297.691 56.0973 297.691 35.6241C297.691 15.0465 309.618 0.22168 329.642 0.22168C349.445 0.22168 361.594 15.0465 361.594 35.6241C361.595 56.0973 349.446 71.7765 329.642 71.7765ZM346.567 11.4201C343.056 5.12728 337.415 2.03368 329.644 2.03368C321.862 2.03368 316.221 5.12728 312.603 11.4201C309.082 17.7129 307.279 25.7109 307.279 35.6253C307.279 45.5397 309.082 53.7537 312.603 60.2577C316.221 66.7617 321.862 69.9609 329.644 69.9609C337.31 69.9609 342.951 66.7617 346.463 60.2577C350.091 53.7537 351.893 45.5385 351.893 35.6253C351.893 25.7121 350.091 17.7129 346.567 11.4201Z" fill="white"/>
<path d="M428.576 2.56628H425.801C424.21 2.56628 423.25 3.74348 423.25 5.02148V71.1331H418.989L377.347 9.92588V66.9727C377.347 68.2615 378.307 69.4339 379.899 69.4339H382.673C383.198 69.4339 383.527 69.8563 383.527 70.2895C383.527 70.8163 383.199 71.1331 382.673 71.1331H370.208C369.683 71.1331 369.365 70.8163 369.365 70.2895C369.365 69.8563 369.683 69.4339 370.208 69.4339H372.982C374.574 69.4339 375.534 68.2615 375.534 66.9727V5.02148C375.534 3.74468 374.574 2.56628 372.982 2.56628H370.208C369.683 2.56628 369.365 2.14388 369.365 1.71668C369.365 1.18388 369.683 0.861084 370.208 0.861084H381.819L421.438 58.9807V5.02148C421.438 3.74468 420.478 2.56628 418.886 2.56628H416.112C415.587 2.56628 415.258 2.14388 415.258 1.71668C415.258 1.18388 415.586 0.861084 416.112 0.861084H428.577C429.102 0.861084 429.43 1.18388 429.43 1.71668C429.429 2.14388 429.102 2.56628 428.576 2.56628Z" fill="white"/>
</svg>
