<?xml version="1.0" encoding="utf-8"?>
<!-- Generator: Adobe Illustrator 16.0.0, SVG Export Plug-In . SVG Version: 6.00 Build 0)  -->
<!DOCTYPE svg PUBLIC "-//W3C//DTD SVG 1.1//EN" "http://www.w3.org/Graphics/SVG/1.1/DTD/svg11.dtd">
<svg version="1.1" id="Layer_2" xmlns="http://www.w3.org/2000/svg" xmlns:xlink="http://www.w3.org/1999/xlink" x="0px" y="0px"
	 width="100px" height="100px" viewBox="0 0 100 100" enable-background="new 0 0 100 100" xml:space="preserve">
<path fillRule="evenodd" clip-rule="evenodd" fill="#0A3D61" d="M0.5,35.914c0.523,0.649,1.022,0.841,1.496,1.38
	C2.861,38.278,4.241,39.18,5.1,40.16c0.238,0.272,0.466,0.431,0.766,0.674c0.795,0.647,1.985,1.917,3.066,2.798
	c0.801,0.652,1.555,1.516,2.332,2.199c0.276,0.242,0.512,0.409,0.797,0.646c0.331,0.275,0.454,0.506,0.768,0.777
	c0.277,0.24,0.523,0.402,0.799,0.645c0.293,0.259,0.399,0.475,0.703,0.73l2.361,2.071c0.321,0.297,0.408,0.484,0.768,0.775
	c1.575,1.273,3.066,2.959,4.634,4.217l11.535,10.59c0.298,0.262,0.546,0.432,0.854,0.697c0.288,0.25,0.425,0.475,0.71,0.725
	l1.564,1.424c0.298,0.248,0.571,0.441,0.852,0.703L50,81.168c0.539-0.371,1.019-0.76,1.505-1.316l2.334-2.098
	c0.343-0.281,0.458-0.48,0.771-0.771c0.264-0.248,0.506-0.424,0.791-0.654l3.063-2.801c0.31-0.268,0.446-0.506,0.769-0.775
	l1.563-1.424c0.286-0.236,0.521-0.406,0.796-0.648c0.313-0.273,0.433-0.5,0.769-0.775c0.275-0.227,0.538-0.408,0.788-0.652
	l5.401-4.996c1.76-1.424,4.444-4.246,6.191-5.648l3.065-2.795c1.104-0.902,2.021-1.941,3.125-2.852l2.214-2.096
	c0.268-0.258,0.555-0.451,0.853-0.702l2.269-2.151c0.299-0.266,0.546-0.435,0.856-0.698c0.313-0.265,0.401-0.467,0.704-0.729
	c0.278-0.243,0.521-0.399,0.797-0.645c0.291-0.257,0.403-0.475,0.705-0.729c0.298-0.252,0.577-0.437,0.853-0.702
	c0.309-0.299,0.384-0.45,0.712-0.721l7.063-6.434c0.518-0.6,1.007-0.774,1.544-1.44l-0.092-0.129
	c-0.58-0.647-4.679-3.334-5.666-4.074c-3.496-2.622-8.055-5.768-11.638-8.289c-1.005-0.708-1.926-1.349-2.91-2.073
	c-0.496-0.366-0.973-0.692-1.484-1.062c-0.249-0.181-0.46-0.332-0.701-0.516c-0.435-0.332-0.449-0.253-1.088-0.253
	c-6.629,0-51.226-0.125-52.286,0.005c-0.607,0.074-11.629,8.105-13.294,9.295C9.633,29.324,0.759,35.422,0.5,35.914L0.5,35.914z
	 M71.527,60.848l6.667-7.074c0.163-0.146,0.265-0.193,0.426-0.346l4.692-5.042c0.281-0.31,0.526-0.433,0.8-0.742l7.113-7.484
	c0.817-0.951,1.259-1.281,1.624-1.695c0.421-0.478,1.911-2.259,2.426-2.323c0.797-0.101,2.372,0.008,3.265-0.004l-1.697,1.652
	c-0.315,0.278-0.598,0.472-0.915,0.749c-0.315,0.276-0.438,0.504-0.769,0.777l-1.691,1.518c-0.622,0.5-1.054,1.017-1.687,1.523
	c-0.188,0.15-0.315,0.239-0.478,0.407l-1.275,1.161c-0.327,0.285-0.477,0.536-0.829,0.827c-1.271,1.051-2.358,2.22-3.376,3.042
	l-6.365,5.802c-0.202,0.221-0.166,0.223-0.366,0.408c-0.293,0.27-0.557,0.438-0.855,0.697L71.527,60.848L71.527,60.848z
	 M28.299,60.693l-3.361-3.084c-0.307-0.283-0.604-0.465-0.915-0.75c-0.325-0.297-0.409-0.484-0.767-0.775
	c-0.313-0.254-0.645-0.482-0.908-0.76c-1.051-1.107-2.248-1.998-3.308-3.102c-0.245-0.256-0.558-0.473-0.845-0.707
	c-0.355-0.291-0.486-0.543-0.826-0.828l-1.687-1.524c-1.617-1.309-3.328-3.123-5.058-4.57c-0.321-0.27-0.463-0.506-0.77-0.775
	c-0.309-0.27-0.623-0.474-0.912-0.753l-5.831-5.34c-0.336-0.286-0.479-0.54-0.829-0.827c-0.393-0.322-0.604-0.409-0.826-0.773
	c0.59,0.006,2.973-0.063,3.355,0.037c0.533,0.141,3.434,3.581,4.002,4.065l2.354,2.401c0.283,0.324,0.49,0.569,0.771,0.89
	c0.287,0.326,0.514,0.44,0.801,0.744l9.355,9.889c0.279,0.318,0.488,0.602,0.799,0.857l3.912,4.049
	C27.334,59.598,27.729,60.193,28.299,60.693L28.299,60.693z M68.32,63.447c0.261-0.617,5.922-9.234,6.616-10.363
	c0.69-1.123,1.411-2.238,2.16-3.364l8.691-13.579l8.538,0.039c-0.402,0.28-1.009,1.156-1.627,1.694l-3.207,3.431
	c-0.728,0.623-1.017,1.072-1.605,1.713l-8.169,8.525c-0.253,0.293-0.498,0.621-0.792,0.871c-0.878,0.744-0.936,1.029-1.607,1.709
	l-5.708,5.9C71.1,60.484,68.847,63.178,68.32,63.447L68.32,63.447z M31.84,63.701c-0.118-0.135-0.242-0.297-0.387-0.438
	c-0.177-0.172-0.299-0.229-0.479-0.402c-0.639-0.613-0.636-0.83-1.616-1.703l-9.051-9.527c-0.281-0.326-0.49-0.568-0.771-0.889
	l-1.673-1.756c-0.292-0.332-0.56-0.481-0.853-0.803l-1.193-1.353c-1.139-1.034-5.055-5.354-5.35-5.596L5.65,36.131l8.533,0.016
	c0.32,0.589,0.746,1.159,1.105,1.746c2.426,3.964,5.344,8.141,7.729,12.044c0.732,1.198,1.482,2.292,2.248,3.495
	C27.182,56.441,30.297,61.01,31.84,63.701L31.84,63.701z M49.513,80.098c-0.315-0.18-0.368-0.248-0.618-0.539
	c-0.249-0.289-0.346-0.35-0.632-0.582c-0.235-0.191-0.462-0.352-0.659-0.561l-1.801-1.734c-0.397-0.387-0.886-0.654-1.26-1.07
	l-6.197-5.742c-0.403-0.4-0.865-0.641-1.256-1.074l-1.869-1.777c-0.217-0.188-0.383-0.307-0.611-0.496
	c-0.816-0.67-1.436-1.607-2.096-2.65l-9.286-14.466c-2.434-3.863-5.014-7.631-7.355-11.483c0.403,0.379,0.724,0.838,1.176,1.204
	c1.21,0.981,2.294,2.48,3.501,3.579c1.059,0.965,1.541,1.49,2.374,2.381c0.414,0.442,0.757,0.817,1.183,1.25
	c0.244,0.249,0.395,0.321,0.657,0.559l2.854,3.009c0.416,0.439,0.833,0.744,1.253,1.179l6.412,6.641
	c0.229,0.227,0.424,0.328,0.662,0.551c0.975,0.91,2.527,2.885,3.475,3.604c0.727,0.551,1.689,1.709,2.348,2.41
	c0.366,0.391,0.791,0.906,1.199,1.23c0.575,0.457,0.548,0.691,0.872,1.447C45.709,71.334,47.771,75.746,49.513,80.098L49.513,80.098
	z M50.566,79.992c0.412-1.266,4.943-11.555,5.639-13.207c0.469-1.113,1.941-2.678,2.688-3.279c0.885-0.713,2.135-2.143,2.954-3.016
	l1.201-1.121c0.742-0.668,1.561-1.631,2.261-2.385c0.775-0.832,1.601-1.535,2.387-2.367c0.782-0.826,1.505-1.658,2.312-2.447
	c0.235-0.23,0.427-0.326,0.665-0.551l2.848-3.013c0.401-0.417,0.807-0.701,1.203-1.12c0.795-0.841,1.513-1.605,2.311-2.444
	l7.021-7.05c-0.581,1.039-1.225,1.904-1.852,2.925l-5.527,8.615c-1.278,1.96-2.467,3.899-3.719,5.78
	c-1.895,2.846-3.73,5.973-5.531,8.607c-0.9,1.316-0.839,1.604-2.123,2.627l-4.927,4.475c-0.277,0.291-0.288,0.361-0.6,0.617
	l-5.538,5.078c-0.4,0.4-0.879,0.648-1.257,1.07L50.566,79.992L50.566,79.992z M57.201,64.527l12.583-28.385
	c4.716-0.027,10.731-0.092,15.346,0.01c-0.814,1.138-2.054,2.041-2.619,2.646c-1.196,1.281-2.212,2.405-3.509,3.568
	c-0.309,0.275-0.581,0.6-0.867,0.904l-2.593,2.718c-1.008,0.854-1.723,1.689-2.641,2.666c-0.313,0.333-0.548,0.586-0.859,0.911
	c-0.303,0.314-0.578,0.466-0.882,0.775c-0.612,0.623-1.118,1.191-1.721,1.822c-0.596,0.623-1.059,1.244-1.76,1.777
	c-0.908,0.693-2.405,2.631-3.426,3.543c-0.407,0.363-0.573,0.461-0.93,0.838c-0.311,0.334-0.543,0.578-0.857,0.912
	c-0.601,0.637-1.119,1.186-1.722,1.818c-0.321,0.34-0.616,0.51-0.935,0.834C59.15,62.557,57.759,64.217,57.201,64.527L57.201,64.527
	z M42.771,64.602l-1.799-1.73c-0.609-0.604-1.127-1.193-1.719-1.82c-0.947-1.002-0.779-0.912-1.778-1.76
	c-1.024-0.865-2.214-2.545-3.497-3.58c-0.832-0.67-2.172-2.422-3.513-3.564c-0.557-0.475-1.151-1.195-1.677-1.753l-3.506-3.573
	c-0.524-0.546-1.172-1.355-1.732-1.804c-0.765-0.613-1.164-1.12-1.774-1.766l-6.155-6.232c-0.293-0.306-0.57-0.536-0.777-0.889
	c4.573-0.017,10.89-0.093,15.338,0.024L42.771,64.602L42.771,64.602z M50,80.129c-0.515-0.857-3.456-7.957-4.099-9.48
	c-0.289-0.686-1.995-4.449-2.015-4.828c-0.034-0.627,0.986-4.58,1.191-5.537l3.655-16.606c0.095-0.421,1.043-5.104,1.294-5.489
	c0.383,1.794,6.088,27.446,6.018,27.796l-4,9.453C51.634,76.408,50.447,79.52,50,80.129L50,80.129z M43.499,65.043L30.688,36.128
	l19.253,0.017L43.499,65.043L43.499,65.043z M56.452,65.051c-0.014-0.023-0.029-0.055-0.035-0.07l-5.574-25.155
	c-0.259-1.103-0.655-2.585-0.786-3.685l19.244,0.006L56.452,65.051L56.452,65.051z M1.544,35.653
	c0.232-0.143,0.687-0.502,0.91-0.661c3.201-2.28,7.573-5.265,10.538-7.507l3.863-2.72c-0.193,0.307-0.172,0.238-0.465,0.476
	l-2.996,2.752c-0.352,0.288-0.488,0.541-0.823,0.831c-0.319,0.277-0.61,0.47-0.915,0.75l-2.508,2.356
	c-1.088,0.9-3.77,3.686-4.421,3.752C4.119,35.744,2.162,35.719,1.544,35.653L1.544,35.653z M95.166,35.68
	c-0.369,0-2.99-2.511-3.153-2.698l-6.728-6.212c-0.288-0.284-2.018-1.739-2.251-2.094c1.225,0.723,10.301,7.288,11.668,8.289
	l3.742,2.696L95.166,35.68L95.166,35.68z M48.637,20.003c-1.729,0.674-3.674,1.186-5.465,1.791c-1.77,0.597-3.621,1.169-5.447,1.76
	c-3.387,1.095-2.377,1.353-4.855-0.509c-0.536-0.402-3.678-2.659-4.061-3.077L48.637,20.003L48.637,20.003z M71.186,19.96
	c-0.103,0.129-0.053,0.07-0.183,0.193l-5.014,3.742c-0.935,0.708-0.586,0.623-1.108,0.509l-8.133-2.647
	c-1.523-0.494-4.011-1.132-5.395-1.788L71.186,19.96L71.186,19.96z M85.677,35.681l-4.882-12.307l13.402,12.298L85.677,35.681
	L85.677,35.681z M5.787,35.645l2.531-2.335c0.742-0.603,0.777-0.798,1.678-1.53c0.385-0.313,0.422-0.387,0.782-0.762l2.583-2.291
	c0.315-0.269,0.441-0.505,0.766-0.78l5.072-4.557l-4.914,12.28L5.787,35.645L5.787,35.645z M15.008,35.645
	c0.865-0.47,18.611-10.382,19.412-10.689l-4.303,10.717L15.008,35.645L15.008,35.645z M70.024,35.679
	c-0.452-0.22-0.997-2.08-1.215-2.627c-0.879-2.205-2.634-6.271-3.219-8.116l14.543,8.026c0.955,0.562,4.271,2.249,4.826,2.71
	L70.024,35.679L70.024,35.679z M50.484,35.661c2.413-1.824,4.835-3.578,7.294-5.359l3.649-2.663
	c0.612-0.479,1.202-0.891,1.853-1.356l1.823-1.281l4.251,10.671L50.484,35.661L50.484,35.661z M30.605,35.673l4.24-10.655
	c0.405,0.191,0.648,0.428,1,0.696c0.293,0.224,0.603,0.431,0.902,0.648c1.236,0.892,12.453,8.975,12.723,9.321L30.605,35.673
	L30.605,35.673z M15.053,35.057c0.313-1.074,0.928-2.382,1.346-3.44l3.406-8.755l4.03-2.833l4.263,0.043l5.975,4.522L15.053,35.057
	L15.053,35.057z M65.896,24.616c0.274-0.351,2.324-1.815,2.7-2.095c0.373-0.277,3.057-2.422,3.244-2.487l4.583,0.043l3.459,2.395
	l5.044,12.592l-16.664-9.178C67.452,25.462,66.662,24.914,65.896,24.616L65.896,24.616z M35.475,24.808
	c0.363-0.217,14.391-4.703,14.525-4.702c0.455,0.005,6.322,2.005,7.307,2.32l7.097,2.34c0.012-0.022,0.05,0.026,0.071,0.042
	L50,35.395c-0.475-0.261-0.553-0.363-1-0.692c-0.322-0.238-0.546-0.388-0.908-0.645c-0.621-0.439-1.158-0.862-1.787-1.312
	l-9.098-6.623C36.869,25.88,35.688,25.08,35.475,24.808z"/>
<g>
	
		<polygon opacity="0.1" fill="#FFEC00" stroke="#1A1A18" strokeWidth="0.5669" stroke-miterlimit="22.9256" enable-background="new    " points="
		23.635,19.523 76.5,19.542 100,35.901 50,81.168 0,35.979 	"/>
</g>
</svg>
