<?xml version="1.0" encoding="utf-8"?>
<!-- Generator: Adobe Illustrator 16.0.0, SVG Export Plug-In . SVG Version: 6.00 Build 0)  -->
<!DOCTYPE svg PUBLIC "-//W3C//DTD SVG 1.1//EN" "http://www.w3.org/Graphics/SVG/1.1/DTD/svg11.dtd">
<svg version="1.1" id="Layer_1" xmlns="http://www.w3.org/2000/svg" xmlns:xlink="http://www.w3.org/1999/xlink" x="0px" y="0px"
	 width="65px" height="65px" viewBox="0 0 65 65" enable-background="new 0 0 65 65" xml:space="preserve">
<path fillRule="evenodd" clip-rule="evenodd" fill="#0A3D61" d="M30.339,1.151c-4.92,0.258-8.803,1.812-12.429,3.366
	c-3.107,1.554-5.696,3.625-8.027,5.955c-0.259,0.259-0.776,0.518-1.036,1.036c-0.259,0.259-0.518,0.777-1.035,1.036L5.482,15.91
	C-0.733,26.009-1.25,37.141,3.928,47.5c0.259,1.036,0.777,1.812,1.295,2.589C5.482,50.607,5.741,50.866,6,51.383
	c1.554,2.331,2.848,3.625,4.661,5.438c5.179,4.661,13.464,9.062,23.562,8.284c5.438-0.259,8.027-1.293,12.688-3.364
	c1.812-0.777,3.366-2.073,4.919-3.107c1.296-0.777,3.885-3.108,4.662-4.403c1.036-1.293,1.812-1.812,3.106-3.883
	c1.294-2.332,1.553-2.589,2.589-5.18c3.367-8.284,2.849-18.642-1.295-26.41c-0.775-1.813-1.813-3.625-2.848-4.919
	c-1.553-2.071-2.33-2.589-3.885-4.402C48.206,3.999,39.144,0.633,30.339,1.151L30.339,1.151L30.339,1.151z M32.151,16.687
	L32.151,16.687c0.52-0.259,2.33,0.776,3.107,1.036c0.777,0.518,1.813,0.776,2.849,1.294l4.401,1.813
	c2.073,0.777,1.555,0.518,2.073,1.813c1.034,2.33,2.069,4.919,3.106,7.25c0.259,0.776,1.034,2.33,1.293,3.107
	c0,0.517-3.106,7.768-3.624,8.803l-1.035,2.849c-0.259,0.517-2.332,1.035-3.107,1.294l-8.544,3.625
	c-0.52,0.26-4.92-1.812-5.957-2.07l-5.696-2.59c-0.776-0.259-3.884-8.545-4.402-10.098c-0.259-0.261-0.518-1.036-0.776-1.296
	c0-0.517,2.848-7.508,3.625-8.803c1.294-3.367,0.518-2.849,2.33-3.625c0.519-0.258,1.037-0.517,1.554-0.776L32.151,16.687
	L32.151,16.687z M41.215,12.803L41.215,12.803l13.464-1.813l-1.813,13.205c-0.777,0-8.284-3.107-8.284-3.107
	C44.322,20.83,41.475,13.32,41.215,12.803L41.215,12.803z M24.384,53.973c0.259-0.259,7.767-3.625,8.027-3.625
	c0.259,0,6.99,3.107,8.026,3.366c-0.259,0.517-1.036,1.554-1.553,2.07c0,0.26-0.259,0.519-0.519,0.777l-5.955,8.028l-4.144-5.438
	C26.973,57.338,25.679,55.525,24.384,53.973L24.384,53.973z M11.955,24.195L10.143,10.99l13.206,1.813
	c0,0.517-2.849,8.027-3.107,8.285l-7.768,3.107c0,0,0,0-0.259,0C12.214,24.195,12.214,24.195,11.955,24.195L11.955,24.195z
	 M53.126,41.284v-0.259c-0.519-0.518-3.626-7.768-3.626-7.768c0-0.258,3.107-7.249,3.626-8.027c0.259,0,2.07,1.555,2.589,1.814
	l8.025,6.213l-9.321,6.992C53.903,40.508,53.644,41.025,53.126,41.284L53.126,41.284z M24.384,12.543L24.384,12.543l8.027-10.616
	l2.07,2.588c0.777,0.776,1.296,1.813,2.071,2.59c0.519,0.776,3.626,4.919,3.885,5.437c-1.036,0.519-7.509,3.366-8.026,3.366
	l-7.769-3.366C24.384,12.543,24.384,12.543,24.384,12.543L24.384,12.543z M11.955,42.32c0.259-0.26,0.259-0.26,0.519-0.26
	l7.768,3.367c0.258,0,1.553,3.365,1.553,3.884c0.259,0.777,1.813,3.885,1.554,4.144l-13.206,1.813L11.955,42.32L11.955,42.32z
	 M41.475,53.455c-0.26-0.259,3.107-8.027,3.107-8.027l8.284-3.367l1.553,13.207L41.475,53.455L41.475,53.455z M1.08,33.258
	l10.616-8.286l3.625,8.286c0,0-3.367,7.51-3.625,8.026C8.33,38.954,4.188,35.329,1.08,33.258L1.08,33.258z M10.661,10.472
	c1.813-1.812,6.732-5.695,9.321-6.213c0.518,0.518,1.295,3.107,1.812,3.883c0.519,1.035,1.295,2.848,1.554,4.143
	C22.054,12.285,10.92,10.73,10.661,10.472L10.661,10.472z M55.196,55.008c-0.259-0.518-1.553-11.394-1.812-12.947
	c0.259,0.26,7.767,3.107,8.025,3.367C60.376,48.793,57.528,52.419,55.196,55.008L55.196,55.008z M53.644,41.544L53.644,41.544
	c0.26-0.26,0.775-0.519,1.294-1.036L64,33.776c0.259,2.07-1.294,9.838-2.33,11.133C61.41,44.909,54.419,42.061,53.644,41.544
	L53.644,41.544z M3.411,45.428c0.259-0.26,7.25-3.107,8.027-3.367L9.884,55.008C8.072,53.714,4.188,48.016,3.411,45.428
	L3.411,45.428z M20.759,3.999L20.759,3.999c1.554-1.036,8.804-2.59,11.134-2.331l-5.955,7.768c-0.259,0.518-1.813,2.331-2.072,2.589
	L20.759,3.999L20.759,3.999z M3.411,20.83c0.517-1.553,2.848-5.438,4.143-6.991c0.518-0.519,1.294-2.071,2.33-2.589l1.554,12.946
	l-4.144-1.554C6.776,22.383,6,21.865,5.482,21.606C4.705,21.347,3.928,21.088,3.411,20.83L3.411,20.83z M32.928,64.59L32.928,64.59
	c0.26-0.26,4.143-5.438,4.92-6.475l2.849-3.885c0.259,0.26,0.518,0.777,0.518,1.037l1.294,3.106
	c0.519,1.035,1.296,2.849,1.813,4.143c-1.555,0.519-3.625,1.036-5.438,1.555C36.036,64.59,35,64.33,32.928,64.59L32.928,64.59z
	 M3.152,44.909L3.152,44.909c-0.259-0.776-0.518-1.553-0.777-2.589c-0.776-2.589-1.554-5.696-1.554-8.544l2.072,1.553
	c0.259,0.259,0.259,0.259,0.777,0.518l6.991,5.179c0.259,0.259,0.259,0.259,0.259,0.519l0.258,0.259
	C9.367,42.32,4.964,44.392,3.152,44.909L3.152,44.909z M10.661,55.784l12.688-1.812c0,0.776-0.518,1.553-0.777,2.071
	c-0.518,1.294-2.33,5.697-2.589,6.214C17.652,61.223,11.696,57.598,10.661,55.784L10.661,55.784z M53.644,24.713L53.644,24.713
	l8.026-3.367c0.259,0.518,1.295,4.144,1.555,5.18C63.74,28.598,64,30.41,64,32.481c-0.519,0-1.035-0.518-1.294-0.777l-3.884-3.106
	C57.786,27.821,53.903,25.23,53.644,24.713L53.644,24.713z M53.385,24.195L53.385,24.195l1.553-12.946
	c1.296,1.036,2.849,3.107,3.626,4.401c0.517,0.777,1.035,1.554,1.554,2.59c0.259,0.517,1.293,2.589,1.293,2.589L53.385,24.195
	L53.385,24.195z M41.475,12.285L41.475,12.285c0-0.259,2.848-7.769,3.364-8.027c0.519,0.259,1.813,0.777,2.59,1.295
	c0.777,0.517,1.553,0.776,2.33,1.294c0.777,0.519,1.813,1.294,2.33,1.813l2.071,1.812l0,0l0,0l-6.472,1.036
	C45.616,11.767,43.545,12.025,41.475,12.285L41.475,12.285z M20.5,62.517L20.5,62.517l3.366-8.286l5.179,6.475
	c0.259,0.518,0.517,0.777,0.776,1.293c0.518,0.777,1.812,2.073,2.071,2.592c-2.071,0-4.401-0.26-6.214-0.519
	C23.349,63.553,21.794,62.775,20.5,62.517L20.5,62.517z M0.821,32.481L0.821,32.481c0-3.625,1.295-8.287,2.331-11.135l8.026,3.367
	l-2.589,2.071c-0.259,0.259-0.776,0.519-1.295,1.037C7.036,28.079,6.518,28.338,6,28.598L0.821,32.481L0.821,32.481z M40.956,12.025
	L40.956,12.025L32.928,1.668c1.813,0,4.402,0.259,6.215,0.777c1.035,0.259,4.143,1.036,5.179,1.554L40.956,12.025L40.956,12.025z
	 M44.841,62.258L44.841,62.258l-3.366-8.285l12.688,1.812c-0.259,0.519,0,0.26-0.519,0.519c-0.259,0.259-0.259,0.259-0.518,0.519
	l-2.071,1.812C49.759,59.668,46.135,61.741,44.841,62.258L44.841,62.258z M44.841,44.651c0.517-1.295,4.141-10.358,4.4-10.616
	l3.366,7.509C52.349,41.803,45.616,44.392,44.841,44.651L44.841,44.651z M49.241,32.481c-0.26-0.518-4.142-9.84-4.4-10.617
	c1.811,0.519,6.471,2.589,7.767,2.849c-0.259,0.776-0.519,1.294-0.777,2.072L49.241,32.481L49.241,32.481z M33.188,16.169
	l7.768-3.107l2.849,7.768C43.545,20.571,33.447,16.687,33.188,16.169L33.188,16.169z M21.018,20.83L21.018,20.83l3.107-7.768
	c0.518,0,3.107,1.294,3.884,1.554c1.037,0.517,2.589,1.035,3.625,1.552c-0.518,0.519-4.401,2.073-5.437,2.331
	C24.902,19.017,22.054,20.312,21.018,20.83L21.018,20.83z M12.214,41.544l3.367-7.768l3.365,8.026
	c0.259,0.776,0.777,2.071,1.036,2.849L12.214,41.544L12.214,41.544z M33.188,50.089l10.616-4.402l-2.849,7.769L33.188,50.089
	L33.188,50.089z M24.125,53.455l-3.107-7.769l10.616,4.402L24.125,53.455L24.125,53.455z M12.214,24.713l7.768-2.849l-4.401,10.617
	l-2.589-5.955C12.732,26.008,12.474,25.49,12.214,24.713z"/>
</svg>
