<?xml version="1.0" encoding="utf-8"?>
<!-- Generator: Adobe Illustrator 16.0.0, SVG Export Plug-In . SVG Version: 6.00 Build 0)  -->
<!DOCTYPE svg PUBLIC "-//W3C//DTD SVG 1.1//EN" "http://www.w3.org/Graphics/SVG/1.1/DTD/svg11.dtd">
<svg version="1.1" id="Layer_1" xmlns="http://www.w3.org/2000/svg" xmlns:xlink="http://www.w3.org/1999/xlink" x="0px" y="0px"
	 width="120px" height="120px" viewBox="0 0 120 120" enable-background="new 0 0 120 120" xml:space="preserve">
<g id="layer1" transform="translate(-412.12904,284.23496)">
	<g id="g2975" transform="translate(35.433058,35.450956)">
		<path id="path2460" fill="#00457A" d="M396.989-254.424c-1.408,0.508-1.689,0.592-4.703,0.563l-5.661-0.027v-0.535h0.395
			c1.324,0,1.717-0.478,1.774-2.054l0.028-0.959v-10.42c0-2.731-0.197-3.013-2.028-3.013h-0.169v-0.508l0.169-0.028l1.774-0.084
			c0.282,0,0.873-0.028,1.663-0.056c1.548-0.057,2.646-0.083,3.294-0.083c2.844,0,4.619,0.535,6.139,1.915
			c1.689,1.52,2.591,3.802,2.591,6.476C402.255-259.21,400.087-255.55,396.989-254.424z M397.862-269.123
			c-0.985-0.901-2.168-1.352-3.689-1.549c-0.789-0.114-1.295-0.141-2.083-0.141c-0.536,0-0.93,0-1.352,0.056v14.166
			c0,1.859,0.084,1.971,1.886,1.971c1.746,0,2.845-0.168,3.915-0.76c2.197-1.268,3.604-4.027,3.604-7.407
			C400.142-265.547,399.326-267.8,397.862-269.123"/>
		<path id="path2464" fill="#00457A" d="M414.261-253.889h-8.392v-0.479h0.507c1.07,0,1.38-0.226,1.38-1.069v-6.307
			c0-1.07-0.225-1.324-1.126-1.324h-0.365v-0.479h7.546l0.142,2.337h-0.479c-0.028-0.14-0.057-0.253-0.057-0.338
			c-0.253-1.182-0.365-1.266-1.437-1.266h-2.563v3.576h2.225c0.844,0,1.013-0.113,1.098-1.013l0.028-0.141h0.422v3.125h-0.422
			c-0.028-0.113-0.028-0.226-0.028-0.253c-0.113-0.844-0.31-0.986-1.098-0.986h-2.225v2.816c0,0.959,0.084,1.098,0.845,1.098h1.633
			c1.183,0,1.521-0.139,1.832-0.76c0.14-0.31,0.169-0.423,0.337-0.958h0.423L414.261-253.889"/>
		<path id="path2468" fill="#00457A" d="M433.361-254.114c-0.704,0.169-1.464,0.252-3.295,0.252l-6.534-0.027v-0.535h0.507
			c1.943,0,2.196-0.336,2.196-2.984v-10.448c0-2.73-0.169-3.013-2.026-3.013h-0.479v-0.507l0.196-0.028l2.591-0.14
			c1.437-0.083,2.675-0.083,3.661-0.083c1.914,0,2.873,0.169,3.858,0.732c1.156,0.647,1.888,1.943,1.888,3.379
			c0,1.717-1.07,3.155-2.592,3.633v0.057c2.14,0.789,3.323,2.394,3.379,4.619C436.769-256.732,435.163-254.564,433.361-254.114z
			 M432.855-269.968c-0.647-0.677-1.437-0.93-3.014-0.93c-0.479,0-0.873,0.028-1.436,0.084l-0.254,0.027v6.703h1.718
			c1.24,0,2.027-0.056,2.705-0.422c0.788-0.422,1.295-1.521,1.295-2.844C433.868-268.532,433.503-269.292,432.855-269.968z
			 M432.855-262.674c-0.846-0.619-1.578-0.647-3.014-0.647h-1.689v4.73c0,0.958,0.057,1.773,0.112,2.198
			c0.169,1.211,0.986,1.745,2.506,1.745c0.395,0,0.761-0.027,1.126-0.111c1.662-0.396,2.704-2.059,2.704-4.31
			C434.601-260.647,433.924-261.886,432.855-262.674"/>
		<path id="path2472" fill="#00457A" d="M448.72-253.889h-8.391v-0.479h0.508c1.07,0,1.379-0.226,1.379-1.069v-6.307
			c0-1.07-0.225-1.324-1.125-1.324h-0.366v-0.479h7.547l0.142,2.337h-0.479c-0.028-0.14-0.056-0.253-0.056-0.338
			c-0.254-1.182-0.368-1.266-1.437-1.266h-2.563v3.576h2.224c0.846,0,1.016-0.113,1.1-1.013l0.028-0.141h0.423v3.125h-0.423
			c-0.028-0.113-0.028-0.226-0.028-0.253c-0.112-0.844-0.31-0.986-1.1-0.986h-2.224v2.816c0,0.959,0.084,1.098,0.846,1.098h1.632
			c1.185,0,1.522-0.139,1.833-0.76c0.14-0.31,0.168-0.423,0.337-0.958h0.423L448.72-253.889"/>
		<path id="path2476" fill="#00457A" d="M461.675-253.889h-8.393v-0.479h0.507c1.072,0,1.381-0.226,1.381-1.069v-6.307
			c0-1.07-0.226-1.324-1.127-1.324h-0.365v-0.479h7.548l0.14,2.337h-0.478c-0.028-0.14-0.057-0.253-0.057-0.338
			c-0.254-1.182-0.365-1.266-1.437-1.266h-2.562v3.576h2.225c0.845,0,1.012-0.113,1.097-1.013l0.029-0.141h0.422v3.125h-0.422
			c-0.029-0.113-0.029-0.226-0.029-0.253c-0.113-0.844-0.311-0.986-1.097-0.986h-2.225v2.816c0,0.959,0.084,1.098,0.845,1.098h1.633
			c1.184,0,1.521-0.139,1.831-0.76c0.141-0.31,0.17-0.423,0.338-0.958h0.423L461.675-253.889"/>
		<path id="path2480" fill="#00457A" d="M477.472-253.776c-1.464,0-1.887,0-2.533-0.311c-0.705-0.338-1.015-0.478-2-1.521
			l-0.789-0.815c-0.76-0.761-1.127-1.155-1.576-1.437c-0.479,0.027-0.957,0.056-1.296,0.027v2.169c0,1.041,0.226,1.323,1.042,1.323
			h0.449v0.45h-4.532v-0.45h0.394c0.76,0,1.014-0.282,1.014-1.323v-5.999c0-1.239-0.14-1.379-1.379-1.407v-0.479
			c0.929-0.058,2.618-0.114,3.547-0.114c1.886,0,2.76,0.226,3.493,0.873c0.534,0.451,0.844,1.126,0.844,1.803
			c0,1.239-0.59,2.083-1.856,2.648c0.281,0.226,0.59,0.506,1.096,1.041l0.958,1.014c0.817,0.846,1.55,1.436,2.197,1.719
			c0.423,0.196,0.648,0.254,1.296,0.338v0.45H477.472L477.472-253.776z M471.531-262.618c-0.45-0.338-0.93-0.422-1.689-0.422
			c-0.197,0-0.449,0-0.563,0.056v4.534c0.141,0,0.197,0,0.339,0c0.899,0,1.464-0.141,1.886-0.421
			c0.564-0.395,0.846-0.985,0.846-1.887C472.348-261.661,472.039-262.223,471.531-262.618"/>
		<path id="path2484" fill="#00457A" d="M483.444-253.636c-0.34,0-0.902-0.056-1.156-0.14l-0.423-0.086
			c-0.141-0.056-0.254-0.056-0.365-0.056c-0.171,0-0.282,0.056-0.396,0.17h-0.364l-0.365-2.675h0.449
			c0.366,1.408,1.296,2.169,2.535,2.169c1.071,0,1.829-0.592,1.829-1.521c0-0.62-0.28-1.126-0.9-1.634
			c-0.226-0.197-0.507-0.423-0.843-0.647c-1.522-1.071-1.944-1.408-2.367-1.944c-0.338-0.422-0.508-0.929-0.508-1.493
			c0-1.324,1.099-2.281,2.675-2.281c0.45,0,0.815,0.028,1.294,0.141c0.397,0.085,0.479,0.114,0.621,0.114
			c0.199,0,0.282-0.056,0.424-0.197h0.394l0.339,2.422h-0.479c-0.449-1.239-1.351-1.944-2.421-1.944
			c-0.845,0-1.436,0.508-1.436,1.24c0,0.591,0.281,1.042,0.928,1.548c0.365,0.283,0.788,0.564,1.269,0.874
			c1.38,0.958,1.943,1.464,2.253,2.224c0.141,0.311,0.197,0.677,0.197,1.07C486.626-254.704,485.358-253.636,483.444-253.636"/>
		<path id="path2488" fill="#00457A" d="M389.657-243.515l-0.466-1.011h-1.513l-0.439,1.011h-0.614l1.583-3.628h0.418l1.65,3.628
			H389.657z M388.409-246.26l-0.514,1.207h1.047L388.409-246.26"/>
		<path id="path2492" fill="#00457A" d="M397.399-243.515h-1.45v-3.608h1.444c1.359,0,1.963,0.952,1.963,1.805
			C399.357-244.392,398.611-243.515,397.399-243.515z M398.742-245.318c0-0.688-0.443-1.269-1.434-1.269h-0.762v2.539h0.788
			c1.143,0,1.403-0.849,1.403-1.27L398.742-245.318"/>
		<path id="path2494" fill="#00457A" d="M402.092-247.123h0.604v3.61h-0.604V-247.123z"/>
		<path id="path2498" fill="#00457A" d="M408.211-243.515l-0.465-1.011h-1.514l-0.439,1.011h-0.614l1.582-3.628h0.417l1.651,3.628
			H408.211z M406.964-246.26l-0.514,1.207h1.048L406.964-246.26"/>
		<path id="path2502" fill="#00457A" d="M414.185-243.515v-2.688l-1.063,1.307h-0.127l-1.058-1.307v2.688h-0.604v-3.608h0.55
			l1.174,1.429l1.18-1.429h0.544v3.608H414.185"/>
		<path id="path2506" fill="#00457A" d="M419.489-243.466c-1.201,0-1.968-0.874-1.968-1.852c0-1.001,0.788-1.854,1.978-1.854
			c1.212,0,1.985,0.848,1.985,1.854C421.483-244.344,420.731-243.466,419.489-243.466z M420.87-245.318
			c0-0.757-0.583-1.308-1.371-1.308c-0.783,0-1.365,0.55-1.365,1.308c0,0.751,0.583,1.308,1.365,1.308
			c0.789,0,1.366-0.556,1.366-1.308H420.87"/>
		<path id="path2510" fill="#00457A" d="M427.145-243.515l-2.354-2.65v2.65h-0.571v-3.608h0.471l2.387,2.667v-2.667h0.571v3.608
			H427.145"/>
		<path id="path2514" fill="#00457A" d="M432.234-243.515h-1.451v-3.608h1.444c1.36,0,1.963,0.952,1.963,1.805
			C434.19-244.392,433.445-243.515,432.234-243.515z M433.577-245.318c0-0.688-0.445-1.269-1.435-1.269h-0.762v2.539h0.788
			c1.143,0,1.402-0.849,1.402-1.27L433.577-245.318"/>
		<path id="path2516" fill="#00457A" d="M440.204-247.123h0.604v3.61h-0.604V-247.123z"/>
		<path id="path2520" fill="#00457A" d="M444.774-243.466c-0.401,0-0.725-0.105-1.054-0.346v-0.775
			c0.332,0.412,0.657,0.587,0.995,0.587c0.381,0,0.55-0.233,0.55-0.408c0-0.28-0.265-0.459-0.475-0.593
			c-0.455-0.285-1.091-0.554-1.091-1.185c0-0.604,0.461-0.985,1.137-0.985c0.287,0,0.566,0.086,0.848,0.266v0.688
			c-0.371-0.34-0.656-0.418-0.89-0.418c-0.321,0-0.534,0.164-0.534,0.381c0,0.259,0.275,0.419,0.476,0.534
			c0.514,0.29,1.09,0.55,1.09,1.26C445.826-243.884,445.378-243.466,444.774-243.466"/>
		<path id="path2524" fill="#00457A" d="M452.639-245.154v1.641h-0.602v-3.61h2.01v0.537h-1.412v0.898h1.412v0.534H452.639"/>
		<path id="path2528" fill="#00457A" d="M458.295-243.466c-1.2,0-1.969-0.874-1.969-1.852c0-1.001,0.79-1.854,1.979-1.854
			c1.211,0,1.984,0.848,1.984,1.854C460.289-244.344,459.538-243.466,458.295-243.466z M459.676-245.318
			c0-0.757-0.585-1.308-1.371-1.308c-0.783,0-1.365,0.55-1.365,1.308c0,0.751,0.582,1.308,1.365,1.308
			c0.786,0,1.363-0.556,1.363-1.308H459.676"/>
		<path id="path2532" fill="#00457A" d="M465.217-243.515l-0.471-0.708c-0.481-0.725-0.684-0.794-0.927-0.794h-0.19v1.502h-0.604
			v-3.608h0.968c0.746,0,1.229,0.407,1.229,1.043c0,0.401-0.224,0.725-0.583,0.89c0.302,0.173,0.566,0.612,0.773,0.951
			c0.152,0.244,0.228,0.329,0.522,0.725H465.217z M463.937-246.609h-0.313v1.078h0.313c0.534,0,0.671-0.294,0.671-0.569
			C464.604-246.402,464.423-246.609,463.937-246.609"/>
		<path id="path2536" fill="#00457A" d="M468.484-243.515v-3.608h2.133v0.535h-1.534v0.988h1.482v0.529h-1.482v1.021h1.581v0.534
			H468.484"/>
		<path id="path2540" fill="#00457A" d="M474.617-243.483h-0.159l-1.593-3.641h0.635l1.059,2.497l1.052-2.497h0.566L474.617-243.483
			"/>
		<path id="path2544" fill="#00457A" d="M478.575-243.515v-3.608h2.133v0.535h-1.534v0.988h1.48v0.529h-1.48v1.021h1.582v0.534
			H478.575"/>
		<path id="path2548" fill="#00457A" d="M485.889-243.515l-0.472-0.708c-0.48-0.725-0.684-0.794-0.927-0.794h-0.19v1.502h-0.603
			v-3.608h0.967c0.746,0,1.229,0.407,1.229,1.043c0,0.401-0.224,0.725-0.585,0.89c0.303,0.173,0.568,0.612,0.774,0.951
			c0.153,0.244,0.229,0.329,0.524,0.725H485.889z M484.608-246.609h-0.313v1.078h0.313c0.535,0,0.672-0.294,0.672-0.569
			C485.274-246.402,485.094-246.609,484.608-246.609"/>
	</g>
</g>
</svg>
