<svg version="1.1" xmlns="http://www.w3.org/2000/svg" xmlns:xlink="http://www.w3.org/1999/xlink" x="0px" y="0px" width="300" height="300" viewBox="0 0 300 300" enable-background="new 0 0 300 300" xml:space="preserve" id="el_d8oTZX-kQ"><style>@-webkit-keyframes kf_el_aDu68s46TJ_an_5JTiXjGou{42.86%{opacity: 0;}57.14%{opacity: 1;}100%{opacity: 0;}0%{opacity: 0;}}@keyframes kf_el_aDu68s46TJ_an_5JTiXjGou{42.86%{opacity: 0;}57.14%{opacity: 1;}100%{opacity: 0;}0%{opacity: 0;}}@-webkit-keyframes kf_el_PdtKKEFDAC_an_dntkBvXds{0%{opacity: 0;}7.14%{opacity: 1;}42.86%{opacity: 0;}57.14%{opacity: 0;}100%{opacity: 0;}}@keyframes kf_el_PdtKKEFDAC_an_dntkBvXds{0%{opacity: 0;}7.14%{opacity: 1;}42.86%{opacity: 0;}57.14%{opacity: 0;}100%{opacity: 0;}}@-webkit-keyframes kf_el_0eQkCeaduX_an_cQDkG_xHP{0%{opacity: 1;}100%{opacity: 1;}}@keyframes kf_el_0eQkCeaduX_an_cQDkG_xHP{0%{opacity: 1;}100%{opacity: 1;}}#el_d8oTZX-kQ *{-webkit-animation-duration: 7s;animation-duration: 7s;-webkit-animation-iteration-count: infinite;animation-iteration-count: infinite;-webkit-animation-timing-function: cubic-bezier(0, 0, 1, 1);animation-timing-function: cubic-bezier(0, 0, 1, 1);}#el_5eNHk8T5P-{fill: #0A3D61;}#el_Sc1OHnsPne{-webkit-transform: matrix(0.2114, -0.9774, 0.9774, 0.2114, -47.717, 329.3095);transform: matrix(0.2114, -0.9774, 0.9774, 0.2114, -47.717, 329.3095);}#el_uWDzmqLW54{-webkit-transform: matrix(1, 0, 0, 1, 123.333, 294.9824);transform: matrix(1, 0, 0, 1, 123.333, 294.9824);}#el_Jid2ffO4u6{fill: #1A1A18;}#el_l0tqXxGaYs{fill: #1A1A18;}#el_ZDkGNsX00G{-webkit-transform: matrix(1, 0, 0, 1, 123.333, 295.4824);transform: matrix(1, 0, 0, 1, 123.333, 295.4824);}#el_tEIc3eWw2z{fill: #1A1A18;}#el_kwTAjy7gGI{fill: #1A1A18;}#el_wAdPEVZWLVZ{-webkit-transform: matrix(0.9994, -0.0335, 0.0335, 0.9994, -4.5095, 3.2558);transform: matrix(0.9994, -0.0335, 0.0335, 0.9994, -4.5095, 3.2558);}#el_vao7j9CsgYJ{-webkit-transform: matrix(0.9755, 0.22, -0.22, 0.9755, 46.8474, -35.1313);transform: matrix(0.9755, 0.22, -0.22, 0.9755, 46.8474, -35.1313);}#el_0eQkCeaduX{-webkit-animation-fill-mode: backwards;animation-fill-mode: backwards;opacity: 1;-webkit-animation-name: kf_el_0eQkCeaduX_an_cQDkG_xHP;animation-name: kf_el_0eQkCeaduX_an_cQDkG_xHP;-webkit-animation-timing-function: cubic-bezier(0, 0, 1, 1);animation-timing-function: cubic-bezier(0, 0, 1, 1);}#el_PdtKKEFDAC{-webkit-animation-fill-mode: backwards;animation-fill-mode: backwards;opacity: 0;-webkit-animation-name: kf_el_PdtKKEFDAC_an_dntkBvXds;animation-name: kf_el_PdtKKEFDAC_an_dntkBvXds;-webkit-animation-timing-function: cubic-bezier(0, 0, 1, 1);animation-timing-function: cubic-bezier(0, 0, 1, 1);}#el_aDu68s46TJ{-webkit-animation-fill-mode: backwards;animation-fill-mode: backwards;opacity: 0;-webkit-animation-name: kf_el_aDu68s46TJ_an_5JTiXjGou;animation-name: kf_el_aDu68s46TJ_an_5JTiXjGou;-webkit-animation-timing-function: cubic-bezier(0, 0, 1, 1);animation-timing-function: cubic-bezier(0, 0, 1, 1);}</style>
<g id="el_0eQkCeaduX">
	<path fillRule="evenodd" clip-rule="evenodd" d="M143.068,9.463c-19.216,1.008-34.384,7.08-48.546,13.148&#10;&#9;&#9;c-12.139,6.069-22.253,14.157-31.355,23.26c-1.012,1.012-3.036,2.023-4.049,4.049c-1.012,1.012-2.023,3.032-4.041,4.045&#10;&#9;&#9;l-9.109,13.148c-24.273,39.448-26.293,82.933-6.065,123.398c1.013,4.049,3.036,7.078,5.062,10.113&#10;&#9;&#9;c1.004,2.025,2.017,3.037,3.028,5.055c6.073,9.105,11.126,14.162,18.212,21.244c20.229,18.207,52.591,35.398,92.036,32.363&#10;&#9;&#9;c21.24-1.014,31.354-5.055,49.562-13.145c7.078-3.035,13.151-8.096,19.217-12.139c5.061-3.035,15.175-12.141,18.211-17.199&#10;&#9;&#9;c4.049-5.053,7.078-7.076,12.135-15.166c5.054-9.109,6.065-10.115,10.114-20.232c13.151-32.363,11.127-72.82-5.061-103.167&#10;&#9;&#9;c-3.029-7.081-7.078-14.159-11.123-19.22c-6.065-8.088-9.102-10.112-15.175-17.193C212.863,20.588,177.464,7.439,143.068,9.463&#10;&#9;&#9;L143.068,9.463L143.068,9.463z M150.146,70.15L150.146,70.15c2.031-1.012,9.105,3.033,12.142,4.045&#10;&#9;&#9;c3.037,2.024,7.078,3.033,11.127,5.058l17.191,7.081c8.098,3.036,6.073,2.024,8.098,7.077c4.041,9.103,8.086,19.217,12.135,28.322&#10;&#9;&#9;c1.012,3.033,4.041,9.103,5.053,12.139c0,2.021-12.135,30.343-14.158,34.388l-4.042,11.125c-1.012,2.021-9.109,4.045-12.138,5.059&#10;&#9;&#9;l-33.376,14.158c-2.031,1.012-19.22-7.078-23.269-8.09l-22.249-10.113c-3.036-1.014-15.175-33.381-17.195-39.446&#10;&#9;&#9;c-1.012-1.02-2.024-4.048-3.032-5.061c0-2.021,11.126-29.33,14.155-34.392c5.061-13.15,2.024-11.126,9.102-14.158&#10;&#9;&#9;c2.032-1.009,4.049-2.021,6.073-3.033L150.146,70.15L150.146,70.15z M185.554,54.977L185.554,54.977l52.591-7.082l-7.077,51.582&#10;&#9;&#9;c-3.037,0-32.363-12.135-32.363-12.135C197.691,86.333,186.565,56.998,185.554,54.977L185.554,54.977z M119.808,215.797&#10;&#9;&#9;c1.012-1.012,30.339-14.158,31.358-14.158c1.012,0,27.302,12.139,31.351,13.146c-1.012,2.02-4.049,6.068-6.065,8.09&#10;&#9;&#9;c0,1.012-1.012,2.023-2.024,3.037l-23.261,31.357l-16.188-21.24C129.922,228.943,124.864,221.863,119.808,215.797L119.808,215.797z&#10;&#9;&#9; M71.257,99.477L64.18,47.895l51.583,7.082c0,2.021-11.127,31.356-12.139,32.365L73.281,99.477c0,0,0,0-1.012,0&#10;&#9;&#9;C72.27,99.477,72.27,99.477,71.257,99.477L71.257,99.477z M232.079,166.234v-1.012c-2.024-2.021-14.163-30.342-14.163-30.342&#10;&#9;&#9;c0-1.009,12.139-28.318,14.163-31.354c1.013,0,8.09,6.072,10.114,7.084l31.351,24.271l-36.411,27.313&#10;&#9;&#9;C235.115,163.201,234.104,165.223,232.079,166.234L232.079,166.234z M119.808,53.965h-0.004l31.362-41.469l8.086,10.112&#10;&#9;&#9;c3.036,3.033,5.061,7.082,8.09,10.118c2.024,3.032,14.163,19.214,15.175,21.239c-4.049,2.023-29.334,13.148-31.351,13.148&#10;&#9;&#9;l-30.347-13.148C119.808,53.965,119.808,53.965,119.808,53.965L119.808,53.965z M71.257,170.279&#10;&#9;&#9;c1.013-1.012,1.013-1.012,2.024-1.012l30.343,13.15c1.012,0,6.065,13.146,6.065,15.172c1.013,3.035,7.085,15.174,6.073,16.188&#10;&#9;&#9;l-51.583,7.076L71.257,170.279L71.257,170.279z M186.565,213.777c-1.012-1.014,12.139-31.359,12.139-31.359l32.363-13.15&#10;&#9;&#9;l6.065,51.586L186.565,213.777L186.565,213.777z M28.776,134.88l41.469-32.367l14.163,32.367c0,0-13.151,29.334-14.163,31.354&#10;&#9;&#9;C57.095,157.133,40.915,142.97,28.776,134.88L28.776,134.88z M66.204,45.872c7.077-7.078,26.294-22.247,36.408-24.271&#10;&#9;&#9;c2.023,2.024,5.061,12.139,7.077,15.169c2.032,4.045,5.061,11.126,6.073,16.184C110.702,52.953,67.212,46.883,66.204,45.872&#10;&#9;&#9;L66.204,45.872z M240.169,219.842c-1.012-2.023-6.065-44.506-7.077-50.574c1.012,1.012,30.338,12.139,31.351,13.15&#10;&#9;&#9;C260.401,195.564,249.278,209.729,240.169,219.842L240.169,219.842z M234.104,167.246L234.104,167.246&#10;&#9;&#9;c1.012-1.012,3.029-2.023,5.054-4.045l35.399-26.296c1.012,8.09-5.054,38.431-9.103,43.49&#10;&#9;&#9;C264.442,180.395,237.133,169.268,234.104,167.246L234.104,167.246z M37.882,182.418c1.012-1.012,28.322-12.139,31.354-13.15&#10;&#9;&#9;l-6.069,50.574C56.09,214.785,40.915,192.529,37.882,182.418L37.882,182.418z M105.648,20.588L105.648,20.588&#10;&#9;&#9;c6.065-4.045,34.388-10.117,43.493-9.104l-23.265,30.343c-1.013,2.023-7.082,9.105-8.09,10.113L105.648,20.588L105.648,20.588z&#10;&#9;&#9; M37.882,86.333c2.021-6.069,11.123-21.24,16.184-27.313c2.024-2.022,5.053-8.088,9.102-10.112l6.069,50.569l-16.183-6.066&#10;&#9;&#9;c-2.025-1.012-5.062-3.036-7.086-4.048C42.938,88.35,39.902,87.342,37.882,86.333L37.882,86.333z M153.183,257.27L153.183,257.27&#10;&#9;&#9;c1.016-1.012,16.184-21.24,19.22-25.289l11.127-15.176c1.012,1.014,2.024,3.037,2.024,4.049l5.053,12.135&#10;&#9;&#9;c2.024,4.045,5.061,11.131,7.085,16.184c-6.072,2.025-14.162,4.049-21.24,6.074C165.325,257.27,161.276,256.258,153.183,257.27&#10;&#9;&#9;L153.183,257.27z M36.87,180.395L36.87,180.395c-1.012-3.033-2.024-6.066-3.037-10.115c-3.032-10.109-6.068-22.248-6.068-33.375&#10;&#9;&#9;l8.094,6.065c1.012,1.012,1.012,1.012,3.035,2.024l27.311,20.228c1.008,1.012,1.008,1.012,1.008,2.023l1.009,1.014&#10;&#9;&#9;C61.144,170.279,43.951,178.373,36.87,180.395L36.87,180.395z M66.204,222.875l49.559-7.078c0,3.033-2.024,6.066-3.037,8.09&#10;&#9;&#9;c-2.023,5.057-9.102,22.256-10.113,24.273C93.51,244.119,70.245,229.957,66.204,222.875L66.204,222.875z M234.104,101.5&#10;&#9;&#9;L234.104,101.5l31.351-13.15c1.013,2.024,5.062,16.188,6.073,20.236c2.017,8.09,3.029,15.167,3.029,23.261&#10;&#9;&#9;c-2.024,0-4.041-2.024-5.054-3.036l-15.171-12.135C250.283,113.639,235.115,103.526,234.104,101.5L234.104,101.5z M233.092,99.477&#10;&#9;&#9;v0.008l6.065-50.577c5.061,4.045,11.126,12.137,14.162,17.194c2.021,3.036,4.045,6.068,6.069,10.117&#10;&#9;&#9;c1.013,2.021,5.054,10.114,5.054,10.114L233.092,99.477L233.092,99.477z M186.565,52.953L186.565,52.953&#10;&#9;&#9;c0-1.013,11.126-30.345,13.144-31.356c2.024,1.012,7.081,3.037,10.117,5.061c3.037,2.021,6.065,3.033,9.103,5.058&#10;&#9;&#9;c3.036,2.024,7.077,5.055,9.102,7.079l8.09,7.078l0,0l0,0l-25.281,4.049C202.745,50.932,194.655,51.94,186.565,52.953&#10;&#9;&#9;L186.565,52.953z M104.636,249.172L104.636,249.172l13.151-32.367l20.229,25.289c1.012,2.025,2.021,3.037,3.032,5.055&#10;&#9;&#9;c2.021,3.035,7.082,8.098,8.094,10.121c-8.094,0-17.195-1.012-24.277-2.023C115.763,253.221,109.689,250.184,104.636,249.172&#10;&#9;&#9;L104.636,249.172z M27.765,131.847L27.765,131.847c0-14.163,5.057-32.37,9.105-43.497l31.351,13.15l-10.114,8.09&#10;&#9;&#9;c-1.012,1.013-3.029,2.025-5.053,4.049c-1.013,1.013-3.037,2.024-5.062,3.037L27.765,131.847L27.765,131.847z M184.541,51.94&#10;&#9;&#9;L184.541,51.94l-31.358-40.456c7.082,0,17.195,1.012,24.281,3.035c4.041,1.01,16.18,4.045,20.228,6.07L184.541,51.94L184.541,51.94&#10;&#9;&#9;z M199.716,248.16L199.716,248.16l-13.15-32.363l49.563,7.078c-1.013,2.023,0,1.012-2.024,2.023&#10;&#9;&#9;c-1.012,1.014-1.012,1.014-2.024,2.025l-8.09,7.078C218.929,238.047,204.77,246.143,199.716,248.16L199.716,248.16z&#10;&#9;&#9; M199.716,179.385c2.018-5.057,16.176-40.459,17.188-41.468l13.15,29.33C229.043,168.26,202.745,178.373,199.716,179.385&#10;&#9;&#9;L199.716,179.385z M216.904,131.847c-1.013-2.024-16.176-38.437-17.188-41.473c7.074,2.024,25.278,10.114,30.339,11.126&#10;&#9;&#9;c-1.012,3.037-2.024,5.062-3.036,8.098L216.904,131.847L216.904,131.847z M154.198,68.125l30.343-12.137l11.126,30.345&#10;&#9;&#9;C194.655,85.321,155.211,70.15,154.198,68.125L154.198,68.125z M106.66,86.333L106.66,86.333l12.135-30.345&#10;&#9;&#9;c2.024,0,12.139,5.056,15.172,6.068c4.049,2.023,10.114,4.045,14.163,6.064c-2.024,2.028-17.196,8.098-21.241,9.106&#10;&#9;&#9;C121.832,79.252,110.702,84.309,106.66,86.333L106.66,86.333z M72.27,167.246l13.15-30.341l13.144,31.355&#10;&#9;&#9;c1.012,3.031,3.036,8.09,4.049,11.125L72.27,167.246L72.27,167.246z M154.198,200.625l41.469-17.195l-11.126,30.348&#10;&#9;&#9;L154.198,200.625L154.198,200.625z M118.795,213.777L106.66,183.43l41.47,17.195L118.795,213.777L118.795,213.777z M72.27,101.5&#10;&#9;&#9;l30.343-11.126L85.42,131.847l-10.114-23.261C74.294,106.562,73.281,104.538,72.27,101.5z" id="el_5eNHk8T5P-"/>
</g>
<g id="el_PdtKKEFDAC">
	<g id="el_naPnLPwMBE">
		<circle fillRule="evenodd" clip-rule="evenodd" cx="203.577" cy="94" r="1.245" id="el_ixflTJjXor"/>
	</g>
	<g id="el_TCoufxfQYY">
		
			<ellipse fillRule="evenodd" clip-rule="evenodd" cx="180.222" cy="194.226" rx="3.356" ry="1.093" id="el_Sc1OHnsPne"/>
	</g>
	<g id="el_vMBsT9PJ8u">
		<text id="el_uWDzmqLW54"><tspan x="0" y="0" font-family="'Convection-Bold'" font-size="25" id="el_Jid2ffO4u6"> </tspan><tspan x="6.006" y="0" font-family="'Convection-Bold'" font-size="25" id="el_l0tqXxGaYs">SI 1 </tspan></text>
	</g>
</g>
<g id="el_aDu68s46TJ">
	<text id="el_ZDkGNsX00G"><tspan x="0" y="0" font-family="'Convection-Bold'" font-size="25" id="el_tEIc3eWw2z"> </tspan><tspan x="6.006" y="0" font-family="'Convection-Bold'" font-size="25" id="el_kwTAjy7gGI">SI 2 </tspan></text>
	<circle fillRule="evenodd" clip-rule="evenodd" cx="228.333" cy="137" r="1.245" id="el_jUXilu0Zdvm"/>
	
		<ellipse fillRule="evenodd" clip-rule="evenodd" cx="95" cy="136.334" rx="3.356" ry="1.093" id="el_wAdPEVZWLVZ"/>
	
		<ellipse fillRule="evenodd" clip-rule="evenodd" cx="181.188" cy="192.812" rx="0.393" ry="1.21" id="el_vao7j9CsgYJ"/>
	<circle fillRule="evenodd" clip-rule="evenodd" cx="241.667" cy="189.334" r="1.245" id="el_MZPnUZ66SEE"/>
</g>
</svg>