<?xml version="1.0" encoding="utf-8"?>
<!-- Generator: Adobe Illustrator 16.0.0, SVG Export Plug-In . SVG Version: 6.00 Build 0)  -->
<!DOCTYPE svg PUBLIC "-//W3C//DTD SVG 1.1//EN" "http://www.w3.org/Graphics/SVG/1.1/DTD/svg11.dtd">
<svg version="1.1" id="Layer_1" xmlns="http://www.w3.org/2000/svg" xmlns:xlink="http://www.w3.org/1999/xlink" x="0px" y="0px"
	 width="120px" height="120px" viewBox="0 0 120 120" enable-background="new 0 0 120 120" xml:space="preserve">
<polygon fill="#A8996E" points="77.732,35.292 80.164,34.028 79.455,33.522 77.835,34.433 78.189,32.613 77.434,32.107 
	77.079,34.836 76.118,36.253 76.771,36.708 "/>
<path fill="#A8996E" d="M64.689,30.034l0.56,0.102l0.504,1.769l0.912,0.152l-0.608-1.921c0.103,0,0.201-0.051,0.303-0.102
	c0.103-0.05,0.205-0.101,0.307-0.201c0.1-0.102,0.15-0.152,0.197-0.303c0.055-0.102,0.104-0.253,0.154-0.354
	c0.051-0.152,0.051-0.354,0-0.506c-0.052-0.152-0.101-0.303-0.201-0.455c-0.103-0.153-0.205-0.253-0.354-0.354
	c-0.149-0.102-0.354-0.152-0.558-0.203l-1.615-0.253l-0.708,4.096l0.808,0.151L64.689,30.034z M64.997,28.264l0.756,0.152
	c0.149,0.051,0.304,0.102,0.405,0.203c0.1,0.101,0.1,0.253,0.1,0.405c-0.049,0.152-0.1,0.303-0.201,0.353
	c-0.1,0.102-0.252,0.102-0.453,0.051l-0.76-0.151L64.997,28.264z"/>
<polygon fill="#A8996E" points="83.246,37.719 81.225,37.567 81.124,39.59 83.146,39.69 "/>
<polygon fill="#A8996E" points="31.527,57.587 30.768,57.537 30.718,59.458 29.707,59.458 29.756,57.79 29.05,57.79 28.999,59.407 
	28.039,59.407 28.089,57.486 27.381,57.436 27.279,60.166 31.425,60.318 "/>
<polygon fill="#A8996E" points="63.428,75.132 63.021,76.141 69.24,76.141 69.039,75.132 "/>
<polygon fill="#A8996E" points="72.73,34.281 74.197,31.196 75.158,31.652 75.459,30.995 72.781,29.73 72.477,30.388 73.436,30.844 
	71.973,33.927 "/>
<polygon fill="#A8996E" points="77.027,83.066 77.48,83.625 78.947,82.412 79.605,83.221 78.342,84.23 78.796,84.786 80.063,83.775 
	80.668,84.534 79.2,85.746 79.656,86.302 81.73,84.534 79.148,81.35 "/>
<polygon fill="#A8996E" points="85.775,47.223 86.127,48.083 87.744,48.234 86.734,49.549 87.09,50.409 88.555,48.386 90.88,48.689 
	90.525,47.831 89.012,47.678 89.971,46.515 89.617,45.656 88.2,47.577 "/>
<g transform="translate(15.62 19.34)">
	<path fill="#A8996E" d="M64.148,26.134l-0.049-0.203H24.663l-0.05,0.203c0,0.051-1.315,7.735,0.455,16.43
		c1.617,8.039,6.318,18.705,19.262,23.662l0.101,0.049l0.102-0.049c13.145-5.158,17.796-15.775,19.363-23.814
		C65.564,33.768,64.148,26.235,64.148,26.134z M48.98,41.503c0.051,0.05,0.153,0.05,0.205,0.152c0,0.101,0.149,0.202,0.2,0.303
		c0.052,0.052,0.103,0.101,0.052,0.151c0,0.05-0.15,0.152-0.205,0.152c-0.047,0-0.099-0.052-0.201-0.052
		c-0.098,0.052-0.352,0-0.403,0.052c-0.05,0.051-0.202,0.102-0.302,0.102c-0.053-0.305-0.152-0.607-0.203-0.911
		c0.252-0.051,0.558-0.051,0.811-0.101C48.933,41.402,48.98,41.503,48.98,41.503z M34.775,41.857c0,0.302-0.557,0.455-0.303,0.656
		c0.201,0.203,0.05,0.354-0.151,0.558h-1.113c0-0.306-0.05-0.606-0.05-0.912c0.506-0.201,1.011-0.453,1.566-0.656
		C34.723,41.603,34.775,41.806,34.775,41.857z M57.172,42.058c0,0.101,0.149,0.254,0.149,0.354c0.052,0.254-0.051,0.507-0.051,0.607
		v0.052h-1.869c-0.051-0.204-0.103-0.405-0.103-0.606c-0.049-0.254-0.103-0.507-0.201-0.759c0.152,0.05,0.353,0.101,0.405,0.151
		c0.048,0.05-0.055,0.15,0,0.201c0.048,0.051,0.1,0.051,0.201,0.101c0.051,0.052,0,0.153,0.051,0.153
		c0.102,0.051,0.102,0,0.201,0.051c0.201,0.15,0.255-0.204,0.303-0.254c0.153-0.102,0.252,0.102,0.405,0.102
		c0.1,0,0.255-0.253,0.405-0.354c0.047-0.051,0.102-0.051,0.149-0.051C57.273,41.806,57.172,41.958,57.172,42.058z M38.313,42.312
		c-0.151-0.051-0.404,0-0.555-0.051c0,0-0.303-0.152-0.405-0.203c-0.051,0,0-0.051,0-0.051c0.051,0,0.102-0.051,0.102-0.051
		s-0.051-0.15-0.102-0.15c-0.051-0.051-0.051-0.102-0.101-0.151c-0.051-0.052-0.102-0.152-0.102-0.152
		c-0.101-0.151,0-0.253-0.252-0.303c-0.051,0-0.303,0.403-0.505,0.403c-0.051-0.252-0.051-0.505-0.051-0.758
		c1.417-0.455,1.871-0.607,3.085-0.96c0.151,0.858,0.303,1.769,0.455,2.677c-0.455,0.154-0.911,0.256-1.365,0.406
		c0.051-0.104,0.102-0.205,0.102-0.252C38.667,42.666,38.364,42.312,38.313,42.312z M31.589,40.593c0,0-0.101,0-0.151,0
		c-0.051,0-0.051,0-0.051,0.051c0,0.051,0,0.101,0,0.151c0,0.05-0.201,0.405-0.252,0.455c-0.051,0-0.152,0.051-0.253,0
		c0.051-0.303,0.102-0.555,0.202-0.809c0.102-0.05,0.254-0.152,0.405-0.203C31.691,40.341,31.589,40.543,31.589,40.593z
		 M31.235,39.784c0.151-0.404,0.253-0.809,0.456-1.212c0.101,0.101,0.303,0.201,0.252,0.404c-0.051,0.151-0.151,0.202-0.203,0.354
		c-0.049,0.101-0.049,0.151-0.101,0.252C31.488,39.683,31.386,39.734,31.235,39.784z M33.157,37.509
		c-0.102,0.101-0.051,0.152-0.253,0.253c0,0-0.303,0.353-0.252,0.455c0.049,0.101-0.152,0.505,0,0.555
		c0.101,0.051-0.051,0.203-0.051,0.253c0,0.05-0.252,0-0.303-0.102c-0.151-0.252,0.051-0.455,0.051-0.555
		c-0.051-0.102-0.253-0.253-0.405-0.253c0.051-0.101,0.101-0.201,0.152-0.303c0.405-0.252,0.911-0.506,1.416-0.758
		c-0.051,0.151-0.102,0.303-0.153,0.455C33.309,37.458,33.207,37.458,33.157,37.509z M34.067,36.751
		c0.556-0.253,1.163-0.505,1.82-0.759c0.051,0,0.151-0.051,0.203-0.051c-0.102,0.557-0.203,1.164-0.253,1.821
		c-0.101,0.05-0.201,0.05-0.252,0.101c-0.101-0.051-0.101-0.253-0.151-0.303c-0.051-0.102-0.203-0.051-0.253-0.051
		c-0.05-0.051-0.05-0.151-0.152-0.151c-0.049,0-0.303-0.051-0.404-0.152c-0.102-0.051-0.455-0.253-0.556-0.253
		c-0.051,0-0.152,0.051-0.203,0.051C33.965,37.004,34.015,36.903,34.067,36.751z M34.067,41.25c-0.051,0-0.101,0.051-0.203,0.051
		c0-0.251,0.051-0.152,0.102-0.303c0-0.051-0.202-0.102-0.253-0.152c-0.252-0.202-0.151-0.505-0.101-0.607
		c0.051-0.101,0.557-0.504,0.404-0.555c-0.303-0.152,0.253-0.708,0.405-0.606c0.202,0.05,0.405-0.354,0.606-0.304
		c0.203,0.051,0.152,0.102,0.203,0.253c0.051,0.101-0.051,0.203-0.051,0.303s-0.201,0.151-0.152,0.303
		c0.051,0.151-0.404,0.708-0.455,0.759c-0.101,0.05-0.101,0.404,0.101,0.303c0.203-0.102,0.253,0.151,0.305,0.201
		C34.672,40.998,34.32,41.149,34.067,41.25z M37.504,35.79c0,0.102,0.051,0.151,0.102,0.253c0,0.051,0.101,0.151,0.101,0.101
		c0.051,0,0.051,0,0.101-0.05c0.102-0.051,0.151,0.05,0.253,0.05c0,0,0.101,0,0.151,0.051c0.051,0.051,0.051,0.152,0,0.203
		c-0.051,0.05-0.101,0.101-0.101,0.101c-0.253,0.051-0.505-0.101-0.405,0.354c0,0.101,0.051,0.203,0.101,0.253
		c-0.455,0.152-0.809,0.252-1.415,0.455c0.051-0.657,0.151-1.265,0.252-1.82c0.456-0.151,0.759-0.253,1.011-0.354
		C37.555,35.537,37.504,35.74,37.504,35.79z M56.464,40.492c-0.252-0.051-0.404,0.051-0.507,0.203
		c-0.304-0.051-0.606-0.051-0.909-0.051l0,0c0.102-0.303,0-0.657,0.148-0.96c0.055-0.102,0.205-0.203,0.308-0.203
		c0.048,0,0.048,0.101,0.149,0.152c0.052,0,0.052,0.102,0.103,0.151c0,0.051,0.103,0,0.149,0c0.103,0.051,0.203,0.102,0.307,0.051
		c0.1-0.101,0.252-0.202,0.354-0.253l0,0c0.101,0.253,0.199,0.557,0.354,0.86C56.765,40.492,56.566,40.543,56.464,40.492z
		 M53.175,42.058c0-0.051,0.104,0.051,0.204,0c0.051,0,0.051-0.102,0.051-0.102c-0.103-0.051-0.354-0.102-0.507-0.15
		c-0.048,0,0-0.102-0.048-0.102c-0.204-0.051-0.408-0.102-0.456-0.152c-0.104-0.151-0.104-0.304,0.102-0.304
		c0.15,0,0.453,0.103,0.654,0.203h0.354c0.055,0.051,0.055,0.354,0.152,0.405c0.153,0.05,0.201,0.201,0.256,0.302
		c0.049,0.052,0.149,0.052,0.198,0.103c0.103,0.103,0.203,0.303,0.306,0.404c0.15,0.153,0.303,0.1,0.402,0.1
		c0.055,0.153,0.055,0.307,0.102,0.408h-1.771c0-0.054-0.048-0.152-0.048-0.203c0-0.052,0.048-0.052,0.048-0.052
		c0.054-0.1,0.103-0.2,0.153-0.304C53.379,42.412,53.175,42.159,53.175,42.058z M50.144,38.369c0.252,0.303,0.201,0.303-0.102,0.506
		c-0.104,0.049-0.456,0.252-0.402,0.403c0,0.152,0.15,0.203-0.054,0.303c-0.101,0.051-0.354,0.305-0.453,0.102
		c-0.052-0.102,0.052-0.303,0-0.405c-0.052-0.049-0.153-0.049-0.2-0.049c0,0-0.055,0-0.055-0.051
		c-0.1-0.303-0.757-0.505-0.907-0.657c-0.054-0.051-0.054-0.151-0.054-0.202c0.912-0.101,1.314-0.152,2.275-0.203v0.051
		C50.193,38.218,50.093,38.267,50.144,38.369z M43.116,39.077c0.203,0.809,0.405,1.718,0.607,2.629
		c-1.113,0.201-2.225,0.505-3.286,0.759c-0.203-0.961-0.354-1.821-0.456-2.681C40.992,39.532,42.105,39.278,43.116,39.077z
		 M42.61,33.212c0,0,0.051-0.101,0.051-0.151c0-0.101-0.152-0.203-0.152-0.252c0-0.051-0.051-0.051-0.151-0.102
		c0.505-0.101,1.011-0.152,1.466-0.252c0.252,0.252,0.506,0.606,0.758,1.011c-0.658,0.101-1.364,0.201-2.021,0.353
		C42.459,33.617,42.409,33.414,42.61,33.212z M50.698,35.032c0.052-0.152,0.103-0.203,0.103-0.455c0,0,0.052-0.051,0.101-0.102
		c0.151,0.202,0.354,0.405,0.506,0.607l0,0c-0.2,0-0.354,0-0.506,0C50.853,35.032,50.801,35.032,50.698,35.032z M48.98,35.992
		c0,0.051-0.201,0.203-0.252,0.303c-0.102,0.354,0.303,0.708,0.252,0.708v0.051c0.051,0.051,0.103,0.203,0.153,0.252
		c0.052,0.051,0.151,0.102,0.201,0.102h0.051h0.052c0.051,0,0.102,0,0.149-0.051c0.054-0.051,0.103-0.101,0.151-0.152
		c0.053,0.152,0.101,0.252,0.154,0.404c-1.064,0.102-1.52,0.102-2.328,0.203c-0.05-0.05-0.101-0.151-0.15-0.203
		c-0.051-0.049-0.303,0.102-0.402,0.203c-0.255-0.707-0.507-1.415-0.762-2.072c0.912-0.102,1.771-0.203,2.629-0.253
		c0.055,0.051,0.055,0.102,0.102,0.151C48.878,35.841,49.03,35.841,48.98,35.992z M39.88,39.077
		c0.203-0.051,0.203,0.101,0.404-0.253c0.102-0.151,0-0.252,0.051-0.455c0-0.151,0.254-0.708,0.102-0.809
		c-0.153-0.152,0.353-0.405,0.455-0.405c0.101,0,0.101-0.05,0.152-0.101c0,0,0.051-0.203,0.051-0.303
		c0.504-0.102,0.96-0.203,1.415-0.304c0.152,0.657,0.354,1.365,0.557,2.174c-1.467,0.303-1.871,0.405-3.134,0.708
		C39.88,39.278,39.88,39.178,39.88,39.077L39.88,39.077z M42.762,34.577c0-0.051,0.051-0.151,0-0.202
		c-0.05-0.051-0.101-0.101-0.152-0.203c0.759-0.152,1.466-0.252,2.225-0.354c0.252,0.456,0.557,1.011,0.809,1.568
		c-0.91,0.151-1.871,0.303-2.78,0.455c-0.102-0.303-0.151-0.606-0.253-0.86C42.762,34.88,42.863,34.729,42.762,34.577z
		 M48.679,35.133c-1.115,0.102-1.518,0.151-2.58,0.253c-0.252-0.606-0.558-1.112-0.811-1.568c0.76-0.101,1.52-0.152,2.227-0.201
		C47.917,34.02,48.325,34.526,48.679,35.133z M47.716,33.111c-0.354-0.354-0.705-0.657-1.011-0.96c0.456,0,0.858,0,1.266,0
		c0.505,0.252,1.009,0.556,1.466,0.91C48.878,33.06,48.325,33.06,47.716,33.111z M47.11,33.161
		c-0.658,0.051-1.367,0.102-2.074,0.202c-0.252-0.403-0.504-0.708-0.707-1.011c0.707-0.101,0.958-0.101,1.667-0.151
		C46.351,32.454,46.756,32.757,47.11,33.161z M42.358,35.992c-0.354,0.051-0.657,0.152-1.011,0.203l0,0
		c0.252-0.606,0.606-0.657,0.809-0.809C42.256,35.589,42.307,35.79,42.358,35.992z M43.824,36.195
		c-0.101,0.101-0.253,0.252-0.303,0.252c-0.051,0-0.202,0.354-0.151,0.456c0.05,0.101,0.101,0.202,0.201,0.303
		c-0.05,0.051,0.354-0.202,0.305-0.101c-0.051,0.252,0.303-0.102,0.353-0.102c0.203-0.203,0.456-0.455,0.658-0.657
		c0.05-0.051-0.102-0.203-0.304-0.303c0.354-0.051,0.658-0.102,1.162-0.152c0.253,0.657,0.559,1.366,0.811,2.124
		c-1.014,0.151-2.022,0.303-3.085,0.505c-0.203-0.758-0.354-1.466-0.557-2.174C43.318,36.295,43.621,36.246,43.824,36.195z
		 M51.254,37.055c0.103-0.102-0.103-0.253-0.103-0.354c-0.047-0.051,0.307-0.455,0.156-0.557c-0.055-0.05-0.408-0.203-0.408-0.252
		c0,0-0.049-0.303-0.049-0.405c0.301,0,0.506,0,0.809,0c0,0.051,0,0.102-0.051,0.203c-0.049,0.202,0.354,0.252,0.354,0.252
		s0.051,0,0.102,0c0.103,0.153,0.205,0.305,0.303,0.456c-0.151,0.05-0.252,0.506-0.252,0.606c0,0.505,0.154,0.202,0.201,0.354
		c0,0.051-0.047,0.101-0.102,0.203c-0.402,0-0.857,0-1.314,0.049c0.055-0.303,0.457-0.151,0.457-0.404
		C51.357,37.155,51.151,37.155,51.254,37.055z M53.23,35.589L53.23,35.589c0.049,0.049,0.301,0.555,0.252,0.657
		c-0.052,0.101-0.404,0.049-0.605,0.101c-0.104-0.203-0.253-0.405-0.408-0.606l0.055-0.051c0.102-0.051,0.2-0.101,0.354-0.152
		C52.974,35.537,53.127,35.589,53.23,35.589z M51.814,34.78c-0.205-0.253-0.406-0.456-0.606-0.657
		c0.149-0.153,0.556-0.354,0.653-0.203C52.014,34.072,51.762,34.577,51.814,34.78z M49.689,33.718c0,0.051,0,0.202,0.051,0.252
		c0.1,0.253-0.051,0.102-0.152,0.456c-0.049,0.354,0.152,0.151-0.1,0.455c-0.051,0.051-0.103,0.101-0.103,0.203
		c-0.051,0-0.101,0-0.153,0c-0.354-0.557-0.707-1.063-1.109-1.517c0.757-0.051,1.063-0.051,1.669,0
		C49.79,33.617,49.689,33.666,49.689,33.718z M46.099,31.746c-0.203-0.101-0.354-0.203-0.558-0.303c0.103,0,0.155,0,0.255,0
		c0.354,0.051,0.759,0.151,1.113,0.252C46.655,31.746,46.452,31.746,46.099,31.746z M43.976,31.949
		c-0.203-0.203-0.354-0.303-0.455-0.405c0.303-0.05,0.606-0.05,0.86-0.05c0.303,0.05,0.608,0.152,0.961,0.303
		C44.886,31.847,44.43,31.897,43.976,31.949z M46.756,38.47c0.052,0.203,0.153,0.455,0.201,0.657c-0.048,0-0.101,0.051-0.101,0.051
		c-0.102,0-0.051,0.354-0.051,0.354c-0.051,0.101,0,0.203,0,0.252c0.051,0.102,0.15,0,0.15,0.051
		c0.102,0.152-0.201,0.506,0.054,0.506c0.048,0,0.149-0.051,0.252-0.102c0.05,0.253,0.15,0.557,0.201,0.81
		c-1.063,0.152-2.176,0.353-3.236,0.554c-0.252-1.01-0.455-1.869-0.606-2.627C44.684,38.773,45.696,38.621,46.756,38.47z
		 M48.021,40.998c-0.104-0.455-0.254-0.911-0.354-1.365c0.456-0.152,0.306,0.405,0.507,0.202c0.051-0.051,0.252,0.101,0,0.252
		c-0.152,0.051,0.051,0.202,0.1,0.253c0.152,0.101,0.354-0.657,0.811-0.303c0.052,0.05,0,0.101-0.051,0.101
		c-0.051,0.051,0,0.101-0.1,0.101c-0.103,0.051-0.103,0.102-0.203,0.102c-0.05,0,0.051,0.203,0.051,0.203
		c0.051,0.101-0.201,0.252-0.354,0.353C48.273,40.947,48.121,40.998,48.021,40.998z M52.014,42.514
		c-0.051-0.252-0.1-0.556-0.2-0.808c0.102,0.151,0.252,0.252,0.455,0.252c0.1,0,0.15,0,0.252,0.052c0.103,0,0.15,0.101,0.252,0.149
		c0.104,0.052,0.201,0.204,0.252,0.306c0,0.049,0.053,0.254-0.051,0.301c-0.099,0.055-0.252,0.055-0.352,0.055
		c-0.055,0-0.155,0.048-0.155,0.201c0,0.051,0,0.051,0,0.051h-0.301C52.114,42.867,52.066,42.666,52.014,42.514z M57.069,39.734
		c0.304,0.05,1.01,0,1.264,0.555c0.201,0.455-0.605,0.203-1.012,0.203C57.273,40.239,57.172,39.987,57.069,39.734z M50.396,32.757
		c0,0-0.252-0.102-0.303-0.051c0,0.051-0.051,0.151-0.051,0.151s0,0-0.104,0.051c-0.453-0.354-0.707-0.557-1.008-0.708
		c0.252,0,0.453,0.051,0.708,0.102c0.253,0.101,0.505,0.201,0.757,0.353C50.396,32.706,50.396,32.757,50.396,32.757z M42.813,31.645
		c0.203,0.101,0.405,0.201,0.606,0.404c-0.353,0.051-0.707,0.102-1.061,0.151c0,0-0.051,0-0.051-0.05c0,0-0.051-0.051-0.101-0.051
		c-0.102,0-0.253,0.051-0.303,0c-0.051,0-0.051-0.051-0.051-0.102c0.051-0.101,0.252,0,0.252-0.252v-0.051
		C42.358,31.746,42.61,31.695,42.813,31.645z M39.375,39.481c-1.466,0.405-1.871,0.557-3.034,0.911c0-0.102,0-0.203,0-0.304
		c0.303-0.05,0.253-0.404,0.253-0.404c0-0.102,0.101-0.354,0.101-0.354c0.254-0.051,0.102-0.557,0.254-0.606
		c0.151-0.102,0-0.354-0.102-0.303c-0.101,0.05-0.152,0.101-0.203,0.152c-0.05,0.049-0.151,0.049-0.151,0
		c0-0.051-0.05-0.152-0.152-0.203c0-0.102,0-0.151,0-0.253c0.86-0.303,1.314-0.455,1.871-0.606
		c-0.051,0.152-0.101,0.405-0.051,0.506c0.051,0.101,0.102,0.051,0.151,0.151c0.051,0.051,0,0.253,0.051,0.303
		c0.051,0.102,0.202,0.203,0.202,0.253c0.101,0.101,0.152,0.354,0.252,0.354c0.051,0,0.151,0,0.203,0.101
		c0,0.051,0.151,0.051,0.202,0.051c0.051,0.101,0.101,0.101,0.152,0.101C39.375,39.329,39.375,39.43,39.375,39.481z M38.009,34.88
		L38.009,34.88c-0.455,0.152-0.758,0.252-1.263,0.404c0.051-0.151,0.101-0.303,0.101-0.404C37.555,34.426,37.909,34.88,38.009,34.88
		z M35.38,34.981c0.152,0,0.354,0.253,0.405,0.253c0.101,0,0.303-0.202,0.506-0.202c-0.051,0.151-0.102,0.303-0.152,0.455
		l-0.102,0.051c-0.101,0.051-0.202,0.101-0.354,0.101c-0.555,0.203-1.011,0.405-1.466,0.557c0.253-0.505,0.505-0.96,0.86-1.415
		c0.051,0,0.051-0.051,0.101-0.051C35.28,34.829,35.33,34.981,35.38,34.981z M33.561,35.589c0.253-0.152,0.557-0.305,0.86-0.456
		c-0.152,0.253-0.354,0.557-0.455,0.859c-0.051-0.051-0.202-0.151-0.253-0.151c0,0-0.151-0.051-0.252-0.101
		C33.46,35.689,33.511,35.638,33.561,35.589z M33.055,36.295c0.051-0.049,0.608-0.101,0.657,0c0,0.051,0.051,0.051,0.102,0.051
		c0,0.051-0.051,0.051-0.051,0.101c-0.455,0.202-0.86,0.405-1.264,0.607c0.152-0.253,0.303-0.455,0.455-0.708
		C32.954,36.347,33.005,36.295,33.055,36.295z M30.629,38.773c0.354-0.303,0.506-0.404,0.758-0.555
		c-0.252,0.606-0.505,1.263-0.707,1.92c-0.152,0.101-0.303,0.203-0.405,0.253c0-0.051,0.051-0.153,0-0.253
		c-0.051-0.051-0.101-0.203-0.151-0.354C30.224,39.532,30.377,39.229,30.629,38.773z M32.701,42.363c0,0.252,0,0.456,0,0.708h-0.758
		c-0.051-0.052-0.051-0.204-0.101-0.306C32.095,42.615,32.398,42.514,32.701,42.363z M40.538,43.071c0-0.052,0-0.052,0-0.103
		c1.112-0.304,2.224-0.558,3.337-0.759c0.049,0.304,0.151,0.556,0.201,0.86L40.538,43.071L40.538,43.071z M44.582,43.071
		c-0.05-0.252-0.101-0.507-0.152-0.759l-0.05-0.254c1.514-0.303,1.971-0.354,3.285-0.556c0.102,0.404,0.203,0.909,0.306,1.416
		c0,0.052,0,0.103,0.05,0.103h-3.438V43.071z M49.993,42.971c0.1-0.104,0.1-0.205,0.199-0.354c0.054-0.103,0.254-0.203,0.254-0.304
		c0-0.051-0.103-0.152-0.103-0.254c0-0.101,0.103-0.15,0.153-0.2c0.15-0.103,0.354,0.05,0.455-0.052
		c0.15-0.15,0.199-0.404,0.355-0.455c0.1,0.404,0.198,0.808,0.301,1.213c0.051,0.152,0.051,0.303,0.102,0.455h-1.717
		C49.941,43.019,49.941,43.019,49.993,42.971z M43.218,63.189c-8.14-3.688-12.893-9.2-15.167-17.643h15.167V63.189z M45.696,63.142
		V45.496h15.012C58.689,52.321,54.339,59.098,45.696,63.142z M61.366,43.071L61.366,43.071c-2.227-7.23-9-12.539-16.937-12.539
		c-7.938,0-14.712,5.309-16.885,12.539h-0.051v-0.052c-1.214-6.116-0.96-11.729-0.708-14.66h35.29
		C62.43,31.797,62.631,37.306,61.366,43.071z M74.816,31.645c-0.152,0-0.304,0.049-0.453,0.049
		c-0.152,0.051-0.307,0.051-0.508,0.102c-0.152,0.05-0.354,0.101-0.507,0.152c-0.149,0.049-0.301,0.101-0.401,0.151
		c-0.153,0.051-0.252,0.101-0.354,0.203c-0.103,0.101-0.204,0.201-0.252,0.303c-0.103,0.202-0.153,0.354-0.204,0.555
		c-0.051,0.202,0,0.405,0.051,0.607c0.053,0.201,0.1,0.354,0.201,0.506c0.104,0.151,0.204,0.303,0.354,0.403
		c0.154,0.102,0.307,0.203,0.457,0.254c0.203,0.049,0.402,0.049,0.605,0.049l-0.203-0.807c-0.15,0-0.302-0.05-0.453-0.101
		c-0.154-0.102-0.252-0.203-0.305-0.405c-0.051-0.101-0.051-0.201,0-0.303c0-0.101,0.053-0.202,0.104-0.252
		c0.047-0.051,0.047-0.102,0.102-0.151c0.049-0.051,0.1-0.102,0.198-0.102c0.103-0.05,0.204-0.05,0.307-0.101
		c0.149-0.051,0.304-0.102,0.456-0.151c0.201-0.051,0.354-0.102,0.504-0.102c0.15-0.05,0.252-0.05,0.303-0.05
		c0.101,0,0.153,0,0.201,0c0.053,0,0.104,0.05,0.153,0.05c0.101,0.051,0.153,0.102,0.2,0.151c0.052,0.051,0.103,0.153,0.154,0.253
		c0.051,0.203,0.051,0.354-0.053,0.506c-0.102,0.151-0.203,0.252-0.354,0.303l0.203,0.809c0.201-0.101,0.354-0.203,0.504-0.303
		c0.15-0.151,0.252-0.253,0.304-0.405c0.052-0.152,0.101-0.303,0.153-0.506c0-0.151,0-0.353-0.055-0.555
		c-0.048-0.203-0.15-0.405-0.252-0.557c-0.103-0.151-0.252-0.303-0.453-0.404c-0.152-0.102-0.254-0.151-0.404-0.151
		C75.067,31.645,74.968,31.594,74.816,31.645 M69.254,60.916c-0.052-0.1-0.103-0.253-0.204-0.354s-0.201-0.201-0.3-0.301
		c-0.103-0.103-0.255-0.203-0.354-0.354c-0.152-0.103-0.254-0.252-0.354-0.354c-0.104-0.102-0.253-0.203-0.354-0.252
		c-0.103-0.054-0.252-0.152-0.354-0.152c-0.103-0.051-0.252-0.051-0.404-0.051c-0.2,0-0.405,0.051-0.608,0.149
		c-0.198,0.103-0.353,0.204-0.504,0.408c-0.15,0.149-0.201,0.3-0.305,0.453c-0.051,0.151-0.099,0.354-0.099,0.507
		c0,0.15,0,0.354,0.099,0.504c0.051,0.15,0.153,0.354,0.305,0.505l0.558-0.606c-0.103-0.149-0.153-0.303-0.153-0.455
		c0-0.15,0.053-0.301,0.201-0.453c0.055-0.104,0.152-0.153,0.253-0.201c0.103-0.055,0.151-0.055,0.255-0.055c0.051,0,0.1,0,0.152,0
		c0.049,0,0.1,0.055,0.201,0.103c0.051,0.052,0.152,0.103,0.252,0.204s0.201,0.201,0.354,0.303c0.153,0.153,0.252,0.254,0.354,0.354
		c0.1,0.1,0.152,0.153,0.201,0.252c0.052,0.051,0.103,0.153,0.103,0.2c0,0.052,0.051,0.104,0.051,0.154c0,0.098,0,0.151-0.051,0.252
		c-0.052,0.102-0.103,0.2-0.149,0.254c-0.152,0.15-0.307,0.252-0.457,0.252c-0.149,0-0.306-0.051-0.455-0.102l-0.556,0.605
		c0.201,0.103,0.354,0.203,0.556,0.252c0.203,0.052,0.354,0.052,0.504,0c0.152-0.049,0.354-0.103,0.508-0.149
		c0.152-0.103,0.303-0.204,0.404-0.354c0.149-0.149,0.252-0.354,0.304-0.558c0.051-0.2,0.1-0.401,0.1-0.606
		C69.303,61.168,69.303,61.017,69.254,60.916"/>
</g>
<polygon fill="#A8996E" points="85.62,45.454 84.611,43.836 85.421,43.28 86.328,44.696 86.938,44.291 86.076,42.926 86.887,42.37 
	87.896,44.039 88.504,43.634 87.036,41.308 83.549,43.533 85.014,45.857 "/>
<polygon fill="#A8996E" points="72.529,88.932 74.45,89.488 75.005,87.518 73.085,87.01 "/>
<polygon fill="#A8996E" points="70.507,28.921 69.747,28.669 68.484,32.613 69.24,32.865 "/>
<polygon fill="#A8996E" points="38.605,39.59 38.554,37.567 36.582,37.617 36.633,39.64 "/>
<polygon fill="#A8996E" points="43.306,36.758 40.829,33.421 40.171,33.927 42.649,37.264 "/>
<polygon fill="#A8996E" points="45.733,35.19 44.52,32.967 47.148,34.382 47.806,34.028 45.834,30.388 45.126,30.792 46.34,33.017 
	43.66,31.55 43.054,31.904 45.025,35.545 "/>
<polygon fill="#A8996E" points="36.279,43.937 35.673,43.583 34.662,45.2 33.802,44.696 34.662,43.28 34.054,42.926 33.195,44.342 
	32.387,43.836 33.347,42.168 32.74,41.813 31.325,44.14 34.863,46.313 "/>
<g transform="translate(0 .043)">
	<path fill="#A8996E" d="M103.316,63.432c2.072-0.658,6.772-2.123,6.772-2.123l-6.62-2.629c0,0,4.447-2.022,6.471-2.932l-6.875-1.82
		c1.869-1.214,6.117-3.54,6.117-3.54l-7.027-1.163l5.611-4.247l-7.027-0.303l5.156-4.854l-7.078,0.455
		c1.418-1.667,3.135-3.741,4.602-5.358l-6.977,1.214l3.942-5.865l-6.776,2.022c0.961-1.972,3.235-6.32,3.235-6.32l-6.219,2.426
		l2.274-6.268l-6.115,3.438c0.558-2.124,1.314-4.651,1.871-6.826l-5.814,4.095c0,0,0.76-4.904,1.063-6.976l-5.309,4.701l0.354-7.078
		l-0.354,0.405c-1.468,1.617-2.882,3.387-4.396,4.853l-0.407-6.977l-4.146,5.713c-0.352-2.174-0.857-4.702-1.16-6.926l-3.541,6.118
		l-1.971-6.725l-2.781,6.422l-2.731-6.422l-2.021,6.725l-3.439-6.168l-1.264,6.926l-4.044-5.712l-0.557,7.027l-4.651-5.258
		l0.253,7.078l-5.258-4.651l1.012,6.978l-5.663-4.146l1.718,6.875c0,0-4.195-2.426-6.066-3.487l2.528,6.622l-6.472-2.729
		l3.186,6.269L20,30.266l3.943,5.865l-6.926-1.265l4.499,5.46l-7.127-0.758l5.055,4.955l-7.027,0.201l5.612,4.399l-6.978,0.96
		l6.066,3.689c-2.072,0.657-4.752,1.214-6.824,1.822l6.37,2.932c-2.022,0.858-6.572,2.629-6.572,2.629s4.752,1.416,6.724,2.224
		l-6.32,3.237c0,0,4.803,1.009,6.978,1.465c-1.82,1.213-5.915,3.942-5.915,3.942l7.078,0.709c-1.618,1.416-5.46,4.601-5.46,4.601
		l7.128-0.051L15.4,82.289l7.078-0.912c-1.314,1.771-4.348,5.665-4.348,5.665l6.977-1.62l-3.691,6.068l6.775-2.377l-3.034,6.371
		c0,0,4.5-2.277,6.42-3.086l-2.275,6.773l5.966-3.791l-1.415,6.979l5.51-4.35l-0.708,6.979l5.057-5.057l-0.051,7.18
		c0,0,3.134-3.995,4.5-5.563c0.303,2.176,0.859,7.079,0.859,7.079l3.792-6.067l1.516,6.979l0.304-0.557l2.932-5.965l2.375,6.823
		l2.477-6.571l3.085,6.319l1.669-6.978c0,0,2.629,4.195,3.739,6.068l0.911-7.132c0,0,3.031,3.943,4.4,5.663l0.197-6.926l4.906,4.854
		l-0.557-6.928l5.408,4.398c-0.455-2.021-1.465-7.027-1.465-7.027c1.818,1.268,4.195,2.684,6.016,3.896l-2.174-6.776l6.368,3.133
		c0,0-2.122-4.495-2.983-6.47c1.976,0.708,4.754,1.669,6.676,2.479c0.252,0.201-3.487-6.115-3.487-6.115l6.774,1.668l-4.197-5.713
		l6.927,0.908l-4.903-5.207l7.127,0.15l-5.408-4.651l7.078-0.653l-5.916-3.998l6.927-1.361L103.316,63.432z M108.221,61.004
		L98.92,60.65l4.195-1.668C104.832,59.69,106.501,60.347,108.221,61.004z M97.251,69.853l3.437,2.629l-4.396,0.301
		C96.291,72.836,96.945,70.861,97.251,69.853z M95.583,44.876l4.347,0.051c-1.111,1.011-2.123,2.022-3.285,2.882L95.583,44.876z
		 M96.945,48.82l4.298,0.657c-1.265,0.858-2.275,1.718-3.539,2.478L96.945,48.82z M98.158,65.705l3.793,2.377l-4.398,0.708
		L98.158,65.705z M97.959,53.016l4.143,1.063L98.413,56.1L97.959,53.016z M98.512,61.51l4.098,1.922
		c-1.414,0.455-2.881,0.811-4.35,1.213L98.512,61.51z M98.464,57.212l4.246,1.466c-1.313,0.555-2.78,1.163-4.146,1.718
		L98.464,57.212z M108.066,55.696l-9.25,0.708l3.943-2.125L108.066,55.696z M107.26,50.488l-9.048,1.668l3.638-2.578L107.26,50.488z
		 M105.996,45.332l-8.799,2.68l3.391-2.934L105.996,45.332z M104.124,40.326l-8.541,3.691l3.03-3.388
		C98.665,40.68,102.355,40.428,104.124,40.326z M95.127,43.915l-1.465-2.83c1.465-0.153,4.346-0.405,4.346-0.405
		S96.139,42.752,95.127,43.915z M101.598,35.675l-8.14,4.702l2.578-3.691C97.906,36.332,99.826,35.978,101.598,35.675z
		 M93.104,40.124l-1.771-2.78l4.146-0.606L93.104,40.124z M98.816,31.176l-7.482,5.409l2.273-3.894
		C95.379,32.187,97.1,31.731,98.816,31.176z M90.829,36.585h-0.103l-1.92-2.426l4.297-1.467L90.829,36.585z M95.379,27.08
		l-6.775,6.269l1.873-4.296L95.379,27.08z M88.05,33.451l-2.327-2.226c1.313-0.707,2.729-1.364,4.146-1.92L88.05,33.451z
		 M86.887,26.12l4.754-2.729l-6.17,6.977L86.887,26.12z M85.014,30.468l-2.527-1.92l3.793-2.377
		C85.975,27.585,85.421,29.053,85.014,30.468z M82.991,23.29l4.399-3.136l-5.259,7.583L82.991,23.29z M81.628,27.89
		c-0.912-0.456-1.771-1.113-2.729-1.619l3.588-2.83C82.184,24.957,81.932,26.423,81.628,27.89z M78.85,21.064l4.043-3.691
		l-4.396,8.14L78.85,21.064z M74.498,19.144l3.589-4.045l-3.534,8.544C74.553,22.328,74.45,20.71,74.498,19.144z M78.342,21.216
		l-0.354,4.5l-2.83-1.314L78.342,21.216z M74.045,19.447l0.1,4.55l-2.93-1.011v-0.152L74.045,19.447z M73.085,13.43l-2.578,8.898
		l-0.56-4.499L73.085,13.43z M69.492,18.132l0.609,4.5l-3.137-0.657L69.492,18.132z M67.878,12.47l-1.565,8.898l-1.063-4.297
		L67.878,12.47z M64.844,17.374l1.161,4.399l-3.185-0.354L64.844,17.374z M62.668,11.661l-0.555,9.252l-1.618-4.146L62.668,11.661z
		 M60.142,17.324c0,0,1.11,2.629,1.566,4.095l-3.184-0.051L60.142,17.324z M57.31,11.712l0.456,9.252l-2.023-3.994L57.31,11.712z
		 M55.49,17.374l2.023,4.096l-3.186,0.353L55.49,17.374z M52.052,12.318c0,0,1.011,6.066,1.466,9.151l-2.426-3.792L52.052,12.318z
		 M50.84,18.132l2.476,3.843l-3.084,0.707L50.84,18.132z M46.846,13.481l2.477,8.847l-2.832-3.336L46.846,13.481z M46.391,19.649
		l2.781,3.286c-0.96,0.354-2.023,0.707-2.983,1.112L46.391,19.649z M45.277,23.744l-3.235-2.983l-0.203-5.612L45.277,23.744z
		 M45.228,24.401l-2.934,1.314l-0.303-4.348L45.228,24.401z M21.718,60.196c-1.415-0.456-2.831-1.113-4.246-1.669
		c1.365-0.557,2.881-1.011,4.297-1.466C21.618,58.071,21.718,59.234,21.718,60.196z M21.921,64.493l-4.398-1.267
		c0,0,2.78-1.262,4.146-1.92L21.921,64.493z M17.826,53.825l4.398-1.011l-0.354,3.134L17.826,53.825z M22.072,65.502l0.606,3.137
		l-4.499-0.761L22.072,65.502z M18.735,49.224c1.466-0.203,3.034-0.303,4.551-0.455l-0.809,3.083L18.735,49.224z M22.881,69.648
		c0.354,0.961,0.657,2.021,1.011,3.033l-4.5-0.254L22.881,69.648z M23.539,47.859l-3.033-2.932l4.247-0.203L23.539,47.859z
		 M37.896,23.542l3.64,2.628l-2.882,1.72L37.896,23.542z M37.948,28.395l-2.629,2.022l-1.214-4.146L37.948,28.395z M37.037,17.475
		l4.399,8.139l-3.59-2.628L37.037,17.475z M32.588,20.307l5.258,7.633l-3.792-2.174L32.588,20.307z M28.393,23.542l6.066,7.078
		l-3.994-1.82L28.393,23.542z M34.61,31.074l-2.376,2.275l-1.667-3.993L34.61,31.074z M24.601,27.233
		c2.224,2.173,4.55,4.145,6.825,6.319l-4.196-1.314L24.601,27.233z M31.527,34.108c-0.657,0.809-1.365,1.668-2.022,2.477
		l-2.072-3.691L31.527,34.108z M21.213,31.328c2.477,1.87,5.005,3.69,7.432,5.561l-4.347-0.96L21.213,31.328z M28.847,37.394
		l-1.719,2.68l-0.05,0.101l-2.579-3.691L28.847,37.394z M18.381,35.826l7.989,4.651l-4.349-0.303L18.381,35.826z M26.572,40.933
		l-1.416,2.831l-2.881-3.184L26.572,40.933z M16.057,40.58c2.83,1.212,5.51,2.527,8.341,3.741l-4.349,0.203L16.057,40.58z
		 M14.085,45.483l8.847,2.832l-4.5,0.455L14.085,45.483z M12.82,50.641l9.101,1.818l-4.449,0.962L12.82,50.641z M12.063,55.948
		l9.201,0.809l-4.297,1.416L12.063,55.948z M11.961,61.205l9.303-0.201l-4.044,1.869L11.961,61.205z M12.417,66.516l9.099-1.267
		l-3.741,2.329L12.417,66.516z M13.428,71.723l8.947-2.225l-3.538,2.73L13.428,71.723z M15.046,76.779l8.644-3.188l-3.184,3.085
		L15.046,76.779z M24.196,73.693l1.314,2.933l-4.499,0.201L24.196,73.693z M17.169,81.632l8.241-4.146l-2.832,3.438L17.169,81.632z
		 M25.915,77.586c0.556,0.861,1.112,1.822,1.618,2.73l-4.5,0.76L25.915,77.586z M19.898,86.182l7.685-5.006l-2.427,3.79
		L19.898,86.182z M28.139,81.227l1.922,2.526l-4.297,1.113L28.139,81.227z M22.983,90.478l7.178-5.867l-1.972,3.996L22.983,90.478z
		 M30.667,84.611l2.123,2.277l-4.044,1.617L30.667,84.611z M31.527,91.893l-4.905,2.328l6.472-6.473L31.527,91.893z M33.599,87.696
		l2.377,2.022l-3.894,1.973L33.599,87.696z M35.167,94.93l-4.6,2.881l5.712-7.28L35.167,94.93z M36.834,90.428l2.579,1.818
		l-3.64,2.479L36.834,90.428z M39.262,97.504l-4.349,3.391l4.904-7.889L39.262,97.504z M40.273,92.853l2.78,1.467l-3.388,2.933
		L40.273,92.853z M39.616,103.371l3.943-8.344l0.049,4.298L39.616,103.371z M44.368,105.391l3.184-8.793
		c0.203,1.517,0.506,4.346,0.506,4.346L44.368,105.391z M44.065,99.073l0.05-4.298l2.832,1.213L44.065,99.073z M48.463,100.541
		l-0.505-4.146l2.983,0.857L48.463,100.541z M49.575,106.857l2.123-9.1l0.911,4.246L49.575,106.857z M52.963,101.549l-0.86-4.045
		l3.033,0.508L52.963,101.549z M54.833,107.719l1.113-9.255l1.264,4.298L54.833,107.719z M57.613,102.359l-1.364-4.195l3.184,0.201
		L57.613,102.359z M60.242,107.971l0.051-9.252l1.82,4.247L60.242,107.971z M62.368,102.407c0,0-1.116-2.778-1.821-4.093
		c1.061-0.049,3.137-0.201,3.137-0.201L62.368,102.407z M65.501,107.668l-1.013-9.204l2.226,3.845L65.501,107.668z M67.018,101.902
		l-2.225-3.842l3.085-0.558L67.018,101.902z M70.759,106.807l-2.022-9.099l2.681,3.69L70.759,106.807z M71.668,100.895l-2.68-3.643
		l2.982-0.857L71.668,100.895z M75.813,105.291l-2.93-8.747l3.083,3.388L75.813,105.291z M73.085,96.09l2.829-1.16l0.052,4.346
		L73.085,96.09z M60.09,95.889c-19.868,0-35.995-16.127-35.995-35.998c0-19.868,16.127-35.995,35.995-35.995
		c19.87,0,35.997,16.127,35.997,35.995C96.087,79.811,79.96,95.889,60.09,95.889z M99.02,76.93l-4.297-0.203l1.264-2.83L99.02,76.93
		z M96.896,81.076L92.6,80.471c0.654-1.115,1.517-2.73,1.517-2.73L96.896,81.076z M94.367,85.02l-4.295-1.112l1.818-2.529
		L94.367,85.02z M91.436,88.759l-4.094-1.668l2.021-2.325L91.436,88.759z M86.43,87.85l1.62,4.195l-3.896-2.122L86.43,87.85z
		 M83.195,90.578l1.109,4.352L80.667,92.4L83.195,90.578z M80.313,97.303l-3.336-2.932l2.73-1.465L80.313,97.303z M80.818,103.471
		l-3.992-8.596l3.486,3.085L80.818,103.471z M85.368,100.742l-4.802-7.891l3.588,2.529L85.368,100.742z M89.768,97.759l-5.66-7.382
		l3.942,2.225L89.768,97.759z M93.813,94.221l-6.422-6.674l4.146,1.717L93.813,94.221z M97.4,90.325l-7.178-5.966l4.398,1.164
		L97.4,90.325z M100.486,86.027l-7.736-5.053l4.447,0.604L100.486,86.027z M103.115,81.432l-8.24-4.199l4.346,0.201L103.115,81.432z
		 M105.236,76.575l-8.646-3.286l4.397-0.354L105.236,76.575z M106.904,71.568l-9.098-2.377l4.498-0.707L106.904,71.568z
		 M98.613,64.997l4.349-1.212l4.854,2.525L98.613,64.997z"/>
</g>
<polygon fill="#A8996E" points="49.423,29.73 50.535,32.967 51.294,32.713 50.183,29.478 51.192,29.124 50.991,28.416 48.16,29.376 
	48.412,30.084 "/>
<g transform="translate(10.107 13.826)">
	<path fill="#A8996E" d="M19.654,35.685c0.101,0.102,0.202,0.203,0.303,0.253c0.102,0.05,0.254,0.151,0.405,0.203
		c0.151,0.049,0.303,0.101,0.455,0.201c0.152,0.051,0.303,0.102,0.455,0.203c0.152,0.051,0.303,0.101,0.405,0.101
		c0.101,0,0.252,0.051,0.404,0.051c0.151,0,0.253-0.051,0.405-0.101c0.203-0.102,0.354-0.203,0.506-0.354
		c0.151-0.152,0.252-0.303,0.354-0.557c0.101-0.201,0.152-0.404,0.152-0.606c0-0.202-0.051-0.405-0.152-0.657
		c-0.102-0.202-0.203-0.354-0.354-0.455c-0.151-0.151-0.354-0.253-0.657-0.354l-0.557-0.203l-0.555,1.466l0.606,0.253l0.303-0.708
		l0.152,0.051c0.102,0.049,0.202,0.101,0.253,0.151c0.049,0.05,0.151,0.152,0.201,0.201c0.051,0.102,0.051,0.203,0.051,0.305
		c0,0.101,0,0.201-0.051,0.354c-0.05,0.101-0.101,0.201-0.152,0.252c-0.049,0.051-0.151,0.101-0.201,0.152
		c-0.051,0-0.102,0.051-0.153,0.051c-0.049,0-0.151,0-0.201,0c-0.102,0-0.203-0.051-0.303-0.102
		c-0.153-0.049-0.304-0.101-0.456-0.151c-0.201-0.05-0.354-0.152-0.455-0.201c-0.101-0.051-0.203-0.102-0.303-0.153
		c-0.051-0.05-0.151-0.101-0.151-0.152c-0.051-0.049-0.051-0.101-0.102-0.151c-0.049-0.101-0.049-0.151-0.049-0.252
		c0-0.102,0-0.203,0.049-0.303c0.102-0.203,0.203-0.354,0.305-0.405c0.151-0.051,0.303-0.101,0.505-0.051l0.303-0.758
		c-0.151-0.051-0.354-0.051-0.505-0.051c-0.152,0-0.354,0.051-0.506,0.152c-0.151,0.051-0.303,0.203-0.455,0.303
		c-0.153,0.153-0.253,0.304-0.354,0.557c-0.102,0.202-0.152,0.405-0.102,0.607c0,0.201,0.051,0.404,0.151,0.606
		C19.502,35.484,19.553,35.585,19.654,35.685 M41.241,27.041c0.203,0.404,0.505,0.758,0.86,1.061
		c0.354,0.253,0.758,0.456,1.263,0.607c0.455,0.152,0.96,0.201,1.517,0.201c0.354,0,0.758-0.049,1.112-0.101
		c0.354-0.051,0.657-0.151,0.911-0.303c0.05-0.051,0.101-0.051,0.101-0.102c0-0.05,0-0.101,0-0.252v-0.909c0-0.506,0-0.962,0-1.113
		v-0.606c0-0.051-0.051-0.102-0.101-0.102l0,0c-0.202,0-0.354,0-0.455,0c-0.051,0-0.203,0-0.456,0c-0.354,0-0.606,0-0.758,0
		c-0.203,0-0.253,0.051-0.253,0.153c0,0.049,0,0.101,0.203,0.101c0.151,0,0.253,0,0.303,0c0.102,0,0.202,0.051,0.253,0.151
		c0.051,0.051,0.051,0.152,0.051,0.303s0,0.606,0,1.113v0.758c0,0.151-0.051,0.203-0.153,0.252
		c-0.101,0.051-0.151,0.051-0.303,0.051c-0.101,0-0.252,0-0.404,0c-0.405,0-0.809-0.101-1.163-0.252s-0.657-0.354-0.911-0.657
		c-0.252-0.253-0.455-0.607-0.556-0.961c-0.151-0.354-0.202-0.809-0.202-1.212c0-0.506,0.051-0.911,0.202-1.214
		c0.152-0.303,0.303-0.557,0.556-0.758c0.253-0.203,0.505-0.354,0.759-0.405c0.606-0.151,1.415-0.101,1.972,0.102
		c0.303,0.151,0.556,0.252,0.707,0.455c0.102,0.101,0.153,0.203,0.203,0.303c0.051,0.101,0.051,0.203,0.102,0.354
		c0,0.151,0.101,0.151,0.152,0.151c0.05,0,0.151-0.051,0.151-0.253c0-0.353,0-0.606,0-0.809c0-0.201,0-0.354,0.05-0.455
		c0-0.051,0-0.101,0-0.101c0-0.051,0-0.152-0.151-0.152c-0.101,0-0.202,0-0.303-0.051c-0.101,0-0.252-0.051-0.354-0.051
		c-0.05,0-0.101,0-0.201-0.05c-0.102,0-0.254-0.051-0.405-0.051s-0.303-0.051-0.455-0.051c-0.557-0.051-1.112,0-1.618,0.102
		c-0.354,0.05-0.708,0.201-1.113,0.455c-0.404,0.252-0.758,0.606-1.061,1.112c-0.253,0.455-0.405,1.063-0.405,1.668
		C40.938,26.13,41.039,26.636,41.241,27.041 M51.15,28.507h-0.202c-0.101,0-0.15-0.051-0.201-0.102
		c-0.053-0.05-0.053-0.152-0.101-0.252c0-0.151,0-0.354-0.054-0.657c0-0.252,0-0.657,0-1.163v-2.729c0-0.203,0-0.354,0-0.456
		c0-0.151,0.054-0.252,0.054-0.303c0.048-0.051,0.101-0.101,0.201-0.101s0.153,0,0.252,0c0.153,0,0.201-0.102,0.201-0.151
		c0-0.102-0.15-0.102-0.253-0.102c-0.102,0-0.303,0-0.605,0c-0.202,0-0.354,0-0.403,0c-0.102,0-0.253,0-0.456,0
		c-0.303,0-0.504,0-0.606,0c-0.051,0-0.252,0-0.252,0.102c0,0.049,0,0.151,0.201,0.151c0.102,0,0.203,0,0.304,0.05
		c0.152,0.051,0.201,0.153,0.252,0.405c0,0.152,0,0.303,0,0.455v2.73c0,0.506,0,0.91,0,1.163c0,0.252,0,0.505-0.051,0.657
		c0,0.201-0.101,0.354-0.201,0.354c-0.102,0-0.202,0.05-0.304,0.05c-0.152,0-0.201,0.051-0.201,0.102
		c0,0.05,0.049,0.152,0.201,0.152c0.102,0,0.354,0,0.657,0c0.203,0,0.354,0,0.405,0c0.101,0,0.203,0,0.407,0
		c0.352,0,0.654,0,0.906,0c0.152,0,0.203-0.051,0.203-0.152c0-0.051,0-0.102-0.203-0.102C51.3,28.507,51.252,28.507,51.15,28.507
		 M52.414,28.759c0.152,0,0.304,0,0.455,0c0.153,0,0.252,0,0.353,0c0.103,0,0.155,0,0.155,0c0.049,0,0.199,0,0.453,0
		c0.201,0,0.354,0,0.453,0c0.152,0,0.205-0.101,0.205-0.151c0-0.05,0-0.101-0.205-0.101h-0.1c-0.102,0-0.201,0-0.201-0.051
		c-0.054-0.051-0.054-0.101-0.054-0.151c0-0.101,0.054-0.303,0.103-0.506l0.457-1.212h1.868l0.657,1.769
		c0,0,0.051,0.152,0.051,0.203c0.053,0.101,0.053,0.151,0.153,0.151s0.2,0,0.301,0c0.103,0,0.255,0,0.354,0h0.811
		c0.15,0,0.252,0,0.303,0c0.104,0,0.104-0.102,0.104-0.102c0-0.05,0-0.101-0.153-0.101c-0.103,0-0.252,0-0.354-0.051
		c-0.099,0-0.201-0.101-0.299-0.203c-0.104-0.101-0.256-0.353-0.354-0.657l-1.821-4.499c-0.152-0.304-0.201-0.505-0.255-0.607
		c-0.101-0.201-0.149-0.303-0.252-0.303c-0.049,0-0.101,0-0.149,0.102c-0.052,0.05-0.103,0.151-0.15,0.252l-2.076,5.207
		c-0.1,0.253-0.198,0.405-0.301,0.505c-0.102,0.102-0.203,0.152-0.354,0.203c-0.104,0-0.154,0-0.253,0
		c-0.153,0-0.153,0.102-0.153,0.102C52.163,28.658,52.211,28.759,52.414,28.759z M55.397,24.058l0.76,2.022h-1.52L55.397,24.058z"/>
</g>
<polygon fill="#A8996E" points="56.804,31.501 56.653,30.792 54.783,31.096 54.581,30.084 56.198,29.833 56.098,29.124 
	54.479,29.376 54.327,28.416 56.249,28.113 56.098,27.405 53.417,27.861 54.075,31.956 "/>
<g transform="translate(9.188 9.232)">
	<path fill="#A8996E" d="M22.838,44.934c0.051-0.203,0.051-0.404,0.051-0.606c-0.051-0.203-0.102-0.354-0.203-0.557
		c-0.101-0.151-0.203-0.252-0.303-0.354c-0.102-0.101-0.253-0.151-0.405-0.201c-0.151-0.051-0.252-0.102-0.403-0.102l-0.455-0.101
		l-0.456-0.102c-0.151-0.049-0.303-0.049-0.455-0.049c-0.151,0-0.303,0-0.404,0.049c-0.153,0.051-0.253,0.102-0.405,0.203
		c-0.152,0.102-0.303,0.253-0.405,0.405c-0.101,0.151-0.151,0.354-0.201,0.555l-0.303,1.466l4.044,0.81L22.838,44.934z
		 M22.13,44.884l-0.101,0.606L19.4,44.934l0.101-0.606c0.051-0.151,0.051-0.253,0.151-0.354c0.051-0.101,0.153-0.152,0.253-0.203
		c0.051-0.05,0.101-0.05,0.152-0.05c0.051,0,0.151,0,0.203,0c0.101,0,0.202,0,0.303,0.05c0.101,0,0.252,0.051,0.404,0.051
		c0.305,0.051,0.557,0.101,0.708,0.152c0.151,0.051,0.253,0.101,0.354,0.203c0.051,0.101,0.101,0.202,0.151,0.303
		C22.13,44.63,22.13,44.731,22.13,44.884z M49.38,20.565c0,0.152,0,0.303,0.051,0.455c0,0.152,0.049,0.253,0.101,0.405
		c0.051,0.101,0.151,0.252,0.253,0.354c0.151,0.151,0.303,0.252,0.506,0.354c0.201,0.101,0.403,0.101,0.606,0.101
		c0.202,0,0.405-0.051,0.606-0.101c0.201-0.051,0.354-0.203,0.555-0.354c0.152-0.151,0.253-0.303,0.307-0.506
		c0.049-0.202,0.1-0.455,0.1-0.759v-0.606h-1.566v0.657h0.76v0.152c0,0.102,0,0.202-0.052,0.303
		c-0.051,0.102-0.051,0.152-0.151,0.253c-0.05,0.051-0.15,0.152-0.253,0.152c-0.101,0.051-0.202,0.051-0.354,0.051
		c-0.101,0-0.203,0-0.303-0.051c-0.101-0.051-0.151-0.101-0.203-0.152c-0.049-0.051-0.049-0.102-0.101-0.151
		c-0.051-0.051-0.051-0.102-0.051-0.203s-0.051-0.202-0.051-0.303c0-0.151,0-0.303,0-0.505c0-0.202,0-0.354,0-0.506
		c0-0.151,0-0.253,0.051-0.303c0-0.102,0.051-0.152,0.051-0.203c0.051-0.051,0.051-0.101,0.101-0.152
		c0.051-0.051,0.152-0.102,0.203-0.151c0.101-0.051,0.203-0.051,0.303-0.051c0.202,0,0.354,0.051,0.504,0.151
		c0.104,0.102,0.204,0.253,0.255,0.455h0.808c-0.047-0.151-0.102-0.353-0.149-0.505c-0.103-0.152-0.204-0.303-0.306-0.404
		c-0.15-0.101-0.301-0.203-0.453-0.303c-0.201-0.051-0.404-0.102-0.657-0.102c-0.252,0-0.455,0.051-0.606,0.102
		c-0.151,0.05-0.354,0.203-0.505,0.354c-0.101,0.101-0.203,0.201-0.254,0.353c-0.049,0.102-0.101,0.253-0.101,0.405
		s-0.051,0.303-0.051,0.455s0,0.303,0,0.506C49.329,20.211,49.329,20.414,49.38,20.565"/>
</g>
<polygon fill="#A8996E" points="87.594,67.898 88.303,68.053 88.759,66.23 92.093,66.99 92.246,66.23 88.2,65.271 "/>
<polygon fill="#A8996E" points="31.476,62.139 30.768,62.239 31.021,64.109 27.633,64.516 27.735,65.322 31.83,64.816 "/>
<path fill="#A8996E" d="M34.56,76.141c0.151-0.103,0.253-0.149,0.354-0.252c0.102-0.103,0.203-0.201,0.253-0.304
	c0.05-0.099,0.152-0.252,0.152-0.354c0.049-0.201,0.049-0.404,0.049-0.605s-0.101-0.404-0.201-0.605
	c-0.102-0.201-0.253-0.354-0.405-0.508c-0.152-0.102-0.354-0.201-0.557-0.252c-0.152-0.049-0.303-0.049-0.404-0.049
	c-0.151,0-0.253,0.049-0.405,0.1c-0.151,0.051-0.252,0.101-0.403,0.201c-0.152,0.051-0.303,0.152-0.455,0.252
	c-0.151,0.103-0.304,0.153-0.456,0.256c-0.152,0.1-0.252,0.152-0.353,0.252c-0.102,0.103-0.203,0.201-0.253,0.304
	c-0.051,0.102-0.151,0.252-0.151,0.354c-0.051,0.203-0.051,0.404-0.051,0.605c0,0.203,0.102,0.404,0.203,0.605
	c0.101,0.204,0.253,0.354,0.405,0.508c0.152,0.1,0.353,0.201,0.556,0.252c0.151,0.051,0.303,0.051,0.405,0.051
	c0.152,0,0.252-0.051,0.404-0.102c0.151-0.049,0.253-0.103,0.405-0.201c0.151-0.051,0.303-0.153,0.455-0.256
	C34.256,76.346,34.408,76.242,34.56,76.141 M33.296,75.939c-0.101,0.051-0.202,0.099-0.303,0.151c-0.102,0.05-0.152,0.05-0.203,0.05
	c-0.051,0-0.101,0-0.152,0c-0.101,0-0.151-0.05-0.252-0.104c-0.102-0.048-0.153-0.148-0.203-0.252
	c-0.051-0.1-0.102-0.201-0.102-0.301c0-0.103,0-0.203,0.051-0.254c0-0.053,0.051-0.101,0.051-0.153
	c0.05-0.048,0.101-0.101,0.152-0.15c0.051-0.051,0.151-0.102,0.252-0.204c0.102-0.048,0.253-0.148,0.405-0.252
	c0.151-0.099,0.303-0.15,0.455-0.252c0.101-0.048,0.203-0.102,0.303-0.15c0.102-0.051,0.151-0.051,0.202-0.051
	c0.051,0,0.101,0,0.152,0c0.101,0,0.151,0.051,0.253,0.101c0.101,0.054,0.151,0.151,0.201,0.255c0.051,0.1,0.102,0.201,0.102,0.303
	s0,0.201-0.051,0.252c0,0.051-0.051,0.104-0.101,0.15c-0.051,0.054-0.102,0.102-0.151,0.152c-0.051,0.052-0.153,0.103-0.253,0.201
	c-0.101,0.055-0.252,0.152-0.404,0.256C33.548,75.786,33.396,75.889,33.296,75.939"/>
<polygon fill="#A8996E" points="33.145,69.67 30.516,69.771 32.639,68.254 32.437,67.6 28.139,67.852 28.442,68.659 31.122,68.407 
	28.847,69.975 29.05,70.527 31.779,70.427 29.504,71.895 29.756,72.704 33.347,70.327 "/>
<polygon fill="#A8996E" points="86.027,72.096 86.734,72.35 87.441,70.58 88.352,70.934 87.744,72.449 88.404,72.755 89.059,71.236 
	89.917,71.591 89.212,73.361 89.869,73.613 90.932,71.087 87.09,69.521 "/>
<polygon fill="#A8996E" points="84.813,74.373 86.988,75.738 83.954,75.786 83.549,76.393 87.09,78.568 87.492,77.911 
	85.368,76.546 88.352,76.494 88.759,75.889 85.218,73.664 "/>
<polygon fill="#A8996E" points="38.554,78.82 36.582,80.438 37.493,77.557 37.037,77.002 33.853,79.682 34.358,80.288 
	36.279,78.667 35.419,81.551 35.874,82.105 39.06,79.479 "/>
<path fill="#A8996E" d="M63.936,90.701c-0.104-0.15-0.252-0.252-0.406-0.303c0.154-0.101,0.253-0.201,0.304-0.354
	c0.103-0.153,0.103-0.303,0.103-0.556c0-0.149-0.054-0.354-0.152-0.456c-0.051-0.149-0.152-0.253-0.303-0.354
	c-0.103-0.103-0.252-0.15-0.405-0.201c-0.152-0.051-0.354-0.051-0.507-0.051c-0.15,0-0.353,0.051-0.504,0.102
	c-0.15,0.049-0.254,0.15-0.354,0.252c-0.103,0.104-0.201,0.253-0.252,0.406c-0.051,0.152-0.103,0.303-0.051,0.506l0.759-0.053
	c0-0.15,0.051-0.301,0.102-0.402c0.104-0.103,0.201-0.152,0.354-0.152c0.149,0,0.252,0,0.354,0.102
	c0.1,0.101,0.149,0.201,0.201,0.405c0,0.15,0,0.252-0.103,0.402c-0.052,0.103-0.201,0.151-0.405,0.204h-0.102l0.054,0.656h0.101
	c0.2,0,0.354,0,0.455,0.1c0.1,0.104,0.152,0.252,0.201,0.404c0,0.201,0,0.354-0.104,0.457c-0.098,0.1-0.2,0.152-0.401,0.201
	c-0.052,0-0.151,0-0.204,0c-0.048,0-0.15-0.049-0.201-0.103c-0.051-0.05-0.099-0.101-0.152-0.149
	c-0.049-0.052-0.049-0.15-0.049-0.253l-0.759,0.048c0,0.205,0.101,0.408,0.153,0.559c0.1,0.15,0.201,0.253,0.3,0.354
	c0.153,0.103,0.255,0.15,0.456,0.201c0.15,0.051,0.305,0.051,0.505,0.051c0.152,0,0.354-0.051,0.507-0.102
	c0.152-0.049,0.303-0.15,0.404-0.252c0.104-0.104,0.201-0.253,0.253-0.402c0.052-0.152,0.052-0.354,0.052-0.559
	C64.085,91.057,64.033,90.854,63.936,90.701"/>
<polygon fill="#A8996E" points="66.966,87.77 66.313,88.68 66.51,89.488 67.17,88.576 67.979,91.814 68.686,91.613 67.674,87.568 
	"/>
<polygon fill="#A8996E" points="41.436,83.318 40.627,83.473 40.98,81.299 40.273,80.744 39.817,83.573 37.694,83.979 
	38.453,84.585 40.728,84.129 39.565,85.545 40.171,86.05 42.851,82.865 42.245,82.357 "/>
<path fill="#A8996E" d="M58.727,88.883c-0.102-0.104-0.254-0.203-0.405-0.253c-0.151-0.054-0.303-0.103-0.506-0.103
	c-0.202,0-0.354,0-0.505,0.049c-0.152,0.054-0.303,0.104-0.404,0.203c-0.102,0.104-0.203,0.253-0.303,0.406
	c-0.102,0.152-0.102,0.354-0.151,0.556c0,0.202,0,0.354,0.049,0.504c0.051,0.153,0.102,0.306,0.203,0.407
	c0.101,0.1,0.203,0.201,0.354,0.252c0.152,0.049,0.252,0.103,0.404,0.103c0.051,0,0.102,0,0.152,0c0.051,0,0.102,0,0.153-0.054
	l-0.962,1.669l0.809,0.051l1.011-1.72c0.102-0.201,0.203-0.354,0.303-0.555c0.102-0.153,0.153-0.354,0.153-0.557
	c0-0.203,0-0.404-0.051-0.558C58.928,89.135,58.827,88.984,58.727,88.883 M58.271,89.792c0,0.201-0.05,0.354-0.201,0.453
	c-0.102,0.103-0.254,0.153-0.405,0.153s-0.303-0.101-0.354-0.201c-0.101-0.104-0.152-0.254-0.101-0.456
	c0-0.201,0.051-0.354,0.203-0.456c0.101-0.1,0.252-0.15,0.403-0.15c0.152,0,0.303,0.051,0.354,0.204
	C58.271,89.438,58.321,89.591,58.271,89.792"/>
<polygon fill="#A8996E" points="52.355,88.375 52.154,89.135 53.164,88.63 52.406,91.865 53.115,92.066 54.075,87.971 53.316,87.82 
	"/>
<polygon fill="#A8996E" points="45.48,87.616 46.086,89.488 48.008,88.883 47.401,86.962 "/>
<polygon fill="#A8996E" points="88.504,63.555 89.212,63.604 89.363,61.732 92.75,61.986 92.852,61.178 88.705,60.873 "/>
<path fill="#A8996E" d="M69.395,68.407l0.404-0.509l-0.307-0.252l0.811-0.959l-0.857-0.709l-0.812,0.961l-0.303-0.252l-0.353,0.455
	l0,0C68.434,67.445,68.988,67.852,69.395,68.407"/>
<polygon fill="#A8996E" points="88.705,59.053 89.413,59.003 89.264,57.081 90.271,57.032 90.424,58.649 91.133,58.598 
	90.979,56.93 91.993,56.88 92.145,58.801 92.852,58.75 92.6,56.021 88.504,56.323 "/>
<g transform="translate(20.215 31.284)">
	<path fill="#A8996E" d="M30.834,43.232l-2.072-4.347h-1.619v0.201C27.093,39.086,29.469,41.715,30.834,43.232 M46.203,39.846
		l0.857-1.015l0.406,0.354l0.303-0.354c-0.149-0.504-0.555-0.858-1.213-1.362c-0.051-0.051-0.102-0.051-0.102-0.103L46,37.87
		l0.407,0.354l-0.86,1.015L46.203,39.846z"/>
	<path fill="#A8996E" d="M45.951,42.168L45.951,42.168L45.951,42.168l-0.456,1.267h2.479l-0.203-1.164
		c0.857-0.402,1.518-1.465,1.617-2.779c0-0.102,0-0.203,0-0.305c0-0.05,0-0.101,0-0.15c0-0.051,0-0.103,0-0.15
		c0-0.054,0-0.102,0-0.152c0-0.052,0-0.052,0-0.103c0-0.052-0.051-0.151-0.051-0.201v-0.051c0-0.052-0.05-0.152-0.05-0.201v-0.051
		c0-0.052-0.054-0.153-0.103-0.201l0,0c-0.051-0.054-0.051-0.153-0.102-0.204l0,0c-0.049-0.051-0.104-0.15-0.15-0.204
		c-0.404-0.553-0.961-0.96-1.416-1.313c0,0,0,0-0.051-0.049c-0.1-0.102-0.252-0.203-0.354-0.252l-0.706,0.91
		c0.1,0.1,0.199,0.151,0.352,0.252c0.051,0,0.051,0.051,0.103,0.051c0.508,0.401,1.012,0.757,1.264,1.313l0,0
		c0.052,0.103,0.103,0.201,0.103,0.354c0,0.048,0,0.102,0.049,0.149c0,0.052,0,0.103,0,0.152c0,0.101,0,0.253,0,0.354
		c-0.1,1.112-0.758,2.072-1.768,1.971l-2.477-2.072l-0.605,0.708L45.951,42.168L45.951,42.168z"/>
</g>
<polygon fill="#A8996E" points="47.351,69.418 47.351,69.568 51.344,69.568 49.069,68.104 "/>
<polygon fill="#A8996E" points="53.417,69.568 57.461,69.568 57.461,69.418 55.793,68.206 "/>
<polygon fill="#A8996E" points="52.001,75.18 52.001,70.175 49.575,70.175 "/>
<polygon fill="#A8996E" points="53.569,74.574 57.461,70.379 57.461,70.175 55.946,70.175 "/>
<polygon fill="#A8996E" points="52.558,70.175 52.558,75.333 55.289,70.175 "/>
<polygon fill="#A8996E" points="65.45,73.41 63.629,71.895 63.124,72.956 64.488,74.068 "/>
<polygon fill="#A8996E" points="49.878,67.898 52.306,69.521 55.086,67.898 "/>
</svg>
